<?xml version="1.0" encoding="UTF-8" standalone="no"?>
<svg
   xmlns:dc="http://purl.org/dc/elements/1.1/"
   xmlns:cc="http://creativecommons.org/ns#"
   xmlns:rdf="http://www.w3.org/1999/02/22-rdf-syntax-ns#"
   xmlns:svg="http://www.w3.org/2000/svg"
   xmlns="http://www.w3.org/2000/svg"
   viewBox="0 0 770.00001 1580"
   version="1.1"
   width="770"
   height="1580"
   id="svg11071">
  <defs
     id="defs3775" />
  <metadata
     id="metadata11076">
    <rdf:RDF>
      <cc:Work
         rdf:about="">
        <dc:format>image/svg+xml</dc:format>
        <dc:type
           rdf:resource="http://purl.org/dc/dcmitype/StillImage" />
        <dc:title></dc:title>
      </cc:Work>
    </rdf:RDF>
  </metadata>
  <g
     transform="matrix(-1,0,0,1,770.5,0)"
     id="layer3">
    <path
       style="fill:none;stroke:#ff8800;stroke-width:9"
       d="M 766,366 V 466"
       id="path11635" />
    <path
       style="fill:none;stroke:#888888;stroke-width:9"
       d="M 766,768 V 568"
       id="path11637" />
    <g
       style="fill-rule:evenodd"
       id="g3764">
      <rect
         style="fill:#222222"
         x="0"
         y="0"
         width="767"
         height="1580"
         ry="80"
         rx="80"
         id="rect11633" />
    </g>
    <g
       style="fill:#ffffff;fill-rule:evenodd"
       id="g3769">
      <rect
         style="fill-opacity:0.13332998"
         x="273.5"
         y="1526"
         width="220"
         height="15"
         ry="5"
         rx="5"
         id="rect11707" />
      <path
         style="fill-opacity:0.86667002"
         d="M 70.36319,6.9493575 C 28.332124,5.755102 4.8083241,47.982906 4.8378685,83.222978 L 6.032124,1507.7128 c 0.025949,30.952 32.037776,68.2787 64.633409,68.2161 l 622.086167,-1.1942 c 30.87325,-0.059 68.21618,-37.2632 68.21618,-64.6334 V 76.057445 c 0,-31.282766 -24.68851,-66.7195765 -63.13681,-70.302343 C 456.89848,4.61017 269.72229,6.9493575 70.36319,6.9493575 Z"
         id="path11722" />
    </g>
  </g>
</svg>
