<?xml version="1.0" encoding="UTF-8" standalone="no"?>
<!-- Created with Inkscape (http://www.inkscape.org/) -->
<svg id="svg11071" xmlns:rdf="http://www.w3.org/1999/02/22-rdf-syntax-ns#" xmlns="http://www.w3.org/2000/svg" height="1580" width="770" version="1.1" xmlns:cc="http://creativecommons.org/ns#" xmlns:dc="http://purl.org/dc/elements/1.1/" viewBox="0 0 770.00001 1580">
 <metadata id="metadata11076">
  <rdf:RDF>
   <cc:Work rdf:about="">
    <dc:format>image/svg+xml</dc:format>
    <dc:type rdf:resource="http://purl.org/dc/dcmitype/StillImage"/>
    <dc:title/>
   </cc:Work>
  </rdf:RDF>
 </metadata>
 <g id="layer3">
  <path id="path11635" d="m766 366v100" stroke="#f80" stroke-width="9" fill="none"/>
  <path id="path11637" d="m766 768v-200" stroke="#888" stroke-width="9" fill="none"/>
  <g fill-rule="evenodd">
   <rect id="rect11633" rx="80" ry="80" height="1580" width="767" y="0" x="0" fill="#222"/>
   <rect id="rect11061" fill-opacity=".13333" rx="5" ry="5" height="18" width="80" y="80" x="343.5" fill="#fff"/>
   <circle id="path11063" cx="459" fill-opacity=".26667" cy="76.25" r="15" fill="#00f"/>
   <circle id="path11069" cx="297.25" fill-opacity=".26667" cy="74" r="17.5" fill="#00f"/>
  </g>
  <g fill-rule="evenodd" fill="#fff">
   <rect id="rect11705" fill-opacity=".13333" rx="10" ry="10" height="25" width="50" y="34" x="358.5"/>
   <rect id="rect11707" fill-opacity=".13333" rx="5" ry="5" height="15" width="220" y="1526" x="273.5"/>
   <path id="path11722" d="m83.5 38c-27.7 0-50 22.3-50 50v1360c0 16.62 13.38 30 30 30h640c16.62 0 30-13.38 30-30v-1360c0-27.7-22.3-50-50-50h-90-50c-19.39 0-35 15.61-35 35v4c0 24.93-20.07 45-45 45h-160c-24.93 0-45-20.07-45-45v-4c0-19.39-15.61-35-35-35h-70z" fill-opacity=".86667"/>
  </g>
 </g>
</svg>
