<?xml version="1.0" encoding="UTF-8" standalone="no"?>
<svg
   xmlns:dc="http://purl.org/dc/elements/1.1/"
   xmlns:cc="http://creativecommons.org/ns#"
   xmlns:rdf="http://www.w3.org/1999/02/22-rdf-syntax-ns#"
   xmlns:svg="http://www.w3.org/2000/svg"
   xmlns="http://www.w3.org/2000/svg"
   xmlns:sodipodi="http://sodipodi.sourceforge.net/DTD/sodipodi-0.dtd"
   xmlns:inkscape="http://www.inkscape.org/namespaces/inkscape"
   id="Layer_1"
   data-name="Layer 1"
   viewBox="0 0 750 750"
   version="1.1"
   inkscape:version="0.91 r13725"
   sodipodi:docname="PWA_Illustration_Lighthouse_05_Lighthouse.svg"
   inkscape:export-filename="/Users/ericbidelman/Desktop/lh_logo_icon.png"
   inkscape:export-xdpi="180"
   inkscape:export-ydpi="180"
   width="750"
   height="750">
  <metadata
     id="metadata85">
    <rdf:RDF>
      <cc:Work
         rdf:about="">
        <dc:format>image/svg+xml</dc:format>
        <dc:type
           rdf:resource="http://purl.org/dc/dcmitype/StillImage" />
        <dc:title>PWA_Illustration_Lighthouse</dc:title>
      </cc:Work>
    </rdf:RDF>
  </metadata>
  <sodipodi:namedview
     pagecolor="#ffffff"
     bordercolor="#666666"
     borderopacity="1"
     objecttolerance="10"
     gridtolerance="10"
     guidetolerance="10"
     inkscape:pageopacity="0"
     inkscape:pageshadow="2"
     inkscape:window-width="1143"
     inkscape:window-height="714"
     id="namedview83"
     showgrid="false"
     borderlayer="false"
     fit-margin-top="0"
     fit-margin-left="0"
     fit-margin-right="50"
     fit-margin-bottom="0"
     inkscape:zoom="0.49370068"
     inkscape:cx="330.80744"
     inkscape:cy="423.36785"
     inkscape:window-x="44"
     inkscape:window-y="42"
     inkscape:window-maximized="0"
     inkscape:current-layer="layer6" />
  <defs
     id="defs3">
    <style
       id="style5">.cls-1,.cls-10{fill:#304ffe;}.cls-2{fill:#ffe082;}.cls-10,.cls-2{opacity:0.5;}.cls-3{fill:#2979ff;}.cls-4{fill:#ffd54f;}.cls-5{fill:#fff176;}.cls-6{fill:#f4511e;}.cls-7{fill:#e64a19;}.cls-8{fill:#c5cae9;}.cls-9{fill:#ff7043;}.cls-11{fill:#fdd835;}.cls-12{fill:#fff9c4;}.cls-13{fill:#448aff;}.cls-14{fill:#00c853;}.cls-15{fill:#64dd17;}</style>
  </defs>
  <title
     id="title7">PWA_Illustration_Lighthouse</title>
  <path
     class="cls-1"
     d="m 92.427653,571.02434 c 52.319997,0 52.319997,-33.94 104.639997,-33.94 52.32,0 52.31,33.94 104.63,33.94 52.32,0 52.32,-33.94 104.63,-33.94 52.31,0 52.32,33.94 104.64,33.94 52.32,0 52.32,-33.94 104.64,-33.94 49.48,0 52.17,30.34 96.56,33.64 a 326.73,326.73 0 0 0 8.09,-72.39 c 0,-179.87 -145.82,-325.69 -325.69,-325.69 -179.87,0 -325.699998,145.82 -325.699998,325.69 a 326.75,326.75 0 0 0 7.9,71.51 98.88,98.88 0 0 0 15.660001,1.18 z"
     id="path9"
     inkscape:connector-curvature="0"
     style="fill:#304ffe" />
  <path
     class="cls-3"
     d="M 345.99765,377.16434"
     id="path13"
     inkscape:connector-curvature="0"
     style="fill:#2979ff" />
  <rect
     class="cls-4"
     x="362.97766"
     y="213.56435"
     width="84.839996"
     height="78.489998"
     id="rect15"
     style="fill:#ffd54f" />
  <rect
     class="cls-5"
     x="362.97766"
     y="213.56435"
     width="29.950001"
     height="78.489998"
     id="rect17"
     style="fill:#fff176" />
  <ellipse
     class="cls-5"
     cx="392.29767"
     cy="233.21434"
     rx="19.84"
     ry="24.889999"
     id="ellipse19"
     style="fill:#fff176" />
  <path
     class="cls-6"
     d="m 360.89765,204.70434 a 43.835,43.835 0 1 1 87.67,0"
     id="path21"
     inkscape:connector-curvature="0"
     style="fill:#f4511e" />
  <path
     class="cls-7"
     d="m 405.10765,160.87434 a 43.51,43.51 0 0 1 43.46,43.83 l -43.46,0 0,-43.83 z"
     id="path23"
     inkscape:connector-curvature="0"
     style="fill:#e64a19" />
  <rect
     class="cls-6"
     x="352.41766"
     y="203.29433"
     width="104.64"
     height="11.31"
     rx="5.6599998"
     ry="5.6599998"
     id="rect25"
     style="fill:#f4511e" />
  <polygon
     class="cls-8"
     points="393,416 405.23,173.5 490.07,173.5 501,404 501,404 "
     id="polygon27"
     style="fill:#c5cae9"
     transform="translate(-42.202351,118.02434)" />
  <line
     class="cls-9"
     x1="449.03766"
     y1="310.25433"
     x2="452.29767"
     y2="374.42432"
     id="line29"
     style="fill:#ff7043" />
  <polygon
     class="cls-9"
     points="402.05,233.8 398.63,301.09 494.5,256.4 491.24,192.23 491.24,192.23 "
     id="polygon31"
     style="fill:#ff7043"
     transform="translate(-42.202351,118.02434)" />
  <line
     class="cls-9"
     x1="455.51767"
     y1="437.66437"
     x2="458.78766"
     y2="501.8443"
     id="line33"
     style="fill:#ff7043" />
  <polygon
     class="cls-9"
     points="395.25,367.4 391.83,434.7 500.99,383.82 497.72,319.64 497.72,319.64 "
     id="polygon35"
     style="fill:#ff7043"
     transform="translate(-42.202351,118.02434)" />
  <rect
     class="cls-7"
     x="349.98767"
     y="255.90434"
     width="109.49"
     height="35.82"
     id="rect39"
     style="fill:#e64a19" />
  <rect
     class="cls-6"
     x="349.98767"
     y="255.90434"
     width="71.779999"
     height="35.82"
     id="rect41"
     style="fill:#f4511e" />
  <path
     class="cls-2"
     d="m 403.97765,255.90434 c 0,13 -12.1,23.5 -27,23.5 -14.9,0 -27,-10.52 -27,-23.5"
     id="path43"
     inkscape:connector-curvature="0"
     style="opacity:0.5;fill:#ffe082" />
  <g
     inkscape:groupmode="layer"
     id="layer1"
     inkscape:label="clouds"
     style="display:inline"
     transform="translate(-111.06999,296.26999)">
    <path
       style="fill:#2979ff"
       class="cls-3"
       d="m 653.72764,-50.455653 a 19.59,19.59 0 0 1 8.32,1.84 34.49,34.49 0 0 1 66.7,-9 l 0.12,0 a 23.25,23.25 0 0 1 0,46.5 l -75.14,0 a 19.67,19.67 0 1 1 0,-39.34 z"
       id="path71"
       inkscape:connector-curvature="0" />
    <path
       style="fill:#448aff"
       class="cls-13"
       d="m 430.72764,137.02435 a 16.6,16.6 0 0 1 7,1.56 29.23,29.23 0 0 1 56.53,-7.63 l 0.1,0 a 19.71,19.71 0 1 1 0,39.41 l -63.63,0 a 16.67,16.67 0 1 1 0,-33.34 z"
       id="path77"
       inkscape:connector-curvature="0" />
  </g>
  <g
     inkscape:groupmode="layer"
     id="layer2"
     inkscape:label="stars"
     style="display:inline"
     transform="translate(-111.06999,296.26999)">
    <circle
       style="fill:#fdd835"
       class="cls-11"
       cx="593.86761"
       cy="-88.77565"
       r="3.53"
       id="circle45" />
    <circle
       style="fill:#fff9c4"
       class="cls-12"
       cx="624.86761"
       cy="109.62434"
       r="6.1300001"
       id="circle47" />
    <circle
       style="fill:#fff9c4"
       class="cls-12"
       cx="253.46765"
       cy="53.594345"
       r="6.1300001"
       id="circle49" />
    <circle
       style="fill:#fff9c4"
       class="cls-12"
       cx="353.41763"
       cy="160.21434"
       r="6.1300001"
       id="circle51" />
    <circle
       style="fill:#fff9c4"
       class="cls-12"
       cx="598.4776"
       cy="11.644347"
       r="6.1300001"
       id="circle53" />
    <circle
       style="fill:#fff9c4"
       class="cls-12"
       cx="727.62762"
       cy="169.54436"
       r="6.1300001"
       id="circle55" />
    <circle
       style="fill:#fdd835"
       class="cls-11"
       cx="240.26764"
       cy="192.40434"
       r="3.53"
       id="circle57" />
    <circle
       style="fill:#fdd835"
       class="cls-11"
       cx="272.82764"
       cy="121.09435"
       r="3.53"
       id="circle59" />
    <circle
       style="fill:#fdd835"
       class="cls-11"
       cx="294.73764"
       cy="102.71434"
       r="3.53"
       id="circle61" />
    <circle
       style="fill:#fdd835"
       class="cls-11"
       cx="387.34766"
       cy="20.004347"
       r="3.53"
       id="circle63" />
    <circle
       style="fill:#fdd835"
       class="cls-11"
       cx="679.86761"
       cy="30.224348"
       r="3.53"
       id="circle65" />
    <circle
       style="fill:#fdd835"
       class="cls-11"
       cx="818.5976"
       cy="177.65434"
       r="3.53"
       id="circle67" />
    <circle
       style="fill:#fdd835"
       class="cls-11"
       cx="328.67764"
       cy="9.3943472"
       r="3.53"
       id="circle69" />
    <circle
       style="fill:#fdd835"
       class="cls-11"
       cx="640.89764"
       cy="179.20436"
       r="3.53"
       id="circle73" />
    <circle
       style="fill:#fdd835"
       class="cls-11"
       cx="747.86761"
       cy="90.754349"
       r="3.53"
       id="circle75" />
  </g>
  <g
     inkscape:groupmode="layer"
     id="layer3"
     inkscape:label="light"
     style="display:inline"
     transform="translate(-111.06999,296.26999)">
    <path
       style="opacity:0.5;fill:#ffe082"
       class="cls-2"
       d="m 475.48764,-83.895653 -334.62,-47.789997 a 3.65,3.65 0 0 0 -1,-0.14 c -8.67,0 -16,31.889997 -16,71.149997 0,39.26 7.33,71.07 16,71.07 a 3.66,3.66 0 0 0 0.93,-0.13 l 334.64,-47.88 0,-46.28 z"
       id="path11"
       inkscape:connector-curvature="0" />
  </g>
  <g
     inkscape:groupmode="layer"
     id="layer6"
     inkscape:label="shade"
     style="display:inline">
    <polygon
       class="cls-10"
       points="493.27,173.5 450.37,173.5 450.37,393 502,416 493.27,173.5 "
       id="polygon37"
       style="opacity:0.5;fill:#304ffe"
       transform="translate(-42.202351,118.02434)" />
  </g>
  <g
     inkscape:groupmode="layer"
     id="layer5"
     inkscape:label="GRASS"
     transform="translate(-111.06999,296.26999)"
     style="display:inline">
    <path
       style="fill:#00c853"
       class="cls-14"
       d="m 413.76764,275.48435 c 52.32,0 52.32,-33.94 104.63,-33.94 52.31,0 52.32,33.94 104.63,33.94 44.42,0 51.13,-24.46 84.16,-31.84 -45.13,-24.66 -112.53,-40.33 -187.84,-40.33 -75.63,0 -143.28,15.79 -188.41,40.64 31.93,7.73 39.02,31.53 82.83,31.53 z"
       id="path79"
       inkscape:connector-curvature="0" />
    <path
       style="fill:#64dd17"
       class="cls-15"
       d="m 413.86764,275.01435 c 52.32,0 52.32,-33.94 104.63,-33.94 l 1.1,0 -0.58,-37.32 c -74.89,0 -142,15.49 -187.08,39.91 31.16,7.98 38.55,31.35 81.93,31.35 z"
       id="path81"
       inkscape:connector-curvature="0" />
  </g>
</svg>
