<svg xmlns="http://www.w3.org/2000/svg" viewBox="0 0 24 24"><g stroke="#000"><path d="M 7.854 6.963 6.877 7.279 6.857 8.617 6.889 8.705 7.398 9.699 6.188 10.578 5.398 9.787 5.326 9.73 4.047 9.336 3.443 10.166 l 0.77 1.094 0.078 0.053 0.996 0.504 -0.463 1.424 -1.104 -0.176 -0.092 -0.004 -1.266 0.432 0 1.027 1.266 0.434 0.092 -0.004 1.104 -0.178 0.463 1.424 -0.996 0.506 -0.078 0.051 -0.77 1.094 0.604 0.83 1.279 -0.393 0.072 -0.059 0.789 -0.791 1.211 0.879 -0.51 0.996 -0.031 0.086 0.02 1.338 0.977 0.316 0.803 -1.068 0.025 -0.09 0.172 -1.104 1.498 0 0.172 1.104 0.025 0.09 0.803 1.068 0.977 -0.316 0.02 -1.338 -0.031 -0.086 -0.51 -0.996 1.211 -0.879 0.789 0.791 0.072 0.059 1.279 0.393 0.604 -0.83 -0.771 -1.094 -0.076 -0.051 -0.996 -0.506 0.461 -1.424 1.105 0.178 0.092 0.004 1.266 -0.434 0 -1.027 -1.266 -0.432 -0.092 0.004 -1.105 0.176 -0.461 -1.424 0.996 -0.504 0.076 -0.053 0.771 -1.094 -0.604 -0.83 -1.279 0.395 -0.072 0.057 -0.789 0.791 -1.211 -0.879 0.51 -0.994 0.031 -0.088 -0.02 -1.338 -0.977 -0.316 -0.803 1.07 -0.025 0.088 -0.172 1.105 -1.498 0 L 8.682 8.121 8.656 8.03 7.854 6.963 m 1.748 3.398 a 3.621 3.645 0 0 1 3.621 3.645 3.621 3.645 0 0 1 -3.621 3.646 3.621 3.645 0 0 1 -3.619 -3.646 3.621 3.645 0 0 1 3.619 -3.645 z" transform="translate(0.535 1.346)"/><path d="M 14.885 1.563 L 14.178 1.957 L 14.365 3.24 L 14.396 3.279 L 15.14 4.04 L 14.553 5.03 L 13.529 4.736 L 13.479 4.729 L 12.262 5.172 L 12.25 5.98 L 13.455 6.459 L 13.506 6.453 L 14.537 6.189 L 15.1 7.191 L 14.332 7.932 L 14.301 7.971 L 14.08 9.248 L 14.771 9.662 L 15.787 8.859 L 15.807 8.811 L 16.1 7.787 L 17.242 7.803 L 17.502 8.834 L 17.52 8.883 L 18.514 9.715 L 19.219 9.32 L 19.03 8.04 L 19 7.998 L 18.258 7.234 L 18.844 6.25 L 19.869 6.541 L 19.92 6.551 L 21.14 6.105 L 21.15 5.297 L 19.943 4.818 L 19.893 4.824 L 18.861 5.088 L 18.301 4.086 L 19.07 3.346 L 19.1 3.307 L 19.322 2.029 L 18.627 1.615 L 17.609 2.418 L 17.59 2.467 L 17.303 3.49 L 16.16 3.475 L 15.896 2.443 L 15.879 2.395 L 14.885 1.563 z M 16.699 3.701 A 1.938 1.938 0 0 1 18.637 5.639 A 1.938 1.938 0 0 1 16.699 7.576 A 1.938 1.938 0 0 1 14.762 5.639 A 1.938 1.938 0 0 1 16.699 3.701 z" stroke-width="0.899"/></g></svg>