<?xml version="1.0" encoding="UTF-8" standalone="no"?>
<svg width="1252px" height="876px" viewBox="0 0 1252 876" version="1.1" xmlns="http://www.w3.org/2000/svg" xmlns:xlink="http://www.w3.org/1999/xlink">
    <title>iPad</title>
    <defs>
        <linearGradient x1="53.4074186%" y1="42.8551228%" x2="44.5013504%" y2="61.5298471%" id="linearGradient-1">
            <stop stop-color="#3A3E3A" offset="8.86%"></stop>
            <stop stop-color="#2E332E" offset="34.31%"></stop>
            <stop stop-color="#C0C1C2" offset="36%"></stop>
            <stop stop-color="#3C3F3E" offset="51.34%"></stop>
            <stop stop-color="#4B4E4B" offset="64.16%"></stop>
        </linearGradient>
        <radialGradient cx="49.7525149%" cy="45.0260324%" fx="49.7525149%" fy="45.0260324%" r="43.1038484%" id="radialGradient-2">
            <stop stop-color="#FFFFFF" stop-opacity="0.6" offset="82.84%"></stop>
            <stop stop-color="#FFFFFF" stop-opacity="0" offset="97.66%"></stop>
        </radialGradient>
        <linearGradient x1="1.85026396%" y1="102.188703%" x2="61.1786193%" y2="37.8836394%" id="linearGradient-3">
            <stop stop-color="#595C64" offset="0%"></stop>
            <stop stop-color="#3C414A" offset="64.45%"></stop>
        </linearGradient>
        <linearGradient x1="86.3892857%" y1="91.8876786%" x2="14.0435714%" y2="8.62178571%" id="linearGradient-4">
            <stop stop-color="#FFFFFF" stop-opacity="0.3" offset="14.7%"></stop>
            <stop stop-color="#FFFFFF" stop-opacity="0" offset="40.73%"></stop>
            <stop stop-color="#FFFFFF" stop-opacity="0.00509108" offset="74.45%"></stop>
            <stop stop-color="#FFFFFF" stop-opacity="0.2" offset="100%"></stop>
        </linearGradient>
        <radialGradient cx="50.4141972%" cy="57.1536365%" fx="50.4141972%" fy="57.1536365%" r="32.0253807%" id="radialGradient-5">
            <stop stop-color="#000000" stop-opacity="0" offset="0%"></stop>
            <stop stop-color="#020202" stop-opacity="0.4119" offset="51.49%"></stop>
            <stop stop-color="#090909" stop-opacity="0.5603" offset="70.03%"></stop>
            <stop stop-color="#141414" stop-opacity="0.666" offset="83.25%"></stop>
            <stop stop-color="#252525" stop-opacity="0.7509" offset="93.87%"></stop>
            <stop stop-color="#333333" stop-opacity="0.8" offset="100%"></stop>
        </radialGradient>
        <radialGradient cx="47.7237505%" cy="96.413995%" fx="47.7237505%" fy="96.413995%" r="61.371517%" id="radialGradient-6">
            <stop stop-color="#FFFFFF" stop-opacity="0.3" offset="0%"></stop>
            <stop stop-color="#000000" stop-opacity="0" offset="100%"></stop>
        </radialGradient>
        <radialGradient cx="50.7767573%" cy="24.0727573%" fx="50.7767573%" fy="24.0727573%" r="36.758427%" id="radialGradient-7">
            <stop stop-color="#FFFFFF" stop-opacity="0.3" offset="0%"></stop>
            <stop stop-color="#000000" stop-opacity="0" offset="100%"></stop>
        </radialGradient>
        <linearGradient x1="49.241206%" y1="6.83%" x2="49.241206%" y2="97.95%" id="linearGradient-8">
            <stop stop-color="#FFFFFF" stop-opacity="0.6" offset="0%"></stop>
            <stop stop-color="#FFFFFF" stop-opacity="0.1" offset="100%"></stop>
        </linearGradient>
    </defs>
    <g id="Page-1" stroke="none" stroke-width="1" fill="none" fill-rule="evenodd">
        <g id="ipad-landscape">
            <g id="Group">
                <g>
                    <path d="M1251.72,61.92 L1251.72,814.08 C1251.72,847.76 1224.42,875.06 1190.74,875.06 L61.26,875.06 C27.58,875.06 0.28,847.76 0.28,814.08 L0.28,61.92 C0.28,28.24 27.58,0.94 61.26,0.94 L1190.74,0.94 C1224.42,0.94 1251.72,28.24 1251.72,61.92 L1251.72,61.92 Z" id="Shape" fill="url(#linearGradient-1)"></path>
                    <path d="M1251.72,61.92 L1251.72,814.08 C1251.72,847.76 1224.42,875.06 1190.74,875.06 L61.26,875.06 C27.58,875.06 0.28,847.76 0.28,814.08 L0.28,61.92 C0.28,28.24 27.58,0.94 61.26,0.94 L1190.74,0.94 C1224.42,0.94 1251.72,28.24 1251.72,61.92 L1251.72,61.92 Z" id="Shape" fill="url(#radialGradient-2)"></path>
                    <path d="M1245.39,814.08 C1245.39,844.22 1220.87,868.73 1190.74,868.73 L61.26,868.73 C31.12,868.73 6.61,844.21 6.61,814.08 L6.61,61.92 C6.61,31.78 31.13,7.27 61.26,7.27 L1190.74,7.27 C1220.88,7.27 1245.39,31.79 1245.39,61.92 L1245.39,814.08 L1245.39,814.08 Z" id="Shape" fill="url(#linearGradient-3)"></path>
                    <path d="M1242.74,814.08 C1242.74,842.75 1219.41,866.08 1190.74,866.08 L61.26,866.08 C32.59,866.08 9.26,842.75 9.26,814.08 L9.26,61.92 C9.26,33.25 32.59,9.92 61.26,9.92 L1190.74,9.92 C1219.41,9.92 1242.74,33.25 1242.74,61.92 L1242.74,814.08 L1242.74,814.08 Z" id="Shape" fill="#232323"></path>
                    <path d="M1194.12,409.1 C1178.66,409.1 1166.12,421.64 1166.12,437.1 C1166.12,452.56 1178.66,465.1 1194.12,465.1 C1209.58,465.1 1222.12,452.56 1222.12,437.1 C1222.12,421.64 1209.58,409.1 1194.12,409.1 L1194.12,409.1 Z M1194.12,462.54 C1180.07,462.54 1168.68,451.15 1168.68,437.1 C1168.68,423.05 1180.07,411.66 1194.12,411.66 C1208.17,411.66 1219.56,423.05 1219.56,437.1 C1219.56,451.15 1208.17,462.54 1194.12,462.54 L1194.12,462.54 Z" id="Shape" fill="url(#linearGradient-4)"></path>
                    <g transform="translate(61.000000, 429.000000)">
                        <circle id="Oval" fill="#5D5D5F" cx="8.21" cy="8.29" r="7.88"></circle>
                        <circle id="Oval" fill="url(#radialGradient-5)" cx="8.21" cy="8.29" r="7.88"></circle>
                        <circle id="Oval" fill="#1B1A1F" cx="8.21" cy="8.29" r="4.42"></circle>
                        <circle id="Oval" fill="#36284C" cx="8.21" cy="8.29" r="3.23"></circle>
                        <circle id="Oval" fill="url(#radialGradient-6)" cx="8.21" cy="8.29" r="3.23"></circle>
                        <g transform="translate(6.000000, 6.000000)" id="Oval">
                            <circle fill="#141414" opacity="0.5" cx="2.21" cy="2.29" r="1.78"></circle>
                            <circle fill="url(#radialGradient-7)" cx="2.21" cy="2.29" r="1.78"></circle>
                        </g>
                        <path d="M8.21,6.96 C7.82,6.96 7.47,7.14 7.23,7.41 L7.65,7.83 C7.79,7.66 7.99,7.55 8.22,7.55 C8.46,7.55 8.66,7.67 8.8,7.84 L9.22,7.42 C8.96,7.15 8.61,6.96 8.21,6.96 L8.21,6.96 Z" id="Shape" fill="url(#linearGradient-8)"></path>
                    </g>
                </g>
                <rect id="Rectangle-path" fill="#000000" x="111.65" y="55.54" width="1024" height="768"></rect>
            </g>
        </g>
    </g>
</svg>
