<?xml version="1.0" encoding="UTF-8" standalone="no"?>
<svg width="875px" height="1253px" viewBox="0 0 875 1253" version="1.1" xmlns="http://www.w3.org/2000/svg" xmlns:xlink="http://www.w3.org/1999/xlink">
    <title>iPad</title>
    <defs>
        <linearGradient x1="56.85224%" y1="46.7616506%" x2="38.1241363%" y2="55.612846%" id="linearGradient-1">
            <stop stop-color="#3A3E3A" offset="8.86%"></stop>
            <stop stop-color="#2E332E" offset="34.31%"></stop>
            <stop stop-color="#C0C1C2" offset="36%"></stop>
            <stop stop-color="#3C3F3E" offset="51.34%"></stop>
            <stop stop-color="#4B4E4B" offset="64.16%"></stop>
        </linearGradient>
        <radialGradient cx="50.1721031%" cy="47.1220327%" fx="50.1721031%" fy="47.1220327%" r="68.0316204%" id="radialGradient-2">
            <stop stop-color="#FFFFFF" stop-opacity="0.6" offset="82.84%"></stop>
            <stop stop-color="#FFFFFF" stop-opacity="0" offset="97.66%"></stop>
        </radialGradient>
        <linearGradient x1="-2.18858682%" y1="1.85033783%" x2="62.1164651%" y2="61.1782223%" id="linearGradient-3">
            <stop stop-color="#595C64" offset="0%"></stop>
            <stop stop-color="#3C414A" offset="64.45%"></stop>
        </linearGradient>
        <linearGradient x1="86.395%" y1="91.8842857%" x2="14.0494643%" y2="8.61857143%" id="linearGradient-4">
            <stop stop-color="#FFFFFF" stop-opacity="0.3" offset="14.7%"></stop>
            <stop stop-color="#FFFFFF" stop-opacity="0" offset="40.73%"></stop>
            <stop stop-color="#FFFFFF" stop-opacity="0.00509108" offset="74.45%"></stop>
            <stop stop-color="#FFFFFF" stop-opacity="0.2" offset="100%"></stop>
        </linearGradient>
        <linearGradient x1="-22.8991955%" y1="27.2682893%" x2="39.640603%" y2="46.0089814%" id="linearGradient-5">
            <stop stop-color="#FFFFFF" stop-opacity="0.15" offset="0%"></stop>
            <stop stop-color="#FFFFFF" stop-opacity="0" offset="100%"></stop>
        </linearGradient>
        <radialGradient cx="50.4203886%" cy="57.0974914%" fx="50.4203886%" fy="57.0974914%" r="32.0253807%" id="radialGradient-6">
            <stop stop-color="#000000" stop-opacity="0" offset="0%"></stop>
            <stop stop-color="#020202" stop-opacity="0.4119" offset="51.49%"></stop>
            <stop stop-color="#090909" stop-opacity="0.5603" offset="70.03%"></stop>
            <stop stop-color="#141414" stop-opacity="0.666" offset="83.25%"></stop>
            <stop stop-color="#252525" stop-opacity="0.7509" offset="93.87%"></stop>
            <stop stop-color="#333333" stop-opacity="0.8" offset="100%"></stop>
        </radialGradient>
        <radialGradient cx="47.731605%" cy="96.2770217%" fx="47.731605%" fy="96.2770217%" r="61.371517%" id="radialGradient-7">
            <stop stop-color="#FFFFFF" stop-opacity="0.3" offset="0%"></stop>
            <stop stop-color="#000000" stop-opacity="0" offset="100%"></stop>
        </radialGradient>
        <radialGradient cx="50.7910101%" cy="23.832973%" fx="50.7910101%" fy="23.832973%" r="36.758427%" id="radialGradient-8">
            <stop stop-color="#FFFFFF" stop-opacity="0.3" offset="0%"></stop>
            <stop stop-color="#000000" stop-opacity="0" offset="100%"></stop>
        </radialGradient>
        <linearGradient x1="49.281407%" y1="6.96%" x2="49.281407%" y2="98.07%" id="linearGradient-9">
            <stop stop-color="#FFFFFF" stop-opacity="0.6" offset="0%"></stop>
            <stop stop-color="#FFFFFF" stop-opacity="0.1" offset="100%"></stop>
        </linearGradient>
    </defs>
    <g id="Page-1" stroke="none" stroke-width="1" fill="none" fill-rule="evenodd">
        <g id="ipad-portrait">
            <g id="Group">
                <path d="M813.32,1252.09 L61.16,1252.09 C27.48,1252.09 0.18,1224.79 0.18,1191.11 L0.18,61.63 C0.18,27.95 27.48,0.65 61.16,0.65 L813.32,0.65 C847,0.65 874.3,27.95 874.3,61.63 L874.3,1191.11 C874.3,1224.79 847,1252.09 813.32,1252.09 L813.32,1252.09 Z" id="Shape" fill="url(#linearGradient-1)"></path>
                <path d="M61.16,1252.09 C27.48,1252.09 0.18,1224.79 0.18,1191.11 L0.18,61.63 C0.18,27.95 27.48,0.65 61.16,0.65 L813.32,0.65 C847,0.65 874.3,27.95 874.3,61.63 L874.3,1191.11 C874.3,1224.79 847,1252.09 813.32,1252.09 L61.16,1252.09 Z" id="Shape" fill="url(#radialGradient-2)"></path>
                <path d="M61.16,1245.77 C31.02,1245.77 6.51,1221.25 6.51,1191.12 L6.51,61.63 C6.51,31.49 31.03,6.98 61.16,6.98 L813.32,6.98 C843.46,6.98 867.97,31.5 867.97,61.63 L867.97,1191.11 C867.97,1221.25 843.45,1245.76 813.32,1245.76 L61.16,1245.76 L61.16,1245.77 Z" id="Shape" fill="url(#linearGradient-3)"></path>
                <path d="M61.16,1243.11 C32.49,1243.11 9.16,1219.78 9.16,1191.11 L9.16,61.63 C9.16,32.96 32.49,9.63 61.16,9.63 L813.32,9.63 C841.99,9.63 865.32,32.96 865.32,61.63 L865.32,1191.11 C865.32,1219.78 841.99,1243.11 813.32,1243.11 L61.16,1243.11 L61.16,1243.11 Z" id="Shape" fill="#232323"></path>
                <path d="M438.14,1166.49 C422.68,1166.49 410.14,1179.03 410.14,1194.49 C410.14,1209.95 422.68,1222.49 438.14,1222.49 C453.6,1222.49 466.14,1209.95 466.14,1194.49 C466.14,1179.03 453.6,1166.49 438.14,1166.49 L438.14,1166.49 Z M438.14,1219.93 C424.09,1219.93 412.7,1208.54 412.7,1194.49 C412.7,1180.44 424.09,1169.05 438.14,1169.05 C452.19,1169.05 463.58,1180.44 463.58,1194.49 C463.58,1208.54 452.19,1219.93 438.14,1219.93 L438.14,1219.93 Z" id="Shape" fill="url(#linearGradient-4)"></path>
                <path d="M59.24,8.19 C31.62,8.19 9.15,30.66 9.15,58.28 L9.15,1190.65 C9.15,1218.27 31.62,1240.74 59.24,1240.74 L105.77,1240.74 L620.73,8.19 L59.24,8.19 L59.24,8.19 Z" id="Shape" fill="url(#linearGradient-5)"></path>
                <g transform="translate(430.000000, 61.000000)">
                    <circle id="Oval" fill="#5D5D5F" cx="7.95" cy="8.58" r="7.88"></circle>
                    <circle id="Oval" fill="url(#radialGradient-6)" cx="7.95" cy="8.58" r="7.88"></circle>
                    <circle id="Oval" fill="#1B1A1F" cx="7.95" cy="8.58" r="4.42"></circle>
                    <circle id="Oval" fill="#36284C" cx="7.95" cy="8.58" r="3.23"></circle>
                    <circle id="Oval" fill="url(#radialGradient-7)" cx="7.95" cy="8.58" r="3.23"></circle>
                    <g transform="translate(6.000000, 6.000000)" id="Oval">
                        <circle fill="#141414" opacity="0.5" cx="1.95" cy="2.58" r="1.78"></circle>
                        <circle fill="url(#radialGradient-8)" cx="1.95" cy="2.58" r="1.78"></circle>
                    </g>
                    <path d="M7.95,7.24 C7.56,7.24 7.21,7.42 6.97,7.69 L7.39,8.11 C7.53,7.94 7.73,7.83 7.96,7.83 C8.2,7.83 8.4,7.95 8.54,8.12 L8.96,7.7 C8.7,7.43 8.35,7.24 7.95,7.24 L7.95,7.24 Z" id="Shape" fill="url(#linearGradient-9)"></path>
                </g>
            </g>
            <rect id="Rectangle-path" fill="#000000" x="52" y="114" width="768" height="1024"></rect>
        </g>
    </g>
</svg>
