<?xml version="1.0" encoding="UTF-8" standalone="no"?>
<svg width="470px" height="954px" viewBox="0 0 470 954" version="1.1" xmlns="http://www.w3.org/2000/svg" xmlns:xlink="http://www.w3.org/1999/xlink">
    <title>iPhone 6 Plus</title>
    <defs>
        <linearGradient x1="50.0004402%" y1="-0.00765597003%" x2="50.0004402%" y2="99.9887604%" id="linearGradient-1">
            <stop stop-color="#FFFFFF" stop-opacity="0.15" offset="0%"></stop>
            <stop stop-color="#FFFFFF" stop-opacity="0" offset="11.69%"></stop>
            <stop stop-color="#FFFFFF" stop-opacity="0.00509108" offset="87.64%"></stop>
            <stop stop-color="#FFFFFF" stop-opacity="0.15" offset="100%"></stop>
        </linearGradient>
        <linearGradient x1="-28.8457617%" y1="28.2592375%" x2="128.846656%" y2="71.7422576%" id="linearGradient-2">
            <stop stop-color="#FFFFFF" stop-opacity="0.15" offset="0%"></stop>
            <stop stop-color="#FFFFFF" stop-opacity="0.05" offset="13.73%"></stop>
            <stop stop-color="#FFFFFF" stop-opacity="0.02" offset="88.31%"></stop>
            <stop stop-color="#FFFFFF" stop-opacity="0.15" offset="100%"></stop>
        </linearGradient>
        <radialGradient cx="49.981457%" cy="49.9768212%" fx="49.981457%" fy="49.9768212%" r="49.9807947%" id="radialGradient-3">
            <stop stop-color="#5D5D5F" offset="0%"></stop>
            <stop stop-color="#333333" stop-opacity="0.8" offset="100%"></stop>
        </radialGradient>
        <radialGradient cx="50.426664%" cy="57.0966105%" fx="50.426664%" fy="57.0966105%" r="49.9701987%" id="radialGradient-4">
            <stop stop-color="#000000" stop-opacity="0" offset="0%"></stop>
            <stop stop-color="#020202" stop-opacity="0.4119" offset="51.49%"></stop>
            <stop stop-color="#090909" stop-opacity="0.5603" offset="70.03%"></stop>
            <stop stop-color="#141414" stop-opacity="0.666" offset="83.25%"></stop>
            <stop stop-color="#252525" stop-opacity="0.7509" offset="93.87%"></stop>
            <stop stop-color="#333333" stop-opacity="0.8" offset="100%"></stop>
        </radialGradient>
        <radialGradient cx="47.6564342%" cy="96.2967075%" fx="47.6564342%" fy="96.2967075%" r="95.6970109%" id="radialGradient-5">
            <stop stop-color="#FFFFFF" stop-opacity="0.3" offset="0%"></stop>
            <stop stop-color="#000000" stop-opacity="0" offset="100%"></stop>
        </radialGradient>
        <radialGradient cx="50.6606714%" cy="23.7662009%" fx="50.6606714%" fy="23.7662009%" r="57.5643564%" id="radialGradient-6">
            <stop stop-color="#FFFFFF" stop-opacity="0.3" offset="0%"></stop>
            <stop stop-color="#000000" stop-opacity="0" offset="100%"></stop>
        </radialGradient>
        <linearGradient x1="49.8466941%" y1="7.41101415%" x2="49.8485846%" y2="111.231014%" id="linearGradient-7">
            <stop stop-color="#FFFFFF" stop-opacity="0.6" offset="0%"></stop>
            <stop stop-color="#FFFFFF" stop-opacity="0.1" offset="100%"></stop>
        </linearGradient>
        <path id="path-8" d="M63.42,9.02 L4.8,9.02 C2.43,9.02 0.51,7.1 0.51,4.73 L0.51,4.73 C0.51,2.36 2.43,0.44 4.8,0.44 L63.42,0.44 C65.79,0.44 67.71,2.36 67.71,4.73 L67.71,4.73 C67.7,7.1 65.78,9.02 63.42,9.02 L63.42,9.02 Z"></path>
        <linearGradient x1="50.0105141%" y1="99.9084218%" x2="50.0105141%" y2="-0.0179701632%" id="linearGradient-10">
            <stop stop-color="#2E2E31" offset="0%"></stop>
            <stop stop-color="#616161" offset="24.48%"></stop>
            <stop stop-color="#858585" offset="81.37%"></stop>
            <stop stop-color="#2E2E31" offset="100%"></stop>
        </linearGradient>
        <path id="path-11" d="M63.42,9.02 L4.8,9.02 C2.43,9.02 0.51,7.1 0.51,4.73 L0.51,4.73 C0.51,2.36 2.43,0.44 4.8,0.44 L63.42,0.44 C65.79,0.44 67.71,2.36 67.71,4.73 L67.71,4.73 C67.7,7.1 65.78,9.02 63.42,9.02 L63.42,9.02 Z"></path>
        <path id="path-13" d="M63.42,9.02 L4.8,9.02 C2.43,9.02 0.51,7.1 0.51,4.73 L0.51,4.73 C0.51,2.36 2.43,0.44 4.8,0.44 L63.42,0.44 C65.79,0.44 67.71,2.36 67.71,4.73 L67.71,4.73 C67.7,7.1 65.78,9.02 63.42,9.02 L63.42,9.02 Z"></path>
        <linearGradient x1="86.3842522%" y1="91.8719159%" x2="14.0484313%" y2="8.61742309%" id="linearGradient-15">
            <stop stop-color="#FFFFFF" stop-opacity="0.3" offset="14.7%"></stop>
            <stop stop-color="#FFFFFF" stop-opacity="0" offset="40.73%"></stop>
            <stop stop-color="#FFFFFF" stop-opacity="0.00509108" offset="74.45%"></stop>
            <stop stop-color="#FFFFFF" stop-opacity="0.2" offset="100%"></stop>
        </linearGradient>
        <linearGradient x1="-34.1635743%" y1="-2.09409175%" x2="28.8478289%" y2="36.9074705%" id="linearGradient-16">
            <stop stop-color="#FFFFFF" stop-opacity="0.15" offset="0%"></stop>
            <stop stop-color="#FFFFFF" stop-opacity="0" offset="100%"></stop>
        </linearGradient>
    </defs>
    <g id="Page-1" stroke="none" stroke-width="1" fill="none" fill-rule="evenodd">
        <g id="iphone6plus-portrait">
            <g id="Group">
                <path d="M5.73,144.54 L2.01,144.54 C0.98,144.54 0.15,143.71 0.15,142.68 L0.15,112.72 C0.15,111.69 0.98,110.86 2.01,110.86 L5.73,110.86 L5.73,144.54 L5.73,144.54 Z" id="Shape" fill="#808086"></path>
                <path d="M0.15,187.77 C0.15,186.74 0.98,185.91 2.01,185.91 L5.73,185.91 L5.73,247.04 L2.01,247.04 C0.98,247.04 0.15,246.21 0.15,245.18" id="Shape" fill="#808086"></path>
                <path d="M0.15,262.53 C0.15,261.5 0.98,260.67 2.01,260.67 L5.73,260.67 L5.73,321.8 L2.01,321.8 C0.98,321.8 0.15,320.97 0.15,319.94" id="Shape" fill="#808086"></path>
                <path d="M464.27,187.27 L467.99,187.27 C469.02,187.27 469.85,188.1 469.85,189.13 L469.85,246.54 C469.85,247.57 469.02,248.4 467.99,248.4 L464.27,248.4 L464.27,187.27 L464.27,187.27 Z" id="Shape" fill="#818187"></path>
                <g transform="translate(2.000000, 0.000000)" id="Shape">
                    <path d="M65.5,953.05 C29.97,953.05 1.06,924.14 1.06,888.61 L1.06,64.98 C1.06,29.45 29.97,0.54 65.5,0.54 L399.96,0.54 C435.49,0.54 464.39,29.45 464.39,64.98 L464.39,888.61 C464.39,924.14 435.48,953.05 399.96,953.05 L65.5,953.05 L65.5,953.05 Z" fill="#B2B2B2"></path>
                    <path d="M399.96,1.05 C435.21,1.05 463.89,29.73 463.89,64.99 L463.89,888.62 C463.89,923.87 435.21,952.56 399.96,952.56 L65.5,952.56 C30.25,952.56 1.56,923.88 1.56,888.62 L1.56,64.98 C1.56,29.73 30.24,1.04 65.5,1.04 L399.96,1.04 L399.96,1.05 Z M399.96,0.05 L65.5,0.05 C29.69,0.05 0.56,29.18 0.56,64.99 L0.56,888.62 C0.56,924.43 29.69,953.56 65.5,953.56 L399.96,953.56 C435.76,953.56 464.89,924.43 464.89,888.62 L464.89,64.98 C464.89,29.18 435.76,0.05 399.96,0.05 L399.96,0.05 L399.96,0.05 Z" fill="#666666"></path>
                </g>
                <path d="M401.95,948.55 L67.5,948.55 C34.4,948.55 7.56,921.72 7.56,888.61 L7.56,64.98 C7.56,31.88 34.39,5.04 67.5,5.04 L401.96,5.04 C435.06,5.04 461.9,31.87 461.9,64.98 L461.9,888.61 C461.89,921.71 435.06,948.55 401.95,948.55 L401.95,948.55 Z" id="Shape" fill="#262626"></path>
                <path d="M402.14,5.05 L67.31,5.05 C34.31,5.05 7.56,31.8 7.56,64.8 L7.56,66.44 C7.56,33.44 34.31,6.69 67.31,6.69 L402.14,6.69 C435.14,6.69 461.89,33.44 461.89,66.44 L461.89,64.8 C461.89,31.8 435.14,5.05 402.14,5.05 L402.14,5.05 Z" id="Shape" fill="url(#linearGradient-1)"></path>
                <path d="M402.14,8.59 L67.31,8.59 C36.32,8.59 11.11,33.8 11.11,64.79 L11.11,888.79 C11.11,919.78 36.32,944.99 67.31,944.99 L402.14,944.99 C433.13,944.99 458.34,919.78 458.34,888.79 L458.34,64.79 C458.34,33.81 433.13,8.59 402.14,8.59 L402.14,8.59 Z M452.34,888.8 C452.34,916.48 429.82,939 402.14,939 L67.31,939 C39.63,939 17.11,916.48 17.11,888.8 L17.11,64.8 C17.11,37.12 39.63,14.6 67.31,14.6 L402.14,14.6 C429.82,14.6 452.34,37.12 452.34,64.8 L452.34,888.8 L452.34,888.8 Z" id="Shape" fill="url(#linearGradient-2)"></path>
                <g transform="translate(159.000000, 46.000000)">
                    <circle id="Oval" fill="url(#radialGradient-3)" cx="7.8" cy="7.99" r="7.55"></circle>
                    <circle id="Oval" fill="url(#radialGradient-4)" opacity="0.8" cx="7.8" cy="7.99" r="7.55"></circle>
                    <circle id="Oval" fill="#1B1A1F" cx="7.8" cy="7.99" r="5.03"></circle>
                    <circle id="Oval" fill="#36284C" cx="7.8" cy="7.99" r="3.68"></circle>
                    <circle id="Oval" fill="url(#radialGradient-5)" cx="7.8" cy="7.99" r="3.68"></circle>
                    <g transform="translate(5.000000, 5.000000)" id="Shape">
                        <path d="M4.82,2.99 C4.82,4.11 3.91,5.01 2.8,5.01 C1.68,5.01 0.78,4.1 0.78,2.99 C0.78,1.87 1.69,0.97 2.8,0.97 C3.91,0.96 4.82,1.87 4.82,2.99 L4.82,2.99 Z" fill="#141414" opacity="0.5"></path>
                        <path d="M4.82,2.99 C4.82,4.11 3.91,5.01 2.8,5.01 C1.68,5.01 0.78,4.1 0.78,2.99 C0.78,1.87 1.69,0.97 2.8,0.97 C3.91,0.96 4.82,1.87 4.82,2.99 L4.82,2.99 Z" fill="url(#radialGradient-6)"></path>
                    </g>
                    <path d="M7.8,6.47 C7.35,6.47 6.96,6.67 6.68,6.98 L7.15,7.45 C7.31,7.26 7.53,7.14 7.79,7.14 C8.06,7.14 8.29,7.28 8.45,7.47 L8.92,6.99 C8.65,6.68 8.25,6.47 7.8,6.47 L7.8,6.47 Z" id="Shape" fill="url(#linearGradient-7)"></path>
                </g>
                <g transform="translate(201.000000, 50.000000)" id="Clipped">
                    <g>
                        <mask id="mask-9" fill="white">
                            <use xlink:href="#path-8"></use>
                        </mask>
                        <g id="SVGID_9_"></g>
                        <path d="M63.42,9.02 L4.8,9.02 C2.43,9.02 0.51,7.1 0.51,4.73 L0.51,4.73 C0.51,2.36 2.43,0.44 4.8,0.44 L63.42,0.44 C65.79,0.44 67.71,2.36 67.71,4.73 L67.71,4.73 C67.7,7.1 65.78,9.02 63.42,9.02 L63.42,9.02 Z" id="Shape" fill="url(#linearGradient-10)" opacity="0.8" mask="url(#mask-9)"></path>
                    </g>
                    <g>
                        <mask id="mask-12" fill="white">
                            <use xlink:href="#path-11"></use>
                        </mask>
                        <g id="SVGID_9_"></g>
                        <path d="M1.92,0.33 L0.45,0.33 L0.45,1.8 L1.92,1.8 L1.92,0.33 L1.92,0.33 Z M4.85,0.33 L3.38,0.33 L3.38,1.8 L4.85,1.8 L4.85,0.33 L4.85,0.33 Z M7.79,0.33 L6.32,0.33 L6.32,1.8 L7.79,1.8 L7.79,0.33 L7.79,0.33 Z M10.72,0.33 L9.25,0.33 L9.25,1.8 L10.72,1.8 L10.72,0.33 L10.72,0.33 Z M13.66,0.33 L12.19,0.33 L12.19,1.8 L13.66,1.8 L13.66,0.33 L13.66,0.33 Z M16.59,0.33 L15.12,0.33 L15.12,1.8 L16.59,1.8 L16.59,0.33 L16.59,0.33 Z M19.53,0.33 L18.06,0.33 L18.06,1.8 L19.53,1.8 L19.53,0.33 L19.53,0.33 Z M22.46,0.33 L20.99,0.33 L20.99,1.8 L22.46,1.8 L22.46,0.33 L22.46,0.33 Z M25.4,0.33 L23.93,0.33 L23.93,1.8 L25.4,1.8 L25.4,0.33 L25.4,0.33 Z M28.33,0.33 L26.86,0.33 L26.86,1.8 L28.33,1.8 L28.33,0.33 L28.33,0.33 Z M31.27,0.33 L29.8,0.33 L29.8,1.8 L31.27,1.8 L31.27,0.33 L31.27,0.33 Z M34.2,0.33 L32.73,0.33 L32.73,1.8 L34.2,1.8 L34.2,0.33 L34.2,0.33 Z M37.14,0.33 L35.67,0.33 L35.67,1.8 L37.14,1.8 L37.14,0.33 L37.14,0.33 Z M40.07,0.33 L38.6,0.33 L38.6,1.8 L40.07,1.8 L40.07,0.33 L40.07,0.33 Z M43.01,0.33 L41.54,0.33 L41.54,1.8 L43.01,1.8 L43.01,0.33 L43.01,0.33 Z M45.94,0.33 L44.47,0.33 L44.47,1.8 L45.94,1.8 L45.94,0.33 L45.94,0.33 Z M48.88,0.33 L47.41,0.33 L47.41,1.8 L48.88,1.8 L48.88,0.33 L48.88,0.33 Z M51.81,0.33 L50.34,0.33 L50.34,1.8 L51.81,1.8 L51.81,0.33 L51.81,0.33 Z M54.75,0.33 L53.28,0.33 L53.28,1.8 L54.75,1.8 L54.75,0.33 L54.75,0.33 Z M57.68,0.33 L56.21,0.33 L56.21,1.8 L57.68,1.8 L57.68,0.33 L57.68,0.33 Z M60.62,0.33 L59.15,0.33 L59.15,1.8 L60.62,1.8 L60.62,0.33 L60.62,0.33 Z M63.55,0.33 L62.08,0.33 L62.08,1.8 L63.55,1.8 L63.55,0.33 L63.55,0.33 Z M66.49,0.33 L65.02,0.33 L65.02,1.8 L66.49,1.8 L66.49,0.33 L66.49,0.33 Z M3.39,1.79 L1.92,1.79 L1.92,3.26 L3.39,3.26 L3.39,1.79 L3.39,1.79 Z M6.32,1.79 L4.85,1.79 L4.85,3.26 L6.32,3.26 L6.32,1.79 L6.32,1.79 Z M9.26,1.79 L7.79,1.79 L7.79,3.26 L9.26,3.26 L9.26,1.79 L9.26,1.79 Z M12.19,1.79 L10.72,1.79 L10.72,3.26 L12.19,3.26 L12.19,1.79 L12.19,1.79 Z M15.13,1.79 L13.66,1.79 L13.66,3.26 L15.13,3.26 L15.13,1.79 L15.13,1.79 Z M18.06,1.79 L16.59,1.79 L16.59,3.26 L18.06,3.26 L18.06,1.79 L18.06,1.79 Z M20.99,1.79 L19.52,1.79 L19.52,3.26 L20.99,3.26 L20.99,1.79 L20.99,1.79 Z M23.93,1.79 L22.46,1.79 L22.46,3.26 L23.93,3.26 L23.93,1.79 L23.93,1.79 Z M26.86,1.79 L25.39,1.79 L25.39,3.26 L26.86,3.26 L26.86,1.79 L26.86,1.79 Z M29.8,1.79 L28.33,1.79 L28.33,3.26 L29.8,3.26 L29.8,1.79 L29.8,1.79 Z M32.73,1.79 L31.26,1.79 L31.26,3.26 L32.73,3.26 L32.73,1.79 L32.73,1.79 Z M35.67,1.79 L34.2,1.79 L34.2,3.26 L35.67,3.26 L35.67,1.79 L35.67,1.79 Z M38.6,1.79 L37.13,1.79 L37.13,3.26 L38.6,3.26 L38.6,1.79 L38.6,1.79 Z M41.54,1.79 L40.07,1.79 L40.07,3.26 L41.54,3.26 L41.54,1.79 L41.54,1.79 Z M44.47,1.79 L43,1.79 L43,3.26 L44.47,3.26 L44.47,1.79 L44.47,1.79 Z M47.41,1.79 L45.94,1.79 L45.94,3.26 L47.41,3.26 L47.41,1.79 L47.41,1.79 Z M50.34,1.79 L48.87,1.79 L48.87,3.26 L50.34,3.26 L50.34,1.79 L50.34,1.79 Z M53.28,1.79 L51.81,1.79 L51.81,3.26 L53.28,3.26 L53.28,1.79 L53.28,1.79 Z M56.21,1.79 L54.74,1.79 L54.74,3.26 L56.21,3.26 L56.21,1.79 L56.21,1.79 Z M59.15,1.79 L57.68,1.79 L57.68,3.26 L59.15,3.26 L59.15,1.79 L59.15,1.79 Z M62.08,1.79 L60.61,1.79 L60.61,3.26 L62.08,3.26 L62.08,1.79 L62.08,1.79 Z M65.02,1.79 L63.55,1.79 L63.55,3.26 L65.02,3.26 L65.02,1.79 L65.02,1.79 Z M67.95,1.79 L66.48,1.79 L66.48,3.26 L67.95,3.26 L67.95,1.79 L67.95,1.79 Z M1.92,3.26 L0.45,3.26 L0.45,4.73 L1.92,4.73 L1.92,3.26 L1.92,3.26 Z M4.85,3.26 L3.38,3.26 L3.38,4.73 L4.85,4.73 L4.85,3.26 L4.85,3.26 Z M7.79,3.26 L6.32,3.26 L6.32,4.73 L7.79,4.73 L7.79,3.26 L7.79,3.26 Z M10.72,3.26 L9.25,3.26 L9.25,4.73 L10.72,4.73 L10.72,3.26 L10.72,3.26 Z M13.66,3.26 L12.19,3.26 L12.19,4.73 L13.66,4.73 L13.66,3.26 L13.66,3.26 Z M16.59,3.26 L15.12,3.26 L15.12,4.73 L16.59,4.73 L16.59,3.26 L16.59,3.26 Z M19.53,3.26 L18.06,3.26 L18.06,4.73 L19.53,4.73 L19.53,3.26 L19.53,3.26 Z M22.46,3.26 L20.99,3.26 L20.99,4.73 L22.46,4.73 L22.46,3.26 L22.46,3.26 Z M25.4,3.26 L23.93,3.26 L23.93,4.73 L25.4,4.73 L25.4,3.26 L25.4,3.26 Z M28.33,3.26 L26.86,3.26 L26.86,4.73 L28.33,4.73 L28.33,3.26 L28.33,3.26 Z M31.27,3.26 L29.8,3.26 L29.8,4.73 L31.27,4.73 L31.27,3.26 L31.27,3.26 Z M34.2,3.26 L32.73,3.26 L32.73,4.73 L34.2,4.73 L34.2,3.26 L34.2,3.26 Z M37.14,3.26 L35.67,3.26 L35.67,4.73 L37.14,4.73 L37.14,3.26 L37.14,3.26 Z M40.07,3.26 L38.6,3.26 L38.6,4.73 L40.07,4.73 L40.07,3.26 L40.07,3.26 Z M43.01,3.26 L41.54,3.26 L41.54,4.73 L43.01,4.73 L43.01,3.26 L43.01,3.26 Z M45.94,3.26 L44.47,3.26 L44.47,4.73 L45.94,4.73 L45.94,3.26 L45.94,3.26 Z M48.88,3.26 L47.41,3.26 L47.41,4.73 L48.88,4.73 L48.88,3.26 L48.88,3.26 Z M51.81,3.26 L50.34,3.26 L50.34,4.73 L51.81,4.73 L51.81,3.26 L51.81,3.26 Z M54.75,3.26 L53.28,3.26 L53.28,4.73 L54.75,4.73 L54.75,3.26 L54.75,3.26 Z M57.68,3.26 L56.21,3.26 L56.21,4.73 L57.68,4.73 L57.68,3.26 L57.68,3.26 Z M60.62,3.26 L59.15,3.26 L59.15,4.73 L60.62,4.73 L60.62,3.26 L60.62,3.26 Z M63.55,3.26 L62.08,3.26 L62.08,4.73 L63.55,4.73 L63.55,3.26 L63.55,3.26 Z M66.49,3.26 L65.02,3.26 L65.02,4.73 L66.49,4.73 L66.49,3.26 L66.49,3.26 Z M3.39,4.73 L1.92,4.73 L1.92,6.2 L3.39,6.2 L3.39,4.73 L3.39,4.73 Z M6.32,4.73 L4.85,4.73 L4.85,6.2 L6.32,6.2 L6.32,4.73 L6.32,4.73 Z M9.26,4.73 L7.79,4.73 L7.79,6.2 L9.26,6.2 L9.26,4.73 L9.26,4.73 Z M12.19,4.73 L10.72,4.73 L10.72,6.2 L12.19,6.2 L12.19,4.73 L12.19,4.73 Z M15.13,4.73 L13.66,4.73 L13.66,6.2 L15.13,6.2 L15.13,4.73 L15.13,4.73 Z M18.06,4.73 L16.59,4.73 L16.59,6.2 L18.06,6.2 L18.06,4.73 L18.06,4.73 Z M20.99,4.73 L19.52,4.73 L19.52,6.2 L20.99,6.2 L20.99,4.73 L20.99,4.73 Z M23.93,4.73 L22.46,4.73 L22.46,6.2 L23.93,6.2 L23.93,4.73 L23.93,4.73 Z M26.86,4.73 L25.39,4.73 L25.39,6.2 L26.86,6.2 L26.86,4.73 L26.86,4.73 Z M29.8,4.73 L28.33,4.73 L28.33,6.2 L29.8,6.2 L29.8,4.73 L29.8,4.73 Z M32.73,4.73 L31.26,4.73 L31.26,6.2 L32.73,6.2 L32.73,4.73 L32.73,4.73 Z M35.67,4.73 L34.2,4.73 L34.2,6.2 L35.67,6.2 L35.67,4.73 L35.67,4.73 Z M38.6,4.73 L37.13,4.73 L37.13,6.2 L38.6,6.2 L38.6,4.73 L38.6,4.73 Z M41.54,4.73 L40.07,4.73 L40.07,6.2 L41.54,6.2 L41.54,4.73 L41.54,4.73 Z M44.47,4.73 L43,4.73 L43,6.2 L44.47,6.2 L44.47,4.73 L44.47,4.73 Z M47.41,4.73 L45.94,4.73 L45.94,6.2 L47.41,6.2 L47.41,4.73 L47.41,4.73 Z M50.34,4.73 L48.87,4.73 L48.87,6.2 L50.34,6.2 L50.34,4.73 L50.34,4.73 Z M53.28,4.73 L51.81,4.73 L51.81,6.2 L53.28,6.2 L53.28,4.73 L53.28,4.73 Z M56.21,4.73 L54.74,4.73 L54.74,6.2 L56.21,6.2 L56.21,4.73 L56.21,4.73 Z M59.15,4.73 L57.68,4.73 L57.68,6.2 L59.15,6.2 L59.15,4.73 L59.15,4.73 Z M62.08,4.73 L60.61,4.73 L60.61,6.2 L62.08,6.2 L62.08,4.73 L62.08,4.73 Z M65.02,4.73 L63.55,4.73 L63.55,6.2 L65.02,6.2 L65.02,4.73 L65.02,4.73 Z M67.95,4.73 L66.48,4.73 L66.48,6.2 L67.95,6.2 L67.95,4.73 L67.95,4.73 Z M1.92,6.2 L0.45,6.2 L0.45,7.67 L1.92,7.67 L1.92,6.2 L1.92,6.2 Z M4.85,6.2 L3.38,6.2 L3.38,7.67 L4.85,7.67 L4.85,6.2 L4.85,6.2 Z M7.79,6.2 L6.32,6.2 L6.32,7.67 L7.79,7.67 L7.79,6.2 L7.79,6.2 Z M10.72,6.2 L9.25,6.2 L9.25,7.67 L10.72,7.67 L10.72,6.2 L10.72,6.2 Z M13.66,6.2 L12.19,6.2 L12.19,7.67 L13.66,7.67 L13.66,6.2 L13.66,6.2 Z M16.59,6.2 L15.12,6.2 L15.12,7.67 L16.59,7.67 L16.59,6.2 L16.59,6.2 Z M19.53,6.2 L18.06,6.2 L18.06,7.67 L19.53,7.67 L19.53,6.2 L19.53,6.2 Z M22.46,6.2 L20.99,6.2 L20.99,7.67 L22.46,7.67 L22.46,6.2 L22.46,6.2 Z M25.4,6.2 L23.93,6.2 L23.93,7.67 L25.4,7.67 L25.4,6.2 L25.4,6.2 Z M28.33,6.2 L26.86,6.2 L26.86,7.67 L28.33,7.67 L28.33,6.2 L28.33,6.2 Z M31.27,6.2 L29.8,6.2 L29.8,7.67 L31.27,7.67 L31.27,6.2 L31.27,6.2 Z M34.2,6.2 L32.73,6.2 L32.73,7.67 L34.2,7.67 L34.2,6.2 L34.2,6.2 Z M37.14,6.2 L35.67,6.2 L35.67,7.67 L37.14,7.67 L37.14,6.2 L37.14,6.2 Z M40.07,6.2 L38.6,6.2 L38.6,7.67 L40.07,7.67 L40.07,6.2 L40.07,6.2 Z M43.01,6.2 L41.54,6.2 L41.54,7.67 L43.01,7.67 L43.01,6.2 L43.01,6.2 Z M45.94,6.2 L44.47,6.2 L44.47,7.67 L45.94,7.67 L45.94,6.2 L45.94,6.2 Z M48.88,6.2 L47.41,6.2 L47.41,7.67 L48.88,7.67 L48.88,6.2 L48.88,6.2 Z M51.81,6.2 L50.34,6.2 L50.34,7.67 L51.81,7.67 L51.81,6.2 L51.81,6.2 Z M54.75,6.2 L53.28,6.2 L53.28,7.67 L54.75,7.67 L54.75,6.2 L54.75,6.2 Z M57.68,6.2 L56.21,6.2 L56.21,7.67 L57.68,7.67 L57.68,6.2 L57.68,6.2 Z M60.62,6.2 L59.15,6.2 L59.15,7.67 L60.62,7.67 L60.62,6.2 L60.62,6.2 Z M63.55,6.2 L62.08,6.2 L62.08,7.67 L63.55,7.67 L63.55,6.2 L63.55,6.2 Z M66.49,6.2 L65.02,6.2 L65.02,7.67 L66.49,7.67 L66.49,6.2 L66.49,6.2 Z M3.39,7.66 L1.92,7.66 L1.92,9.13 L3.39,9.13 L3.39,7.66 L3.39,7.66 Z M6.32,7.66 L4.85,7.66 L4.85,9.13 L6.32,9.13 L6.32,7.66 L6.32,7.66 Z M9.26,7.66 L7.79,7.66 L7.79,9.13 L9.26,9.13 L9.26,7.66 L9.26,7.66 Z M12.19,7.66 L10.72,7.66 L10.72,9.13 L12.19,9.13 L12.19,7.66 L12.19,7.66 Z M15.13,7.66 L13.66,7.66 L13.66,9.13 L15.13,9.13 L15.13,7.66 L15.13,7.66 Z M18.06,7.66 L16.59,7.66 L16.59,9.13 L18.06,9.13 L18.06,7.66 L18.06,7.66 Z M20.99,7.66 L19.52,7.66 L19.52,9.13 L20.99,9.13 L20.99,7.66 L20.99,7.66 Z M23.93,7.66 L22.46,7.66 L22.46,9.13 L23.93,9.13 L23.93,7.66 L23.93,7.66 Z M26.86,7.66 L25.39,7.66 L25.39,9.13 L26.86,9.13 L26.86,7.66 L26.86,7.66 Z M29.8,7.66 L28.33,7.66 L28.33,9.13 L29.8,9.13 L29.8,7.66 L29.8,7.66 Z M32.73,7.66 L31.26,7.66 L31.26,9.13 L32.73,9.13 L32.73,7.66 L32.73,7.66 Z M35.67,7.66 L34.2,7.66 L34.2,9.13 L35.67,9.13 L35.67,7.66 L35.67,7.66 Z M38.6,7.66 L37.13,7.66 L37.13,9.13 L38.6,9.13 L38.6,7.66 L38.6,7.66 Z M41.54,7.66 L40.07,7.66 L40.07,9.13 L41.54,9.13 L41.54,7.66 L41.54,7.66 Z M44.47,7.66 L43,7.66 L43,9.13 L44.47,9.13 L44.47,7.66 L44.47,7.66 Z M47.41,7.66 L45.94,7.66 L45.94,9.13 L47.41,9.13 L47.41,7.66 L47.41,7.66 Z M50.34,7.66 L48.87,7.66 L48.87,9.13 L50.34,9.13 L50.34,7.66 L50.34,7.66 Z M53.28,7.66 L51.81,7.66 L51.81,9.13 L53.28,9.13 L53.28,7.66 L53.28,7.66 Z M56.21,7.66 L54.74,7.66 L54.74,9.13 L56.21,9.13 L56.21,7.66 L56.21,7.66 Z M59.15,7.66 L57.68,7.66 L57.68,9.13 L59.15,9.13 L59.15,7.66 L59.15,7.66 Z M62.08,7.66 L60.61,7.66 L60.61,9.13 L62.08,9.13 L62.08,7.66 L62.08,7.66 Z M65.02,7.66 L63.55,7.66 L63.55,9.13 L65.02,9.13 L65.02,7.66 L65.02,7.66 Z M67.95,7.66 L66.48,7.66 L66.48,9.13 L67.95,9.13 L67.95,7.66 L67.95,7.66 Z" id="Shape" fill="#2E2E2E" mask="url(#mask-12)"></path>
                    </g>
                    <g>
                        <mask id="mask-14" fill="white">
                            <use xlink:href="#path-13"></use>
                        </mask>
                        <g id="SVGID_9_"></g>
                        <path d="M63.83,0.08 L4.39,0.08 C1.99,0.08 0.04,2.16 0.04,4.73 C0.04,7.3 1.99,9.38 4.39,9.38 L63.83,9.38 C66.23,9.38 68.18,7.3 68.18,4.73 C68.18,2.16 66.23,0.08 63.83,0.08 L63.83,0.08 Z M63.42,7.92 L4.8,7.92 C3.04,7.92 1.6,6.49 1.6,4.72 C1.6,2.95 3.03,1.52 4.8,1.52 L63.42,1.52 C65.18,1.52 66.62,2.95 66.62,4.72 C66.62,6.49 65.18,7.92 63.42,7.92 L63.42,7.92 Z" id="Shape" fill="#000000" opacity="0.2" mask="url(#mask-14)"></path>
                    </g>
                </g>
                <path d="M234.73,865.33 C216.6,865.33 201.9,880.03 201.9,898.16 C201.9,916.29 216.6,930.99 234.73,930.99 C252.86,930.99 267.56,916.29 267.56,898.16 C267.56,880.03 252.86,865.33 234.73,865.33 L234.73,865.33 Z M234.73,927.98 C218.26,927.98 204.91,914.63 204.91,898.16 C204.91,881.69 218.26,868.34 234.73,868.34 C251.2,868.34 264.55,881.69 264.55,898.16 C264.55,914.62 251.2,927.98 234.73,927.98 L234.73,927.98 Z" id="Shape" fill="url(#linearGradient-15)"></path>
                <path d="M69.89,8.59 C37.79,8.59 11.76,34.62 11.76,66.72 L11.76,571.87 L322.2,8.59 L69.89,8.59 L69.89,8.59 Z" id="Shape" fill="url(#linearGradient-16)"></path>
            </g>
            <rect id="Rectangle-path" fill="#000000" x="26" y="107" width="414" height="736"></rect>
        </g>
    </g>
</svg>
