<?xml version="1.0" encoding="UTF-8" standalone="no"?>
<svg width="374px" height="795px" viewBox="0 0 374 795" version="1.1" xmlns="http://www.w3.org/2000/svg" xmlns:xlink="http://www.w3.org/1999/xlink">
    <title>iPhone 5</title>
    <defs>
        <linearGradient x1="58.9659534%" y1="48.080666%" x2="34.111078%" y2="53.3994176%" id="linearGradient-1">
            <stop stop-color="#3A3E3A" offset="8.860001%"></stop>
            <stop stop-color="#2E332E" offset="34.31%"></stop>
            <stop stop-color="#C0C1C2" offset="36%"></stop>
            <stop stop-color="#3C3F3E" offset="51.34%"></stop>
            <stop stop-color="#4B4E4B" offset="64.16%"></stop>
        </linearGradient>
        <linearGradient x1="-17.9960388%" y1="8.33030962%" x2="65.7898338%" y2="59.671955%" id="linearGradient-2">
            <stop stop-color="#787A81" offset="0%"></stop>
            <stop stop-color="#50555D" offset="63.53%"></stop>
        </linearGradient>
        <linearGradient x1="86.4058917%" y1="91.8829618%" x2="14.0627389%" y2="8.61990446%" id="linearGradient-3">
            <stop stop-color="#FFFFFF" stop-opacity="0.3" offset="14.7%"></stop>
            <stop stop-color="#FFFFFF" stop-opacity="0" offset="40.73%"></stop>
            <stop stop-color="#FFFFFF" stop-opacity="0.00509108" offset="74.45%"></stop>
            <stop stop-color="#FFFFFF" stop-opacity="0.2" offset="100%"></stop>
        </linearGradient>
        <radialGradient cx="50.490424%" cy="57.371957%" fx="50.490424%" fy="57.371957%" r="32.026875%" id="radialGradient-4">
            <stop stop-color="#000000" stop-opacity="0" offset="0%"></stop>
            <stop stop-color="#020202" stop-opacity="0.4119" offset="51.49%"></stop>
            <stop stop-color="#090909" stop-opacity="0.5603" offset="70.03%"></stop>
            <stop stop-color="#141414" stop-opacity="0.666" offset="83.25%"></stop>
            <stop stop-color="#252525" stop-opacity="0.7509" offset="93.87%"></stop>
            <stop stop-color="#333333" stop-opacity="0.8" offset="100%"></stop>
        </radialGradient>
        <radialGradient cx="47.9198485%" cy="96.651617%" fx="47.9198485%" fy="96.651617%" r="60.9878788%" id="radialGradient-5">
            <stop stop-color="#FFFFFF" stop-opacity="0.3" offset="0%"></stop>
            <stop stop-color="#000000" stop-opacity="0" offset="100%"></stop>
        </radialGradient>
        <radialGradient cx="51.1128422%" cy="24.9366133%" fx="51.1128422%" fy="24.9366133%" r="36.9055556%" id="radialGradient-6">
            <stop stop-color="#FFFFFF" stop-opacity="0.3" offset="0%"></stop>
            <stop stop-color="#000000" stop-opacity="0" offset="100%"></stop>
        </radialGradient>
        <linearGradient x1="50.25%" y1="5.34%" x2="50.25%" y2="97.86%" id="linearGradient-7">
            <stop stop-color="#FFFFFF" stop-opacity="0.6" offset="0%"></stop>
            <stop stop-color="#FFFFFF" stop-opacity="0.1" offset="100%"></stop>
        </linearGradient>
        <linearGradient x1="-13.4283698%" y1="16.8838122%" x2="28.9472124%" y2="39.0002762%" id="linearGradient-8">
            <stop stop-color="#FFFFFF" stop-opacity="0.15" offset="0%"></stop>
            <stop stop-color="#FFFFFF" stop-opacity="0" offset="100%"></stop>
        </linearGradient>
        <linearGradient x1="50.0148322%" y1="100.475178%" x2="50.0148322%" y2="0.707893372%" id="linearGradient-9">
            <stop stop-color="#2E2E31" offset="0%"></stop>
            <stop stop-color="#616161" offset="24.48%"></stop>
            <stop stop-color="#858585" offset="81.37%"></stop>
            <stop stop-color="#2E2E31" offset="100%"></stop>
        </linearGradient>
    </defs>
    <g id="Page-1" stroke="none" stroke-width="1" fill="none" fill-rule="evenodd">
        <g id="iphone5-portrait">
            <g id="Group">
                <path d="M6.1,141.1 L2.4,141.1 C1.4,141.1 0.6,140.3 0.6,139.3 L0.6,108.7 C0.6,107.7 1.4,106.9 2.4,106.9 L6.1,106.9 L6.1,141.1 L6.1,141.1 L6.1,141.1 Z" id="Shape" fill="#808086"></path>
                <path d="M244.4,5.7 L244.4,2 C244.4,1 245.2,0.2 246.2,0.2 L301.8,0.2 C302.8,0.2 303.6,1 303.6,2 L303.6,5.7 L244.4,5.7 L244.4,5.7 Z" id="Shape" fill="#808086"></path>
                <path d="M0.8,182.4 C0.8,181.4 1.6,180.5 2.7,180.5 L6.4,180.5 L6.4,208.6 L2.7,208.6 C1.7,208.6 0.8,207.8 0.8,206.7 L0.8,182.4 L0.8,182.4 L0.8,182.4 Z" id="Shape" fill="#808086"></path>
                <path d="M0.8,248.8 C0.8,247.8 1.6,246.9 2.7,246.9 L6.4,246.9 L6.4,275 L2.7,275 C1.7,275 0.8,274.2 0.8,273.1 L0.8,248.8 L0.8,248.8 L0.8,248.8 Z" id="Shape" fill="#808086"></path>
                <path d="M60.6,794.7 C29.4,794.7 4,769.3 4,738.1 L4,61.5 C4,30.3 29.4,4.9 60.6,4.9 L316.6,4.9 C347.8,4.9 373.2,30.3 373.2,61.5 L373.2,738.1 C373.2,769.3 347.8,794.7 316.6,794.7 L60.6,794.7 L60.6,794.7 Z" id="Shape" fill="url(#linearGradient-1)"></path>
                <path d="M60.6,790.6 C31.7,790.6 8.1,767.1 8.1,738.1 L8.1,61.5 C8.1,32.5 31.7,9 60.6,9 L316.6,9 C345.6,9 369.1,32.5 369.1,61.5 L369.1,738.1 C369.1,767.1 345.6,790.6 316.6,790.6 L60.6,790.6 L60.6,790.6 L60.6,790.6 Z" id="Shape" fill="url(#linearGradient-2)"></path>
                <rect id="Rectangle-path" fill="#2E2E2E" x="4" y="72" width="6.7" height="6"></rect>
                <rect id="Rectangle-path" fill="#1F1F1F" x="366.5" y="72" width="6.7" height="6"></rect>
                <rect id="Rectangle-path" fill="#2E2E2E" x="4" y="721.2" width="6.7" height="6"></rect>
                <rect id="Rectangle-path" fill="#1F1F1F" x="366.5" y="721.2" width="6.7" height="6"></rect>
                <path d="M60.6,788 C33.1,788 10.7,765.6 10.7,738 L10.7,61.5 C10.7,34 33.1,11.5 60.6,11.5 L316.6,11.5 C344.1,11.5 366.6,33.9 366.6,61.5 L366.6,738.1 C366.6,765.6 344.2,788.1 316.6,788.1 L60.6,788 L60.6,788 L60.6,788 Z" id="Shape" fill="#232323"></path>
                <path d="M188.6,707.1 C171.3,707.1 157.2,721.2 157.2,738.5 C157.2,755.8 171.3,769.9 188.6,769.9 C205.9,769.9 220,755.8 220,738.5 C220,721.2 205.9,707.1 188.6,707.1 L188.6,707.1 Z M188.6,767 C172.8,767 160.1,754.2 160.1,738.5 C160.1,722.7 172.9,710 188.6,710 C204.3,710 217.1,722.8 217.1,738.5 C217.1,754.2 204.4,767 188.6,767 L188.6,767 Z" id="Shape" fill="url(#linearGradient-3)"></path>
                <g transform="translate(180.000000, 36.000000)">
                    <circle id="Oval" fill="#5D5D5F" cx="8.6" cy="8.4" r="8"></circle>
                    <circle id="Oval" fill="url(#radialGradient-4)" cx="8.6" cy="8.4" r="8"></circle>
                    <circle id="Oval" fill="#1B1A1F" cx="8.6" cy="8.4" r="4.5"></circle>
                    <circle id="Oval" fill="#36284C" cx="8.6" cy="8.4" r="3.3"></circle>
                    <circle id="Oval" fill="url(#radialGradient-5)" cx="8.6" cy="8.4" r="3.3"></circle>
                    <g transform="translate(6.000000, 6.000000)" id="Oval">
                        <circle fill="#141414" opacity="0.5" cx="2.6" cy="2.4" r="1.8"></circle>
                        <circle fill="url(#radialGradient-6)" cx="2.6" cy="2.4" r="1.8"></circle>
                    </g>
                    <path d="M8.6,7.1 C8.2,7.1 7.8,7.3 7.6,7.6 L8,8 C8.1,7.8 8.3,7.7 8.6,7.7 C8.8,7.7 9,7.8 9.2,8 L9.6,7.6 C9.4,7.3 9,7.1 8.6,7.1 L8.6,7.1 Z" id="Shape" fill="url(#linearGradient-7)"></path>
                </g>
                <path d="M60.6,11.6 C33.1,11.6 10.7,34 10.7,61.6 L10.7,554.6 L294.1,11.6 L60.6,11.6 L60.6,11.6 Z" id="Shape" fill="url(#linearGradient-8)"></path>
                <g transform="translate(154.000000, 68.000000)" id="Shape">
                    <path d="M63.9,9.2 L5.3,9.2 C2.9,9.2 1,7.3 1,4.9 L1,4.9 C1,2.5 2.9,0.6 5.3,0.6 L63.9,0.6 C66.3,0.6 68.2,2.5 68.2,4.9 L68.2,4.9 C68.2,7.3 66.3,9.2 63.9,9.2 L63.9,9.2 Z" fill="url(#linearGradient-9)" opacity="0.8"></path>
                    <path d="M2.4,0.6 L0.9,0.6 L0.9,2 L2.4,2 L2.4,0.6 L2.4,0.6 Z M5.4,0.6 L3.9,0.6 L3.9,2 L5.4,2 L5.4,0.6 L5.4,0.6 Z M8.3,0.6 L6.8,0.6 L6.8,2 L8.3,2 L8.3,0.6 L8.3,0.6 Z M11.2,0.6 L9.7,0.6 L9.7,2 L11.2,2 L11.2,0.6 L11.2,0.6 Z M14.2,0.6 L12.7,0.6 L12.7,2 L14.2,2 L14.2,0.6 L14.2,0.6 Z M17.1,0.6 L15.6,0.6 L15.6,2 L17.1,2 L17.1,0.6 L17.1,0.6 Z M20,0.6 L18.5,0.6 L18.5,2 L20,2 L20,0.6 L20,0.6 Z M23,0.6 L21.5,0.6 L21.5,2 L23,2 L23,0.6 L23,0.6 Z M25.9,0.6 L24.4,0.6 L24.4,2 L25.9,2 L25.9,0.6 L25.9,0.6 Z M28.8,0.6 L27.3,0.6 L27.3,2 L28.8,2 L28.8,0.6 L28.8,0.6 Z M31.8,0.6 L30.3,0.6 L30.3,2 L31.8,2 L31.8,0.6 L31.8,0.6 Z M34.7,0.6 L33.2,0.6 L33.2,2 L34.7,2 L34.7,0.6 L34.7,0.6 Z M37.6,0.6 L36.1,0.6 L36.1,2 L37.6,2 L37.6,0.6 L37.6,0.6 Z M40.6,0.6 L39.1,0.6 L39.1,2 L40.6,2 L40.6,0.6 L40.6,0.6 Z M43.5,0.6 L42,0.6 L42,2 L43.5,2 L43.5,0.6 L43.5,0.6 Z M46.4,0.6 L45,0.6 L45,2 L46.5,2 L46.5,0.6 L46.4,0.6 Z M49.4,0.6 L47.9,0.6 L47.9,2 L49.4,2 L49.4,0.6 L49.4,0.6 Z M52.3,0.6 L50.8,0.6 L50.8,2 L52.3,2 L52.3,0.6 L52.3,0.6 Z M55.2,0.6 L53.7,0.6 L53.7,2 L55.2,2 L55.2,0.6 L55.2,0.6 Z M58.2,0.6 L56.7,0.6 L56.7,2 L58.2,2 L58.2,0.6 L58.2,0.6 Z M61.1,0.6 L59.6,0.6 L59.6,2 L61.1,2 L61.1,0.6 L61.1,0.6 Z M64.1,0.6 L62.6,0.6 L62.6,2 L64.1,2 L64.1,0.6 L64.1,0.6 Z M67,0.6 L65.5,0.6 L65.5,2 L67,2 L67,0.6 L67,0.6 Z M3.9,2 L2.4,2 L2.4,3.5 L3.9,3.5 L3.9,2 L3.9,2 Z M6.8,2 L5.3,2 L5.3,3.5 L6.8,3.5 L6.8,2 L6.8,2 Z M9.8,2 L8.3,2 L8.3,3.5 L9.8,3.5 L9.8,2 L9.8,2 Z M12.7,2 L11.2,2 L11.2,3.5 L12.7,3.5 L12.7,2 L12.7,2 Z M15.6,2 L14.1,2 L14.1,3.5 L15.6,3.5 L15.6,2 L15.6,2 Z M18.6,2 L17.1,2 L17.1,3.5 L18.6,3.5 L18.6,2 L18.6,2 Z M21.5,2 L20,2 L20,3.5 L21.5,3.5 L21.5,2 L21.5,2 Z M24.4,2 L23,2 L23,3.5 L24.5,3.5 L24.5,2 L24.4,2 Z M27.4,2 L25.9,2 L25.9,3.5 L27.4,3.5 L27.4,2 L27.4,2 Z M30.3,2 L28.8,2 L28.8,3.5 L30.3,3.5 L30.3,2 L30.3,2 Z M33.2,2 L31.7,2 L31.7,3.5 L33.2,3.5 L33.2,2 L33.2,2 Z M36.2,2 L34.7,2 L34.7,3.5 L36.2,3.5 L36.2,2 L36.2,2 Z M39.1,2 L37.6,2 L37.6,3.5 L39.1,3.5 L39.1,2 L39.1,2 Z M42,2 L40.5,2 L40.5,3.5 L42,3.5 L42,2 L42,2 Z M45,2 L43.5,2 L43.5,3.5 L45,3.5 L45,2 L45,2 Z M47.9,2 L46.4,2 L46.4,3.5 L47.9,3.5 L47.9,2 L47.9,2 Z M50.9,2 L49.4,2 L49.4,3.5 L50.9,3.5 L50.9,2 L50.9,2 Z M53.8,2 L52.3,2 L52.3,3.5 L53.8,3.5 L53.8,2 L53.8,2 Z M56.7,2 L55.2,2 L55.2,3.5 L56.7,3.5 L56.7,2 L56.7,2 Z M59.6,2 L58.1,2 L58.1,3.5 L59.6,3.5 L59.6,2 L59.6,2 Z M62.6,2 L61.1,2 L61.1,3.5 L62.6,3.5 L62.6,2 L62.6,2 Z M65.5,2 L64,2 L64,3.5 L65.5,3.5 L65.5,2 L65.5,2 Z M68.5,2 L67,2 L67,3.5 L68.5,3.5 L68.5,2 L68.5,2 Z M2.4,3.5 L0.9,3.5 L0.9,5 L2.4,5 L2.4,3.5 L2.4,3.5 Z M5.4,3.5 L3.9,3.5 L3.9,5 L5.4,5 L5.4,3.5 L5.4,3.5 Z M8.3,3.5 L6.8,3.5 L6.8,5 L8.3,5 L8.3,3.5 L8.3,3.5 Z M11.2,3.5 L9.7,3.5 L9.7,5 L11.2,5 L11.2,3.5 L11.2,3.5 Z M14.2,3.5 L12.7,3.5 L12.7,5 L14.2,5 L14.2,3.5 L14.2,3.5 Z M17.1,3.5 L15.6,3.5 L15.6,5 L17.1,5 L17.1,3.5 L17.1,3.5 Z M20,3.5 L18.5,3.5 L18.5,5 L20,5 L20,3.5 L20,3.5 Z M23,3.5 L21.5,3.5 L21.5,5 L23,5 L23,3.5 L23,3.5 Z M25.9,3.5 L24.4,3.5 L24.4,5 L25.9,5 L25.9,3.5 L25.9,3.5 Z M28.8,3.5 L27.3,3.5 L27.3,5 L28.8,5 L28.8,3.5 L28.8,3.5 Z M31.8,3.5 L30.3,3.5 L30.3,5 L31.8,5 L31.8,3.5 L31.8,3.5 Z M34.7,3.5 L33.2,3.5 L33.2,5 L34.7,5 L34.7,3.5 L34.7,3.5 Z M37.6,3.5 L36.1,3.5 L36.1,5 L37.6,5 L37.6,3.5 L37.6,3.5 Z M40.6,3.5 L39.1,3.5 L39.1,5 L40.6,5 L40.6,3.5 L40.6,3.5 Z M43.5,3.5 L42,3.5 L42,5 L43.5,5 L43.5,3.5 L43.5,3.5 Z M46.4,3.5 L45,3.5 L45,5 L46.5,5 L46.5,3.5 L46.4,3.5 Z M49.4,3.5 L47.9,3.5 L47.9,5 L49.4,5 L49.4,3.5 L49.4,3.5 Z M52.3,3.5 L50.8,3.5 L50.8,5 L52.3,5 L52.3,3.5 L52.3,3.5 Z M55.2,3.5 L53.7,3.5 L53.7,5 L55.2,5 L55.2,3.5 L55.2,3.5 Z M58.2,3.5 L56.7,3.5 L56.7,5 L58.2,5 L58.2,3.5 L58.2,3.5 Z M61.1,3.5 L59.6,3.5 L59.6,5 L61.1,5 L61.1,3.5 L61.1,3.5 Z M64.1,3.5 L62.6,3.5 L62.6,5 L64.1,5 L64.1,3.5 L64.1,3.5 Z M67,3.5 L65.5,3.5 L65.5,5 L67,5 L67,3.5 L67,3.5 Z M3.9,5 L2.4,5 L2.4,6.5 L3.9,6.5 L3.9,5 L3.9,5 Z M6.8,5 L5.3,5 L5.3,6.5 L6.8,6.5 L6.8,5 L6.8,5 Z M9.8,5 L8.3,5 L8.3,6.5 L9.8,6.5 L9.8,5 L9.8,5 Z M12.7,5 L11.2,5 L11.2,6.5 L12.7,6.5 L12.7,5 L12.7,5 Z M15.6,5 L14.1,5 L14.1,6.5 L15.6,6.5 L15.6,5 L15.6,5 Z M18.6,5 L17.1,5 L17.1,6.5 L18.6,6.5 L18.6,5 L18.6,5 Z M21.5,5 L20,5 L20,6.5 L21.5,6.5 L21.5,5 L21.5,5 Z M24.4,5 L23,5 L23,6.5 L24.5,6.5 L24.5,5 L24.4,5 Z M27.4,5 L25.9,5 L25.9,6.5 L27.4,6.5 L27.4,5 L27.4,5 Z M30.3,5 L28.8,5 L28.8,6.5 L30.3,6.5 L30.3,5 L30.3,5 Z M33.2,5 L31.7,5 L31.7,6.5 L33.2,6.5 L33.2,5 L33.2,5 Z M36.2,5 L34.7,5 L34.7,6.5 L36.2,6.5 L36.2,5 L36.2,5 Z M39.1,5 L37.6,5 L37.6,6.5 L39.1,6.5 L39.1,5 L39.1,5 Z M42,5 L40.5,5 L40.5,6.5 L42,6.5 L42,5 L42,5 Z M45,5 L43.5,5 L43.5,6.5 L45,6.5 L45,5 L45,5 Z M47.9,5 L46.4,5 L46.4,6.5 L47.9,6.5 L47.9,5 L47.9,5 Z M50.9,5 L49.4,5 L49.4,6.5 L50.9,6.5 L50.9,5 L50.9,5 Z M53.8,5 L52.3,5 L52.3,6.5 L53.8,6.5 L53.8,5 L53.8,5 Z M56.7,5 L55.2,5 L55.2,6.5 L56.7,6.5 L56.7,5 L56.7,5 Z M59.6,5 L58.1,5 L58.1,6.5 L59.6,6.5 L59.6,5 L59.6,5 Z M62.6,5 L61.1,5 L61.1,6.5 L62.6,6.5 L62.6,5 L62.6,5 Z M65.5,5 L64,5 L64,6.5 L65.5,6.5 L65.5,5 L65.5,5 Z M68.5,5 L67,5 L67,6.5 L68.5,6.5 L68.5,5 L68.5,5 Z M2.4,6.4 L0.9,6.4 L0.9,7.9 L2.4,7.9 L2.4,6.4 L2.4,6.4 Z M5.4,6.4 L3.9,6.4 L3.9,7.9 L5.4,7.9 L5.4,6.4 L5.4,6.4 Z M8.3,6.4 L6.8,6.4 L6.8,7.9 L8.3,7.9 L8.3,6.4 L8.3,6.4 Z M11.2,6.4 L9.7,6.4 L9.7,7.9 L11.2,7.9 L11.2,6.4 L11.2,6.4 Z M14.2,6.4 L12.7,6.4 L12.7,7.9 L14.2,7.9 L14.2,6.4 L14.2,6.4 Z M17.1,6.4 L15.6,6.4 L15.6,7.9 L17.1,7.9 L17.1,6.4 L17.1,6.4 Z M20,6.4 L18.5,6.4 L18.5,7.9 L20,7.9 L20,6.4 L20,6.4 Z M23,6.4 L21.5,6.4 L21.5,7.9 L23,7.9 L23,6.4 L23,6.4 Z M25.9,6.4 L24.4,6.4 L24.4,7.9 L25.9,7.9 L25.9,6.4 L25.9,6.4 Z M28.8,6.4 L27.3,6.4 L27.3,7.9 L28.8,7.9 L28.8,6.4 L28.8,6.4 Z M31.8,6.4 L30.3,6.4 L30.3,7.9 L31.8,7.9 L31.8,6.4 L31.8,6.4 Z M34.7,6.4 L33.2,6.4 L33.2,7.9 L34.7,7.9 L34.7,6.4 L34.7,6.4 Z M37.6,6.4 L36.1,6.4 L36.1,7.9 L37.6,7.9 L37.6,6.4 L37.6,6.4 Z M40.6,6.4 L39.1,6.4 L39.1,7.9 L40.6,7.9 L40.6,6.4 L40.6,6.4 Z M43.5,6.4 L42,6.4 L42,7.9 L43.5,7.9 L43.5,6.4 L43.5,6.4 Z M46.4,6.4 L45,6.4 L45,7.9 L46.5,7.9 L46.5,6.4 L46.4,6.4 Z M49.4,6.4 L47.9,6.4 L47.9,7.9 L49.4,7.9 L49.4,6.4 L49.4,6.4 Z M52.3,6.4 L50.8,6.4 L50.8,7.9 L52.3,7.9 L52.3,6.4 L52.3,6.4 Z M55.2,6.4 L53.7,6.4 L53.7,7.9 L55.2,7.9 L55.2,6.4 L55.2,6.4 Z M58.2,6.4 L56.7,6.4 L56.7,7.9 L58.2,7.9 L58.2,6.4 L58.2,6.4 Z M61.1,6.4 L59.6,6.4 L59.6,7.9 L61.1,7.9 L61.1,6.4 L61.1,6.4 Z M64.1,6.4 L62.6,6.4 L62.6,7.9 L64.1,7.9 L64.1,6.4 L64.1,6.4 Z M67,6.4 L65.5,6.4 L65.5,7.9 L67,7.9 L67,6.4 L67,6.4 Z M3.9,7.9 L2.4,7.9 L2.4,9.4 L3.9,9.4 L3.9,7.9 L3.9,7.9 Z M6.8,7.9 L5.3,7.9 L5.3,9.4 L6.8,9.4 L6.8,7.9 L6.8,7.9 Z M9.8,7.9 L8.3,7.9 L8.3,9.4 L9.8,9.4 L9.8,7.9 L9.8,7.9 Z M12.7,7.9 L11.2,7.9 L11.2,9.4 L12.7,9.4 L12.7,7.9 L12.7,7.9 Z M15.6,7.9 L14.1,7.9 L14.1,9.4 L15.6,9.4 L15.6,7.9 L15.6,7.9 Z M18.6,7.9 L17.1,7.9 L17.1,9.4 L18.6,9.4 L18.6,7.9 L18.6,7.9 Z M21.5,7.9 L20,7.9 L20,9.4 L21.5,9.4 L21.5,7.9 L21.5,7.9 Z M24.4,7.9 L23,7.9 L23,9.4 L24.5,9.4 L24.5,7.9 L24.4,7.9 Z M27.4,7.9 L25.9,7.9 L25.9,9.4 L27.4,9.4 L27.4,7.9 L27.4,7.9 Z M30.3,7.9 L28.8,7.9 L28.8,9.4 L30.3,9.4 L30.3,7.9 L30.3,7.9 Z M33.2,7.9 L31.7,7.9 L31.7,9.4 L33.2,9.4 L33.2,7.9 L33.2,7.9 Z M36.2,7.9 L34.7,7.9 L34.7,9.4 L36.2,9.4 L36.2,7.9 L36.2,7.9 Z M39.1,7.9 L37.6,7.9 L37.6,9.4 L39.1,9.4 L39.1,7.9 L39.1,7.9 Z M42,7.9 L40.5,7.9 L40.5,9.4 L42,9.4 L42,7.9 L42,7.9 Z M45,7.9 L43.5,7.9 L43.5,9.4 L45,9.4 L45,7.9 L45,7.9 Z M47.9,7.9 L46.4,7.9 L46.4,9.4 L47.9,9.4 L47.9,7.9 L47.9,7.9 Z M50.9,7.9 L49.4,7.9 L49.4,9.4 L50.9,9.4 L50.9,7.9 L50.9,7.9 Z M53.8,7.9 L52.3,7.9 L52.3,9.4 L53.8,9.4 L53.8,7.9 L53.8,7.9 Z M56.7,7.9 L55.2,7.9 L55.2,9.4 L56.7,9.4 L56.7,7.9 L56.7,7.9 Z M59.6,7.9 L58.1,7.9 L58.1,9.4 L59.6,9.4 L59.6,7.9 L59.6,7.9 Z M62.6,7.9 L61.1,7.9 L61.1,9.4 L62.6,9.4 L62.6,7.9 L62.6,7.9 Z M65.5,7.9 L64,7.9 L64,9.4 L65.5,9.4 L65.5,7.9 L65.5,7.9 Z M68.5,7.9 L67,7.9 L67,9.4 L68.5,9.4 L68.5,7.9 L68.5,7.9 Z" fill="#2E2E2E"></path>
                    <path d="M64.3,0.3 L4.9,0.3 C2.5,0.3 0.5,2.4 0.5,5 C0.5,7.6 2.4,9.7 4.9,9.7 L64.3,9.7 C66.7,9.7 68.7,7.6 68.7,5 C68.7,2.4 66.7,0.3 64.3,0.3 L64.3,0.3 Z M63.9,8.2 L5.3,8.2 C3.5,8.2 2.1,6.8 2.1,5 C2.1,3.2 3.5,1.8 5.3,1.8 L63.9,1.8 C65.7,1.8 67.1,3.2 67.1,5 C67.1,6.8 65.7,8.2 63.9,8.2 L63.9,8.2 Z" fill="#000000" opacity="0.2"></path>
                </g>
            </g>
            <rect id="Rectangle-path" x="28.5" y="114.7" width="320" height="568"></rect>
        </g>
    </g>
</svg>
