<?xml version="1.0" encoding="UTF-8" standalone="no"?>
<svg width="796px" height="374px" viewBox="0 0 796 374" version="1.1" xmlns="http://www.w3.org/2000/svg" xmlns:xlink="http://www.w3.org/1999/xlink">
    <title>iPhone 5</title>
    <defs>
        <linearGradient x1="48.0821303%" y1="41.0365444%" x2="53.4014207%" y2="65.8954597%" id="linearGradient-1">
            <stop stop-color="#3A3E3A" offset="8.86%"></stop>
            <stop stop-color="#2E332E" offset="34.31%"></stop>
            <stop stop-color="#C0C1C2" offset="36%"></stop>
            <stop stop-color="#3C3F3E" offset="51.34%"></stop>
            <stop stop-color="#4B4E4B" offset="64.16%"></stop>
        </linearGradient>
        <linearGradient x1="8.33127764%" y1="117.999363%" x2="59.674224%" y2="34.2134349%" id="linearGradient-2">
            <stop stop-color="#787A81" offset="0%"></stop>
            <stop stop-color="#50555D" offset="63.53%"></stop>
        </linearGradient>
        <linearGradient x1="86.386465%" y1="91.8797771%" x2="14.0433121%" y2="8.61671975%" id="linearGradient-3">
            <stop stop-color="#FFFFFF" stop-opacity="0.3" offset="14.7%"></stop>
            <stop stop-color="#FFFFFF" stop-opacity="0" offset="40.73%"></stop>
            <stop stop-color="#FFFFFF" stop-opacity="0.00509108" offset="74.45%"></stop>
            <stop stop-color="#FFFFFF" stop-opacity="0.2" offset="100%"></stop>
        </linearGradient>
        <radialGradient cx="50.420845%" cy="57.0979235%" fx="50.420845%" fy="57.0979235%" r="32.026875%" id="radialGradient-4">
            <stop stop-color="#000000" stop-opacity="0" offset="0%"></stop>
            <stop stop-color="#020202" stop-opacity="0.4119" offset="51.49%"></stop>
            <stop stop-color="#090909" stop-opacity="0.5603" offset="70.03%"></stop>
            <stop stop-color="#141414" stop-opacity="0.666" offset="83.25%"></stop>
            <stop stop-color="#252525" stop-opacity="0.7509" offset="93.87%"></stop>
            <stop stop-color="#333333" stop-opacity="0.8" offset="100%"></stop>
        </radialGradient>
        <radialGradient cx="47.7374598%" cy="96.2677037%" fx="47.7374598%" fy="96.2677037%" r="61.3597561%" id="radialGradient-5">
            <stop stop-color="#FFFFFF" stop-opacity="0.3" offset="0%"></stop>
            <stop stop-color="#000000" stop-opacity="0" offset="100%"></stop>
        </radialGradient>
        <radialGradient cx="50.7992656%" cy="23.7186867%" fx="50.7992656%" fy="23.7186867%" r="36.9055556%" id="radialGradient-6">
            <stop stop-color="#FFFFFF" stop-opacity="0.3" offset="0%"></stop>
            <stop stop-color="#000000" stop-opacity="0" offset="100%"></stop>
        </radialGradient>
        <linearGradient x1="50.3015075%" y1="7%" x2="50.3015075%" y2="99.53%" id="linearGradient-7">
            <stop stop-color="#FFFFFF" stop-opacity="0.6" offset="0%"></stop>
            <stop stop-color="#FFFFFF" stop-opacity="0.1" offset="100%"></stop>
        </linearGradient>
        <path id="path-8" d="M8.84,4.95 L8.84,59.57 C8.84,61.94 6.92,63.86 4.55,63.86 L4.55,63.86 C2.18,63.86 0.26,61.94 0.26,59.57 L0.26,4.95 C0.26,2.58 2.18,0.66 4.55,0.66 L4.55,0.66 C6.92,0.67 8.84,2.59 8.84,4.95 L8.84,4.95 Z"></path>
        <linearGradient x1="100.590671%" y1="50.3945599%" x2="0.664279091%" y2="50.3945599%" id="linearGradient-10">
            <stop stop-color="#2E2E31" offset="0%"></stop>
            <stop stop-color="#616161" offset="24.48%"></stop>
            <stop stop-color="#858585" offset="81.37%"></stop>
            <stop stop-color="#2E2E31" offset="100%"></stop>
        </linearGradient>
        <path id="path-11" d="M8.84,4.95 L8.84,59.57 C8.84,61.94 6.92,63.86 4.55,63.86 L4.55,63.86 C2.18,63.86 0.26,61.94 0.26,59.57 L0.26,4.95 C0.26,2.58 2.18,0.66 4.55,0.66 L4.55,0.66 C6.92,0.67 8.84,2.59 8.84,4.95 L8.84,4.95 Z"></path>
        <path id="path-13" d="M8.84,4.95 L8.84,59.57 C8.84,61.94 6.92,63.86 4.55,63.86 L4.55,63.86 C2.18,63.86 0.26,61.94 0.26,59.57 L0.26,4.95 C0.26,2.58 2.18,0.66 4.55,0.66 L4.55,0.66 C6.92,0.67 8.84,2.59 8.84,4.95 L8.84,4.95 Z"></path>
    </defs>
    <g id="Page-1" stroke="none" stroke-width="1" fill="none" fill-rule="evenodd">
        <g id="iphone5-landscape">
            <g id="Group">
                <path d="M141.69,367.74 L141.69,371.47 C141.69,372.49 140.86,373.31 139.85,373.31 L109.29,373.31 C108.27,373.31 107.45,372.48 107.45,371.47 L107.45,367.74 L141.69,367.74 L141.69,367.74 Z" id="Shape" fill="#808086"></path>
                <path d="M6.33,129.47 L2.6,129.47 C1.58,129.47 0.76,128.64 0.76,127.63 L0.76,72.05 C0.76,71.03 1.59,70.21 2.6,70.21 L6.33,70.21 L6.33,129.47 L6.33,129.47 Z" id="Shape" fill="#808086"></path>
                <path d="M183.02,373.12 C181.99,373.12 181.16,372.29 181.16,371.26 L181.16,367.54 L209.26,367.54 L209.26,371.26 C209.26,372.29 208.43,373.12 207.4,373.12 L183.02,373.12 L183.02,373.12 Z" id="Shape" fill="#808086"></path>
                <path d="M249.35,373.12 C248.32,373.12 247.49,372.29 247.49,371.26 L247.49,367.54 L275.59,367.54 L275.59,371.26 C275.59,372.29 274.76,373.12 273.73,373.12 L249.35,373.12 L249.35,373.12 Z" id="Shape" fill="#808086"></path>
                <path d="M795.24,313.26 C795.24,344.45 769.86,369.83 738.67,369.83 L62.09,369.83 C30.9,369.83 5.52,344.45 5.52,313.26 L5.52,57.26 C5.52,26.07 30.9,0.69 62.09,0.69 L738.67,0.69 C769.86,0.69 795.24,26.07 795.24,57.26 L795.24,313.26 L795.24,313.26 Z" id="Shape" fill="url(#linearGradient-1)"></path>
                <path d="M791.17,313.26 C791.17,342.21 767.62,365.76 738.67,365.76 L62.09,365.76 C33.14,365.76 9.59,342.21 9.59,313.26 L9.59,57.26 C9.59,28.31 33.14,4.76 62.09,4.76 L738.67,4.76 C767.62,4.76 791.17,28.31 791.17,57.26 L791.17,313.26 L791.17,313.26 Z" id="Shape" fill="url(#linearGradient-2)"></path>
                <rect id="Rectangle-path" fill="#2E2E2E" x="72.56" y="363.15" width="6" height="6.69"></rect>
                <rect id="Rectangle-path" fill="#1F1F1F" x="72.56" y="0.69" width="6" height="6.74"></rect>
                <rect id="Rectangle-path" fill="#2E2E2E" x="721.76" y="363.15" width="6" height="6.69"></rect>
                <rect id="Rectangle-path" fill="#1F1F1F" x="721.76" y="0.69" width="6" height="6.74"></rect>
                <path d="M788.62,313.26 C788.62,340.8 766.21,363.21 738.67,363.21 L62.09,363.21 C34.55,363.21 12.14,340.8 12.14,313.26 L12.14,57.26 C12.14,29.72 34.55,7.31 62.09,7.31 L738.67,7.31 C766.21,7.31 788.62,29.72 788.62,57.26 L788.62,313.26 L788.62,313.26 Z" id="Shape" fill="#232323"></path>
                <path d="M739.1,153.87 C721.76,153.87 707.7,167.93 707.7,185.27 C707.7,202.61 721.76,216.67 739.1,216.67 C756.44,216.67 770.5,202.61 770.5,185.27 C770.5,167.93 756.44,153.87 739.1,153.87 L739.1,153.87 Z M739.1,213.79 C723.35,213.79 710.57,201.02 710.57,185.26 C710.57,169.5 723.34,156.73 739.1,156.73 C754.86,156.73 767.63,169.5 767.63,185.26 C767.63,201.02 754.85,213.79 739.1,213.79 L739.1,213.79 Z" id="Shape" fill="url(#linearGradient-3)"></path>
                <g transform="translate(37.000000, 177.000000)">
                    <circle id="Oval" fill="#5D5D5F" cx="8.04" cy="8.27" r="8"></circle>
                    <circle id="Oval" fill="url(#radialGradient-4)" cx="8.04" cy="8.27" r="8"></circle>
                    <circle id="Oval" fill="#1B1A1F" cx="8.04" cy="8.27" r="4.48"></circle>
                    <circle id="Oval" fill="#36284C" cx="8.04" cy="8.27" r="3.28"></circle>
                    <circle id="Oval" fill="url(#radialGradient-5)" cx="8.04" cy="8.27" r="3.28"></circle>
                    <g transform="translate(6.000000, 6.000000)" id="Oval">
                        <circle fill="#141414" opacity="0.5" cx="2.04" cy="2.27" r="1.8"></circle>
                        <circle fill="url(#radialGradient-6)" cx="2.04" cy="2.27" r="1.8"></circle>
                    </g>
                    <path d="M8.04,6.91 C7.64,6.91 7.29,7.09 7.04,7.37 L7.46,7.79 C7.6,7.62 7.8,7.51 8.03,7.51 C8.27,7.51 8.47,7.63 8.61,7.81 L9.03,7.39 C8.8,7.1 8.44,6.91 8.04,6.91 L8.04,6.91 Z" id="Shape" fill="url(#linearGradient-7)"></path>
                </g>
                <g transform="translate(69.000000, 153.000000)" id="Clipped">
                    <g>
                        <mask id="mask-9" fill="white">
                            <use xlink:href="#path-8"></use>
                        </mask>
                        <g id="SVGID_8_"></g>
                        <path d="M8.84,2.95 L8.84,61.57 C8.84,63.94 6.92,65.86 4.55,65.86 L4.55,65.86 C2.18,65.86 0.26,63.94 0.26,61.57 L0.26,2.95 C0.26,0.58 2.18,-1.34 4.55,-1.34 L4.55,-1.34 C6.92,-1.34 8.84,0.58 8.84,2.95 L8.84,2.95 Z" id="Shape" fill="url(#linearGradient-10)" opacity="0.8" mask="url(#mask-9)"></path>
                    </g>
                    <g>
                        <mask id="mask-12" fill="white">
                            <use xlink:href="#path-11"></use>
                        </mask>
                        <g id="SVGID_8_"></g>
                        <path d="M0.15,64.45 L0.15,65.92 L1.62,65.92 L1.62,64.45 L0.15,64.45 L0.15,64.45 Z M0.15,61.52 L0.15,62.99 L1.62,62.99 L1.62,61.52 L0.15,61.52 L0.15,61.52 Z M0.15,58.58 L0.15,60.05 L1.62,60.05 L1.62,58.58 L0.15,58.58 L0.15,58.58 Z M0.15,55.65 L0.15,57.12 L1.62,57.12 L1.62,55.65 L0.15,55.65 L0.15,55.65 Z M0.15,52.71 L0.15,54.18 L1.62,54.18 L1.62,52.71 L0.15,52.71 L0.15,52.71 Z M0.15,49.78 L0.15,51.25 L1.62,51.25 L1.62,49.78 L0.15,49.78 L0.15,49.78 Z M0.15,46.84 L0.15,48.31 L1.62,48.31 L1.62,46.84 L0.15,46.84 L0.15,46.84 Z M0.15,43.91 L0.15,45.38 L1.62,45.38 L1.62,43.91 L0.15,43.91 L0.15,43.91 Z M0.15,40.97 L0.15,42.44 L1.62,42.44 L1.62,40.97 L0.15,40.97 L0.15,40.97 Z M0.15,38.04 L0.15,39.51 L1.62,39.51 L1.62,38.04 L0.15,38.04 L0.15,38.04 Z M0.15,35.1 L0.15,36.57 L1.62,36.57 L1.62,35.1 L0.15,35.1 L0.15,35.1 Z M0.15,32.17 L0.15,33.64 L1.62,33.64 L1.62,32.17 L0.15,32.17 L0.15,32.17 Z M0.15,29.23 L0.15,30.7 L1.62,30.7 L1.62,29.23 L0.15,29.23 L0.15,29.23 Z M0.15,26.3 L0.15,27.77 L1.62,27.77 L1.62,26.3 L0.15,26.3 L0.15,26.3 Z M0.15,23.36 L0.15,24.83 L1.62,24.83 L1.62,23.36 L0.15,23.36 L0.15,23.36 Z M0.15,20.43 L0.15,21.9 L1.62,21.9 L1.62,20.43 L0.15,20.43 L0.15,20.43 Z M0.15,17.49 L0.15,18.96 L1.62,18.96 L1.62,17.49 L0.15,17.49 L0.15,17.49 Z M0.15,14.56 L0.15,16.03 L1.62,16.03 L1.62,14.56 L0.15,14.56 L0.15,14.56 Z M0.15,11.62 L0.15,13.09 L1.62,13.09 L1.62,11.62 L0.15,11.62 L0.15,11.62 Z M0.15,8.69 L0.15,10.16 L1.62,10.16 L1.62,8.69 L0.15,8.69 L0.15,8.69 Z M0.15,5.75 L0.15,7.22 L1.62,7.22 L1.62,5.75 L0.15,5.75 L0.15,5.75 Z M0.15,2.82 L0.15,4.29 L1.62,4.29 L1.62,2.82 L0.15,2.82 L0.15,2.82 Z M0.15,-0.12 L0.15,1.35 L1.62,1.35 L1.62,-0.12 L0.15,-0.12 L0.15,-0.12 Z M1.62,62.98 L1.62,64.45 L3.09,64.45 L3.09,62.98 L1.62,62.98 L1.62,62.98 Z M1.62,60.05 L1.62,61.52 L3.09,61.52 L3.09,60.05 L1.62,60.05 L1.62,60.05 Z M1.62,57.11 L1.62,58.58 L3.09,58.58 L3.09,57.11 L1.62,57.11 L1.62,57.11 Z M1.62,54.18 L1.62,55.65 L3.09,55.65 L3.09,54.18 L1.62,54.18 L1.62,54.18 Z M1.62,51.24 L1.62,52.71 L3.09,52.71 L3.09,51.24 L1.62,51.24 L1.62,51.24 Z M1.62,48.31 L1.62,49.78 L3.09,49.78 L3.09,48.31 L1.62,48.31 L1.62,48.31 Z M1.62,45.37 L1.62,46.84 L3.09,46.84 L3.09,45.37 L1.62,45.37 L1.62,45.37 Z M1.62,42.44 L1.62,43.91 L3.09,43.91 L3.09,42.44 L1.62,42.44 L1.62,42.44 Z M1.62,39.5 L1.62,40.97 L3.09,40.97 L3.09,39.5 L1.62,39.5 L1.62,39.5 Z M1.62,36.57 L1.62,38.04 L3.09,38.04 L3.09,36.57 L1.62,36.57 L1.62,36.57 Z M1.62,33.63 L1.62,35.1 L3.09,35.1 L3.09,33.63 L1.62,33.63 L1.62,33.63 Z M1.62,30.7 L1.62,32.17 L3.09,32.17 L3.09,30.7 L1.62,30.7 L1.62,30.7 Z M1.62,27.76 L1.62,29.23 L3.09,29.23 L3.09,27.76 L1.62,27.76 L1.62,27.76 Z M1.62,24.83 L1.62,26.3 L3.09,26.3 L3.09,24.83 L1.62,24.83 L1.62,24.83 Z M1.62,21.89 L1.62,23.36 L3.09,23.36 L3.09,21.89 L1.62,21.89 L1.62,21.89 Z M1.62,18.96 L1.62,20.43 L3.09,20.43 L3.09,18.96 L1.62,18.96 L1.62,18.96 Z M1.62,16.02 L1.62,17.49 L3.09,17.49 L3.09,16.02 L1.62,16.02 L1.62,16.02 Z M1.62,13.09 L1.62,14.56 L3.09,14.56 L3.09,13.09 L1.62,13.09 L1.62,13.09 Z M1.62,10.15 L1.62,11.62 L3.09,11.62 L3.09,10.15 L1.62,10.15 L1.62,10.15 Z M1.62,7.22 L1.62,8.69 L3.09,8.69 L3.09,7.22 L1.62,7.22 L1.62,7.22 Z M1.62,4.28 L1.62,5.75 L3.09,5.75 L3.09,4.28 L1.62,4.28 L1.62,4.28 Z M1.62,1.35 L1.62,2.82 L3.09,2.82 L3.09,1.35 L1.62,1.35 L1.62,1.35 Z M1.62,-1.59 L1.62,-0.12 L3.09,-0.12 L3.09,-1.59 L1.62,-1.59 L1.62,-1.59 Z M3.09,64.45 L3.09,65.92 L4.56,65.92 L4.56,64.45 L3.09,64.45 L3.09,64.45 Z M3.09,61.52 L3.09,62.99 L4.56,62.99 L4.56,61.52 L3.09,61.52 L3.09,61.52 Z M3.09,58.58 L3.09,60.05 L4.56,60.05 L4.56,58.58 L3.09,58.58 L3.09,58.58 Z M3.09,55.65 L3.09,57.12 L4.56,57.12 L4.56,55.65 L3.09,55.65 L3.09,55.65 Z M3.09,52.71 L3.09,54.18 L4.56,54.18 L4.56,52.71 L3.09,52.71 L3.09,52.71 Z M3.09,49.78 L3.09,51.25 L4.56,51.25 L4.56,49.78 L3.09,49.78 L3.09,49.78 Z M3.09,46.84 L3.09,48.31 L4.56,48.31 L4.56,46.84 L3.09,46.84 L3.09,46.84 Z M3.09,43.91 L3.09,45.38 L4.56,45.38 L4.56,43.91 L3.09,43.91 L3.09,43.91 Z M3.09,40.97 L3.09,42.44 L4.56,42.44 L4.56,40.97 L3.09,40.97 L3.09,40.97 Z M3.09,38.04 L3.09,39.51 L4.56,39.51 L4.56,38.04 L3.09,38.04 L3.09,38.04 Z M3.09,35.1 L3.09,36.57 L4.56,36.57 L4.56,35.1 L3.09,35.1 L3.09,35.1 Z M3.09,32.17 L3.09,33.64 L4.56,33.64 L4.56,32.17 L3.09,32.17 L3.09,32.17 Z M3.09,29.23 L3.09,30.7 L4.56,30.7 L4.56,29.23 L3.09,29.23 L3.09,29.23 Z M3.09,26.3 L3.09,27.77 L4.56,27.77 L4.56,26.3 L3.09,26.3 L3.09,26.3 Z M3.09,23.36 L3.09,24.83 L4.56,24.83 L4.56,23.36 L3.09,23.36 L3.09,23.36 Z M3.09,20.43 L3.09,21.9 L4.56,21.9 L4.56,20.43 L3.09,20.43 L3.09,20.43 Z M3.09,17.49 L3.09,18.96 L4.56,18.96 L4.56,17.49 L3.09,17.49 L3.09,17.49 Z M3.09,14.56 L3.09,16.03 L4.56,16.03 L4.56,14.56 L3.09,14.56 L3.09,14.56 Z M3.09,11.62 L3.09,13.09 L4.56,13.09 L4.56,11.62 L3.09,11.62 L3.09,11.62 Z M3.09,8.69 L3.09,10.16 L4.56,10.16 L4.56,8.69 L3.09,8.69 L3.09,8.69 Z M3.09,5.75 L3.09,7.22 L4.56,7.22 L4.56,5.75 L3.09,5.75 L3.09,5.75 Z M3.09,2.82 L3.09,4.29 L4.56,4.29 L4.56,2.82 L3.09,2.82 L3.09,2.82 Z M3.09,-0.12 L3.09,1.35 L4.56,1.35 L4.56,-0.12 L3.09,-0.12 L3.09,-0.12 Z M4.56,62.98 L4.56,64.45 L6.03,64.45 L6.03,62.98 L4.56,62.98 L4.56,62.98 Z M4.56,60.05 L4.56,61.52 L6.03,61.52 L6.03,60.05 L4.56,60.05 L4.56,60.05 Z M4.56,57.11 L4.56,58.58 L6.03,58.58 L6.03,57.11 L4.56,57.11 L4.56,57.11 Z M4.56,54.18 L4.56,55.65 L6.03,55.65 L6.03,54.18 L4.56,54.18 L4.56,54.18 Z M4.56,51.24 L4.56,52.71 L6.03,52.71 L6.03,51.24 L4.56,51.24 L4.56,51.24 Z M4.56,48.31 L4.56,49.78 L6.03,49.78 L6.03,48.31 L4.56,48.31 L4.56,48.31 Z M4.56,45.37 L4.56,46.84 L6.03,46.84 L6.03,45.37 L4.56,45.37 L4.56,45.37 Z M4.56,42.44 L4.56,43.91 L6.03,43.91 L6.03,42.44 L4.56,42.44 L4.56,42.44 Z M4.56,39.5 L4.56,40.97 L6.03,40.97 L6.03,39.5 L4.56,39.5 L4.56,39.5 Z M4.56,36.57 L4.56,38.04 L6.03,38.04 L6.03,36.57 L4.56,36.57 L4.56,36.57 Z M4.56,33.63 L4.56,35.1 L6.03,35.1 L6.03,33.63 L4.56,33.63 L4.56,33.63 Z M4.56,30.7 L4.56,32.17 L6.03,32.17 L6.03,30.7 L4.56,30.7 L4.56,30.7 Z M4.56,27.76 L4.56,29.23 L6.03,29.23 L6.03,27.76 L4.56,27.76 L4.56,27.76 Z M4.56,24.83 L4.56,26.3 L6.03,26.3 L6.03,24.83 L4.56,24.83 L4.56,24.83 Z M4.56,21.89 L4.56,23.36 L6.03,23.36 L6.03,21.89 L4.56,21.89 L4.56,21.89 Z M4.56,18.96 L4.56,20.43 L6.03,20.43 L6.03,18.96 L4.56,18.96 L4.56,18.96 Z M4.56,16.02 L4.56,17.49 L6.03,17.49 L6.03,16.02 L4.56,16.02 L4.56,16.02 Z M4.56,13.09 L4.56,14.56 L6.03,14.56 L6.03,13.09 L4.56,13.09 L4.56,13.09 Z M4.56,10.15 L4.56,11.62 L6.03,11.62 L6.03,10.15 L4.56,10.15 L4.56,10.15 Z M4.56,7.22 L4.56,8.69 L6.03,8.69 L6.03,7.22 L4.56,7.22 L4.56,7.22 Z M4.56,4.28 L4.56,5.75 L6.03,5.75 L6.03,4.28 L4.56,4.28 L4.56,4.28 Z M4.56,1.35 L4.56,2.82 L6.03,2.82 L6.03,1.35 L4.56,1.35 L4.56,1.35 Z M4.56,-1.59 L4.56,-0.12 L6.03,-0.12 L6.03,-1.59 L4.56,-1.59 L4.56,-1.59 Z M6.02,64.45 L6.02,65.92 L7.49,65.92 L7.49,64.45 L6.02,64.45 L6.02,64.45 Z M6.02,61.52 L6.02,62.99 L7.49,62.99 L7.49,61.52 L6.02,61.52 L6.02,61.52 Z M6.02,58.58 L6.02,60.05 L7.49,60.05 L7.49,58.58 L6.02,58.58 L6.02,58.58 Z M6.02,55.65 L6.02,57.12 L7.49,57.12 L7.49,55.65 L6.02,55.65 L6.02,55.65 Z M6.02,52.71 L6.02,54.18 L7.49,54.18 L7.49,52.71 L6.02,52.71 L6.02,52.71 Z M6.02,49.78 L6.02,51.25 L7.49,51.25 L7.49,49.78 L6.02,49.78 L6.02,49.78 Z M6.02,46.84 L6.02,48.31 L7.49,48.31 L7.49,46.84 L6.02,46.84 L6.02,46.84 Z M6.02,43.91 L6.02,45.38 L7.49,45.38 L7.49,43.91 L6.02,43.91 L6.02,43.91 Z M6.02,40.97 L6.02,42.44 L7.49,42.44 L7.49,40.97 L6.02,40.97 L6.02,40.97 Z M6.02,38.04 L6.02,39.51 L7.49,39.51 L7.49,38.04 L6.02,38.04 L6.02,38.04 Z M6.02,35.1 L6.02,36.57 L7.49,36.57 L7.49,35.1 L6.02,35.1 L6.02,35.1 Z M6.02,32.17 L6.02,33.64 L7.49,33.64 L7.49,32.17 L6.02,32.17 L6.02,32.17 Z M6.02,29.23 L6.02,30.7 L7.49,30.7 L7.49,29.23 L6.02,29.23 L6.02,29.23 Z M6.02,26.3 L6.02,27.77 L7.49,27.77 L7.49,26.3 L6.02,26.3 L6.02,26.3 Z M6.02,23.36 L6.02,24.83 L7.49,24.83 L7.49,23.36 L6.02,23.36 L6.02,23.36 Z M6.02,20.43 L6.02,21.9 L7.49,21.9 L7.49,20.43 L6.02,20.43 L6.02,20.43 Z M6.02,17.49 L6.02,18.96 L7.49,18.96 L7.49,17.49 L6.02,17.49 L6.02,17.49 Z M6.02,14.56 L6.02,16.03 L7.49,16.03 L7.49,14.56 L6.02,14.56 L6.02,14.56 Z M6.02,11.62 L6.02,13.09 L7.49,13.09 L7.49,11.62 L6.02,11.62 L6.02,11.62 Z M6.02,8.69 L6.02,10.16 L7.49,10.16 L7.49,8.69 L6.02,8.69 L6.02,8.69 Z M6.02,5.75 L6.02,7.22 L7.49,7.22 L7.49,5.75 L6.02,5.75 L6.02,5.75 Z M6.02,2.82 L6.02,4.29 L7.49,4.29 L7.49,2.82 L6.02,2.82 L6.02,2.82 Z M6.02,-0.12 L6.02,1.35 L7.49,1.35 L7.49,-0.12 L6.02,-0.12 L6.02,-0.12 Z M7.49,62.98 L7.49,64.45 L8.96,64.45 L8.96,62.98 L7.49,62.98 L7.49,62.98 Z M7.49,60.05 L7.49,61.52 L8.96,61.52 L8.96,60.05 L7.49,60.05 L7.49,60.05 Z M7.49,57.11 L7.49,58.58 L8.96,58.58 L8.96,57.11 L7.49,57.11 L7.49,57.11 Z M7.49,54.18 L7.49,55.65 L8.96,55.65 L8.96,54.18 L7.49,54.18 L7.49,54.18 Z M7.49,51.24 L7.49,52.71 L8.96,52.71 L8.96,51.24 L7.49,51.24 L7.49,51.24 Z M7.49,48.31 L7.49,49.78 L8.96,49.78 L8.96,48.31 L7.49,48.31 L7.49,48.31 Z M7.49,45.37 L7.49,46.84 L8.96,46.84 L8.96,45.37 L7.49,45.37 L7.49,45.37 Z M7.49,42.44 L7.49,43.91 L8.96,43.91 L8.96,42.44 L7.49,42.44 L7.49,42.44 Z M7.49,39.5 L7.49,40.97 L8.96,40.97 L8.96,39.5 L7.49,39.5 L7.49,39.5 Z M7.49,36.57 L7.49,38.04 L8.96,38.04 L8.96,36.57 L7.49,36.57 L7.49,36.57 Z M7.49,33.63 L7.49,35.1 L8.96,35.1 L8.96,33.63 L7.49,33.63 L7.49,33.63 Z M7.49,30.7 L7.49,32.17 L8.96,32.17 L8.96,30.7 L7.49,30.7 L7.49,30.7 Z M7.49,27.76 L7.49,29.23 L8.96,29.23 L8.96,27.76 L7.49,27.76 L7.49,27.76 Z M7.49,24.83 L7.49,26.3 L8.96,26.3 L8.96,24.83 L7.49,24.83 L7.49,24.83 Z M7.49,21.89 L7.49,23.36 L8.96,23.36 L8.96,21.89 L7.49,21.89 L7.49,21.89 Z M7.49,18.96 L7.49,20.43 L8.96,20.43 L8.96,18.96 L7.49,18.96 L7.49,18.96 Z M7.49,16.02 L7.49,17.49 L8.96,17.49 L8.96,16.02 L7.49,16.02 L7.49,16.02 Z M7.49,13.09 L7.49,14.56 L8.96,14.56 L8.96,13.09 L7.49,13.09 L7.49,13.09 Z M7.49,10.15 L7.49,11.62 L8.96,11.62 L8.96,10.15 L7.49,10.15 L7.49,10.15 Z M7.49,7.22 L7.49,8.69 L8.96,8.69 L8.96,7.22 L7.49,7.22 L7.49,7.22 Z M7.49,4.28 L7.49,5.75 L8.96,5.75 L8.96,4.28 L7.49,4.28 L7.49,4.28 Z M7.49,1.35 L7.49,2.82 L8.96,2.82 L8.96,1.35 L7.49,1.35 L7.49,1.35 Z M7.49,-1.59 L7.49,-0.12 L8.96,-0.12 L8.96,-1.59 L7.49,-1.59 L7.49,-1.59 Z" id="Shape" fill="#2E2E2E" mask="url(#mask-12)"></path>
                    </g>
                    <g>
                        <mask id="mask-14" fill="white">
                            <use xlink:href="#path-13"></use>
                        </mask>
                        <g id="SVGID_8_"></g>
                        <path d="M-0.09,2.54 L-0.09,61.98 C-0.09,64.38 1.99,66.33 4.56,66.33 C7.13,66.33 9.21,64.38 9.21,61.98 L9.21,2.54 C9.21,0.14 7.13,-1.81 4.56,-1.81 C1.99,-1.81 -0.09,0.14 -0.09,2.54 L-0.09,2.54 Z M7.75,2.95 L7.75,61.57 C7.75,63.33 6.32,64.77 4.55,64.77 C2.78,64.77 1.35,63.34 1.35,61.57 L1.35,2.95 C1.35,1.19 2.78,-0.25 4.55,-0.25 C6.32,-0.25 7.75,1.19 7.75,2.95 L7.75,2.95 Z" id="Shape" fill="#000000" opacity="0.2" mask="url(#mask-14)"></path>
                    </g>
                </g>
                <rect id="Rectangle-path" fill="#000000" x="114.62" y="25.28" width="568" height="320"></rect>
            </g>
        </g>
    </g>
</svg>
