<?xml version="1.0" encoding="UTF-8" standalone="no"?>
<svg width="431px" height="877px" viewBox="0 0 431 877" version="1.1" xmlns="http://www.w3.org/2000/svg" xmlns:xlink="http://www.w3.org/1999/xlink">
    <title>iPhone 6</title>
    <defs>
        <linearGradient x1="49.9843147%" y1="-0.0652528548%" x2="49.9843147%" y2="100.081566%" id="linearGradient-1">
            <stop stop-color="#FFFFFF" stop-opacity="0.15" offset="0%"></stop>
            <stop stop-color="#FFFFFF" stop-opacity="0" offset="11.69%"></stop>
            <stop stop-color="#FFFFFF" stop-opacity="0.00509108" offset="87.64%"></stop>
            <stop stop-color="#FFFFFF" stop-opacity="0.15" offset="100%"></stop>
        </linearGradient>
        <linearGradient x1="-28.7505648%" y1="28.4302458%" x2="128.768345%" y2="71.576267%" id="linearGradient-2">
            <stop stop-color="#FFFFFF" stop-opacity="0.15" offset="0%"></stop>
            <stop stop-color="#FFFFFF" stop-opacity="0.05" offset="13.73%"></stop>
            <stop stop-color="#FFFFFF" stop-opacity="0.02" offset="88.31%"></stop>
            <stop stop-color="#FFFFFF" stop-opacity="0.15" offset="100%"></stop>
        </linearGradient>
        <radialGradient cx="50.0657895%" cy="50%" fx="50.0657895%" fy="50%" r="49.6710526%" id="radialGradient-3">
            <stop stop-color="#5D5D5F" offset="0%"></stop>
            <stop stop-color="#333333" stop-opacity="0.8" offset="100%"></stop>
        </radialGradient>
        <radialGradient cx="50.5113431%" cy="57.0965797%" fx="50.5113431%" fy="57.0965797%" r="49.6414474%" id="radialGradient-4">
            <stop stop-color="#000000" stop-opacity="0" offset="0%"></stop>
            <stop stop-color="#020202" stop-opacity="0.4119" offset="51.49%"></stop>
            <stop stop-color="#090909" stop-opacity="0.5603" offset="70.03%"></stop>
            <stop stop-color="#141414" stop-opacity="0.666" offset="83.25%"></stop>
            <stop stop-color="#252525" stop-opacity="0.7509" offset="93.87%"></stop>
            <stop stop-color="#333333" stop-opacity="0.8" offset="100%"></stop>
        </radialGradient>
        <radialGradient cx="47.8584278%" cy="96.1408161%" fx="47.8584278%" fy="96.1408161%" r="95.1797297%" id="radialGradient-5">
            <stop stop-color="#FFFFFF" stop-opacity="0.3" offset="0%"></stop>
            <stop stop-color="#000000" stop-opacity="0" offset="100%"></stop>
        </radialGradient>
        <radialGradient cx="51.01503%" cy="23.676875%" fx="51.01503%" fy="23.676875%" r="58.14%" id="radialGradient-6">
            <stop stop-color="#FFFFFF" stop-opacity="0.3" offset="0%"></stop>
            <stop stop-color="#000000" stop-opacity="0" offset="100%"></stop>
        </radialGradient>
        <linearGradient x1="48.2624993%" y1="6.12081973%" x2="48.2643405%" y2="109.94082%" id="linearGradient-7">
            <stop stop-color="#FFFFFF" stop-opacity="0.6" offset="0%"></stop>
            <stop stop-color="#FFFFFF" stop-opacity="0.1" offset="100%"></stop>
        </linearGradient>
        <path id="path-8" d="M63.8,8.9 L5.2,8.9 C2.8,8.9 0.9,7 0.9,4.6 L0.9,4.6 C0.9,2.2 2.8,0.3 5.2,0.3 L63.8,0.3 C66.2,0.3 68.1,2.2 68.1,4.6 L68.1,4.6 C68.1,7 66.2,8.9 63.8,8.9 L63.8,8.9 Z"></path>
        <linearGradient x1="50.0297245%" y1="100.349273%" x2="50.0297245%" y2="0.581987558%" id="linearGradient-10">
            <stop stop-color="#2E2E31" offset="0%"></stop>
            <stop stop-color="#616161" offset="24.48%"></stop>
            <stop stop-color="#858585" offset="81.37%"></stop>
            <stop stop-color="#2E2E31" offset="100%"></stop>
        </linearGradient>
        <path id="path-11" d="M63.8,8.9 L5.2,8.9 C2.8,8.9 0.9,7 0.9,4.6 L0.9,4.6 C0.9,2.2 2.8,0.3 5.2,0.3 L63.8,0.3 C66.2,0.3 68.1,2.2 68.1,4.6 L68.1,4.6 C68.1,7 66.2,8.9 63.8,8.9 L63.8,8.9 Z"></path>
        <path id="path-13" d="M63.8,8.9 L5.2,8.9 C2.8,8.9 0.9,7 0.9,4.6 L0.9,4.6 C0.9,2.2 2.8,0.3 5.2,0.3 L63.8,0.3 C66.2,0.3 68.1,2.2 68.1,4.6 L68.1,4.6 C68.1,7 66.2,8.9 63.8,8.9 L63.8,8.9 Z"></path>
        <linearGradient x1="86.3503805%" y1="91.9339939%" x2="14.0585997%" y2="8.60320122%" id="linearGradient-15">
            <stop stop-color="#FFFFFF" stop-opacity="0.3" offset="14.7%"></stop>
            <stop stop-color="#FFFFFF" stop-opacity="0" offset="40.73%"></stop>
            <stop stop-color="#FFFFFF" stop-opacity="0.00509108" offset="74.45%"></stop>
            <stop stop-color="#FFFFFF" stop-opacity="0.2" offset="100%"></stop>
        </linearGradient>
        <linearGradient x1="-34.1719072%" y1="-2.09287997%" x2="28.847616%" y2="36.9142223%" id="linearGradient-16">
            <stop stop-color="#FFFFFF" stop-opacity="0.15" offset="0%"></stop>
            <stop stop-color="#FFFFFF" stop-opacity="0" offset="100%"></stop>
        </linearGradient>
    </defs>
    <g id="Page-1" stroke="none" stroke-width="1" fill="none" fill-rule="evenodd">
        <g id="iphone6-portrait" transform="translate(0.000000, 1.000000)">
            <g id="Group">
                <path d="M6,144.5 L2.2,144.5 C1.2,144.5 0.3,143.7 0.3,142.6 L0.3,112.6 C0.3,111.6 1.1,110.7 2.2,110.7 L6,110.7 L6,144.5 L6,144.5 Z" id="Shape" fill="#808086"></path>
                <path d="M0.6,189.7 C0.6,188.7 1.4,187.8 2.5,187.8 L6.2,187.8 L6.2,249 L2.4,249 C1.4,249 0.5,248.2 0.5,247.1" id="Shape" fill="#808086"></path>
                <path d="M424.7,187.2 L428.4,187.2 C429.4,187.2 430.3,188 430.3,189.1 L430.3,246.5 C430.3,247.5 429.5,248.4 428.4,248.4 L424.7,248.4 L424.7,187.2 L424.7,187.2 Z" id="Shape" fill="#818187"></path>
                <path d="M6.2,328.7 L2.4,328.7 C1.4,328.7 0.5,327.9 0.5,326.8 L0.5,269.4 C0.5,268.4 1.3,267.5 2.4,267.5 L6.1,267.5 L6.1,328.7 L6.2,328.7 Z" id="Shape" fill="#808086"></path>
                <path d="M67.7,870.2 C51.8,870.2 36.8,864 25.6,852.7 C14.4,841.4 8.1,826.5 8.1,810.6 L8.1,64.7 C8.1,48.8 14.3,33.8 25.6,22.6 C36.9,11.4 51.8,5.1 67.7,5.1 L362.5,5.1 C378.4,5.1 393.4,11.3 404.6,22.6 C415.8,33.9 422.1,48.8 422.1,64.7 L422.1,810.6 C422.1,826.5 415.9,841.5 404.6,852.7 C393.3,863.9 378.4,870.2 362.5,870.2 L67.7,870.2 L67.7,870.2 L67.7,870.2 Z" id="Shape" fill="#404040"></path>
                <g transform="translate(3.000000, 0.000000)" id="Shape">
                    <path d="M64.9,875.4 C29.1,875.4 0,846.3 0,810.5 L0,64.9 C0,29.1 29.1,0 64.9,0 L359.3,0 C395.1,0 424.2,29.1 424.2,64.9 L424.2,810.5 C424.2,846.3 395.1,875.4 359.3,875.4 L64.9,875.4 L64.9,875.4 L64.9,875.4 Z" stroke-opacity="0.5" stroke="#666666" fill="#B2B2B2"></path>
                    <path d="M359.4,870.4 L64.9,870.4 C31.8,870.4 5,843.6 5,810.5 L5,64.9 C5,31.8 31.8,5 64.9,5 L359.3,5 C392.4,5 419.2,31.8 419.2,64.9 L419.2,810.5 C419.3,843.6 392.5,870.4 359.4,870.4 L359.4,870.4 Z" fill="#262626"></path>
                </g>
                <path d="M362.5,5 L67.7,5 C34.7,5 8,31.7 8,64.7 L8,66.3 C8,33.3 34.8,6.5 67.8,6.5 L362.6,6.5 C395.6,6.5 422.4,33.3 422.4,66.3 L422.4,64.7 C422.3,31.7 395.5,5 362.5,5 L362.5,5 Z" id="Shape" fill="url(#linearGradient-1)"></path>
                <path d="M362.5,8.5 L67.7,8.5 C36.7,8.5 11.5,33.7 11.5,64.7 L11.5,810.6 C11.5,841.6 36.7,866.8 67.7,866.8 L362.5,866.8 C393.5,866.8 418.7,841.6 418.7,810.6 L418.7,64.7 C418.7,33.7 393.5,8.5 362.5,8.5 L362.5,8.5 Z M412.7,810.7 C412.7,838.4 390.2,860.9 362.5,860.9 L67.7,860.9 C40,860.9 17.5,838.4 17.5,810.7 L17.5,64.7 C17.5,37 40,14.5 67.7,14.5 L362.5,14.5 C390.2,14.5 412.7,37 412.7,64.7 L412.7,810.7 L412.7,810.7 Z" id="Shape" fill="url(#linearGradient-2)"></path>
                <g transform="translate(139.000000, 46.000000)">
                    <circle id="Oval" fill="url(#radialGradient-3)" cx="8.2" cy="7.9" r="7.6"></circle>
                    <circle id="Oval" fill="url(#radialGradient-4)" opacity="0.8" cx="8.2" cy="7.9" r="7.6"></circle>
                    <circle id="Oval" fill="#1B1A1F" cx="8.2" cy="7.9" r="5"></circle>
                    <circle id="Oval" fill="#36284C" cx="8.2" cy="7.9" r="3.7"></circle>
                    <circle id="Oval" fill="url(#radialGradient-5)" cx="8.2" cy="7.9" r="3.7"></circle>
                    <g transform="translate(6.000000, 5.000000)" id="Shape">
                        <path d="M4.2,2.9 C4.2,4 3.3,4.9 2.2,4.9 C1.1,4.9 0.2,4 0.2,2.9 C0.2,1.8 1.1,0.9 2.2,0.9 C3.3,0.9 4.2,1.8 4.2,2.9 L4.2,2.9 Z" fill="#141414" opacity="0.5"></path>
                        <path d="M4.2,2.9 C4.2,4 3.3,4.9 2.2,4.9 C1.1,4.9 0.2,4 0.2,2.9 C0.2,1.8 1.1,0.9 2.2,0.9 C3.3,0.9 4.2,1.8 4.2,2.9 L4.2,2.9 Z" fill="url(#radialGradient-6)"></path>
                    </g>
                    <path d="M8.2,6.4 C7.8,6.4 7.4,6.6 7.1,6.9 L7.6,7.4 C7.8,7.2 8,7.1 8.2,7.1 C8.5,7.1 8.7,7.2 8.9,7.4 L9.4,6.9 C9.1,6.6 8.7,6.4 8.2,6.4 L8.2,6.4 Z" id="Shape" fill="url(#linearGradient-7)"></path>
                </g>
                <g transform="translate(181.000000, 50.000000)" id="Clipped">
                    <g>
                        <mask id="mask-9" fill="white">
                            <use xlink:href="#path-8"></use>
                        </mask>
                        <g id="SVGID_8_"></g>
                        <path d="M63.8,8.9 L5.2,8.9 C2.8,8.9 0.9,7 0.9,4.6 L0.9,4.6 C0.9,2.2 2.8,0.3 5.2,0.3 L63.8,0.3 C66.2,0.3 68.1,2.2 68.1,4.6 L68.1,4.6 C68.1,7 66.2,8.9 63.8,8.9 L63.8,8.9 Z" id="Shape" fill="url(#linearGradient-10)" opacity="0.8" mask="url(#mask-9)"></path>
                    </g>
                    <g>
                        <mask id="mask-12" fill="white">
                            <use xlink:href="#path-11"></use>
                        </mask>
                        <g id="SVGID_11_"></g>
                        <path d="M2.3,0.2 L0.8,0.2 L0.8,1.7 L2.3,1.7 L2.3,0.2 L2.3,0.2 Z M5.3,0.2 L3.8,0.2 L3.8,1.7 L5.3,1.7 L5.3,0.2 L5.3,0.2 Z M8.2,0.2 L6.7,0.2 L6.7,1.7 L8.2,1.7 L8.2,0.2 L8.2,0.2 Z M11.1,0.2 L9.6,0.2 L9.6,1.7 L11.1,1.7 L11.1,0.2 L11.1,0.2 Z M14.1,0.2 L12.6,0.2 L12.6,1.7 L14.1,1.7 L14.1,0.2 L14.1,0.2 Z M17,0.2 L15.5,0.2 L15.5,1.7 L17,1.7 L17,0.2 L17,0.2 Z M19.9,0.2 L18.4,0.2 L18.4,1.7 L19.9,1.7 L19.9,0.2 L19.9,0.2 Z M22.9,0.2 L21.4,0.2 L21.4,1.7 L22.9,1.7 L22.9,0.2 L22.9,0.2 Z M25.8,0.2 L24.3,0.2 L24.3,1.7 L25.8,1.7 L25.8,0.2 L25.8,0.2 Z M28.8,0.2 L27.3,0.2 L27.3,1.7 L28.8,1.7 L28.8,0.2 L28.8,0.2 Z M31.7,0.2 L30.2,0.2 L30.2,1.7 L31.7,1.7 L31.7,0.2 L31.7,0.2 Z M34.6,0.2 L33.1,0.2 L33.1,1.7 L34.6,1.7 L34.6,0.2 L34.6,0.2 Z M37.6,0.2 L36.1,0.2 L36.1,1.7 L37.6,1.7 L37.6,0.2 L37.6,0.2 Z M40.5,0.2 L39,0.2 L39,1.7 L40.5,1.7 L40.5,0.2 L40.5,0.2 Z M43.4,0.2 L41.9,0.2 L41.9,1.7 L43.4,1.7 L43.4,0.2 L43.4,0.2 Z M46.4,0.2 L44.9,0.2 L44.9,1.7 L46.4,1.7 L46.4,0.2 L46.4,0.2 Z M49.3,0.2 L47.8,0.2 L47.8,1.7 L49.3,1.7 L49.3,0.2 L49.3,0.2 Z M52.2,0.2 L50.7,0.2 L50.7,1.7 L52.2,1.7 L52.2,0.2 L52.2,0.2 Z M55.2,0.2 L53.7,0.2 L53.7,1.7 L55.2,1.7 L55.2,0.2 L55.2,0.2 Z M58.1,0.2 L56.6,0.2 L56.6,1.7 L58.1,1.7 L58.1,0.2 L58.1,0.2 Z M61,0.2 L59.5,0.2 L59.5,1.7 L61,1.7 L61,0.2 L61,0.2 Z M64,0.2 L62.5,0.2 L62.5,1.7 L64,1.7 L64,0.2 L64,0.2 Z M66.9,0.2 L65.4,0.2 L65.4,1.7 L66.9,1.7 L66.9,0.2 L66.9,0.2 Z M3.8,1.7 L2.3,1.7 L2.3,3.2 L3.8,3.2 L3.8,1.7 L3.8,1.7 Z M6.7,1.7 L5.2,1.7 L5.2,3.2 L6.7,3.2 L6.7,1.7 L6.7,1.7 Z M9.7,1.7 L8.2,1.7 L8.2,3.2 L9.7,3.2 L9.7,1.7 L9.7,1.7 Z M12.6,1.7 L11.1,1.7 L11.1,3.2 L12.6,3.2 L12.6,1.7 L12.6,1.7 Z M15.5,1.7 L14,1.7 L14,3.2 L15.5,3.2 L15.5,1.7 L15.5,1.7 Z M18.5,1.7 L17,1.7 L17,3.2 L18.5,3.2 L18.5,1.7 L18.5,1.7 Z M21.4,1.7 L19.9,1.7 L19.9,3.2 L21.4,3.2 L21.4,1.7 L21.4,1.7 Z M24.3,1.7 L22.8,1.7 L22.8,3.2 L24.3,3.2 L24.3,1.7 L24.3,1.7 Z M27.3,1.7 L25.8,1.7 L25.8,3.2 L27.3,3.2 L27.3,1.7 L27.3,1.7 Z M30.2,1.7 L28.7,1.7 L28.7,3.2 L30.2,3.2 L30.2,1.7 L30.2,1.7 Z M33.1,1.7 L31.6,1.7 L31.6,3.2 L33.1,3.2 L33.1,1.7 L33.1,1.7 Z M36.1,1.7 L34.6,1.7 L34.6,3.2 L36.1,3.2 L36.1,1.7 L36.1,1.7 Z M39,1.7 L37.5,1.7 L37.5,3.2 L39,3.2 L39,1.7 L39,1.7 Z M41.9,1.7 L40.4,1.7 L40.4,3.2 L41.9,3.2 L41.9,1.7 L41.9,1.7 Z M44.9,1.7 L43.4,1.7 L43.4,3.2 L44.9,3.2 L44.9,1.7 L44.9,1.7 Z M47.8,1.7 L46.3,1.7 L46.3,3.2 L47.8,3.2 L47.8,1.7 L47.8,1.7 Z M50.8,1.7 L49.3,1.7 L49.3,3.2 L50.8,3.2 L50.8,1.7 L50.8,1.7 Z M53.7,1.7 L52.2,1.7 L52.2,3.2 L53.7,3.2 L53.7,1.7 L53.7,1.7 Z M56.6,1.7 L55.1,1.7 L55.1,3.2 L56.6,3.2 L56.6,1.7 L56.6,1.7 Z M59.6,1.7 L58.1,1.7 L58.1,3.2 L59.6,3.2 L59.6,1.7 L59.6,1.7 Z M62.5,1.7 L61,1.7 L61,3.2 L62.5,3.2 L62.5,1.7 L62.5,1.7 Z M65.4,1.7 L64,1.7 L64,3.2 L65.5,3.2 L65.5,1.7 L65.4,1.7 Z M68.4,1.7 L66.9,1.7 L66.9,3.2 L68.4,3.2 L68.4,1.7 L68.4,1.7 Z M2.3,3.2 L0.8,3.2 L0.8,4.7 L2.3,4.7 L2.3,3.2 L2.3,3.2 Z M5.3,3.2 L3.8,3.2 L3.8,4.7 L5.3,4.7 L5.3,3.2 L5.3,3.2 Z M8.2,3.2 L6.7,3.2 L6.7,4.7 L8.2,4.7 L8.2,3.2 L8.2,3.2 Z M11.1,3.2 L9.6,3.2 L9.6,4.7 L11.1,4.7 L11.1,3.2 L11.1,3.2 Z M14.1,3.2 L12.6,3.2 L12.6,4.7 L14.1,4.7 L14.1,3.2 L14.1,3.2 Z M17,3.2 L15.5,3.2 L15.5,4.7 L17,4.7 L17,3.2 L17,3.2 Z M19.9,3.2 L18.4,3.2 L18.4,4.7 L19.9,4.7 L19.9,3.2 L19.9,3.2 Z M22.9,3.2 L21.4,3.2 L21.4,4.7 L22.9,4.7 L22.9,3.2 L22.9,3.2 Z M25.8,3.2 L24.3,3.2 L24.3,4.7 L25.8,4.7 L25.8,3.2 L25.8,3.2 Z M28.8,3.2 L27.3,3.2 L27.3,4.7 L28.8,4.7 L28.8,3.2 L28.8,3.2 Z M31.7,3.2 L30.2,3.2 L30.2,4.7 L31.7,4.7 L31.7,3.2 L31.7,3.2 Z M34.6,3.2 L33.1,3.2 L33.1,4.7 L34.6,4.7 L34.6,3.2 L34.6,3.2 Z M37.6,3.2 L36.1,3.2 L36.1,4.7 L37.6,4.7 L37.6,3.2 L37.6,3.2 Z M40.5,3.2 L39,3.2 L39,4.7 L40.5,4.7 L40.5,3.2 L40.5,3.2 Z M43.4,3.2 L41.9,3.2 L41.9,4.7 L43.4,4.7 L43.4,3.2 L43.4,3.2 Z M46.4,3.2 L44.9,3.2 L44.9,4.7 L46.4,4.7 L46.4,3.2 L46.4,3.2 Z M49.3,3.2 L47.8,3.2 L47.8,4.7 L49.3,4.7 L49.3,3.2 L49.3,3.2 Z M52.2,3.2 L50.7,3.2 L50.7,4.7 L52.2,4.7 L52.2,3.2 L52.2,3.2 Z M55.2,3.2 L53.7,3.2 L53.7,4.7 L55.2,4.7 L55.2,3.2 L55.2,3.2 Z M58.1,3.2 L56.6,3.2 L56.6,4.7 L58.1,4.7 L58.1,3.2 L58.1,3.2 Z M61,3.2 L59.5,3.2 L59.5,4.7 L61,4.7 L61,3.2 L61,3.2 Z M64,3.2 L62.5,3.2 L62.5,4.7 L64,4.7 L64,3.2 L64,3.2 Z M66.9,3.2 L65.4,3.2 L65.4,4.7 L66.9,4.7 L66.9,3.2 L66.9,3.2 Z M3.8,4.7 L2.3,4.7 L2.3,6.2 L3.8,6.2 L3.8,4.7 L3.8,4.7 Z M6.7,4.7 L5.2,4.7 L5.2,6.2 L6.7,6.2 L6.7,4.7 L6.7,4.7 Z M9.7,4.7 L8.2,4.7 L8.2,6.2 L9.7,6.2 L9.7,4.7 L9.7,4.7 Z M12.6,4.7 L11.1,4.7 L11.1,6.2 L12.6,6.2 L12.6,4.7 L12.6,4.7 Z M15.5,4.7 L14,4.7 L14,6.2 L15.5,6.2 L15.5,4.7 L15.5,4.7 Z M18.5,4.7 L17,4.7 L17,6.2 L18.5,6.2 L18.5,4.7 L18.5,4.7 Z M21.4,4.7 L19.9,4.7 L19.9,6.2 L21.4,6.2 L21.4,4.7 L21.4,4.7 Z M24.3,4.7 L22.8,4.7 L22.8,6.2 L24.3,6.2 L24.3,4.7 L24.3,4.7 Z M27.3,4.7 L25.8,4.7 L25.8,6.2 L27.3,6.2 L27.3,4.7 L27.3,4.7 Z M30.2,4.7 L28.7,4.7 L28.7,6.2 L30.2,6.2 L30.2,4.7 L30.2,4.7 Z M33.1,4.7 L31.6,4.7 L31.6,6.2 L33.1,6.2 L33.1,4.7 L33.1,4.7 Z M36.1,4.7 L34.6,4.7 L34.6,6.2 L36.1,6.2 L36.1,4.7 L36.1,4.7 Z M39,4.7 L37.5,4.7 L37.5,6.2 L39,6.2 L39,4.7 L39,4.7 Z M41.9,4.7 L40.4,4.7 L40.4,6.2 L41.9,6.2 L41.9,4.7 L41.9,4.7 Z M44.9,4.7 L43.4,4.7 L43.4,6.2 L44.9,6.2 L44.9,4.7 L44.9,4.7 Z M47.8,4.7 L46.3,4.7 L46.3,6.2 L47.8,6.2 L47.8,4.7 L47.8,4.7 Z M50.8,4.7 L49.3,4.7 L49.3,6.2 L50.8,6.2 L50.8,4.7 L50.8,4.7 Z M53.7,4.7 L52.2,4.7 L52.2,6.2 L53.7,6.2 L53.7,4.7 L53.7,4.7 Z M56.6,4.7 L55.1,4.7 L55.1,6.2 L56.6,6.2 L56.6,4.7 L56.6,4.7 Z M59.6,4.7 L58.1,4.7 L58.1,6.2 L59.6,6.2 L59.6,4.7 L59.6,4.7 Z M62.5,4.7 L61,4.7 L61,6.2 L62.5,6.2 L62.5,4.7 L62.5,4.7 Z M65.4,4.7 L64,4.7 L64,6.2 L65.5,6.2 L65.5,4.7 L65.4,4.7 Z M68.4,4.7 L66.9,4.7 L66.9,6.2 L68.4,6.2 L68.4,4.7 L68.4,4.7 Z M2.3,6.1 L0.8,6.1 L0.8,7.6 L2.3,7.6 L2.3,6.1 L2.3,6.1 Z M5.3,6.1 L3.8,6.1 L3.8,7.6 L5.3,7.6 L5.3,6.1 L5.3,6.1 Z M8.2,6.1 L6.7,6.1 L6.7,7.6 L8.2,7.6 L8.2,6.1 L8.2,6.1 Z M11.1,6.1 L9.6,6.1 L9.6,7.6 L11.1,7.6 L11.1,6.1 L11.1,6.1 Z M14.1,6.1 L12.6,6.1 L12.6,7.6 L14.1,7.6 L14.1,6.1 L14.1,6.1 Z M17,6.1 L15.5,6.1 L15.5,7.6 L17,7.6 L17,6.1 L17,6.1 Z M19.9,6.1 L18.4,6.1 L18.4,7.6 L19.9,7.6 L19.9,6.1 L19.9,6.1 Z M22.9,6.1 L21.4,6.1 L21.4,7.6 L22.9,7.6 L22.9,6.1 L22.9,6.1 Z M25.8,6.1 L24.3,6.1 L24.3,7.6 L25.8,7.6 L25.8,6.1 L25.8,6.1 Z M28.8,6.1 L27.3,6.1 L27.3,7.6 L28.8,7.6 L28.8,6.1 L28.8,6.1 Z M31.7,6.1 L30.2,6.1 L30.2,7.6 L31.7,7.6 L31.7,6.1 L31.7,6.1 Z M34.6,6.1 L33.1,6.1 L33.1,7.6 L34.6,7.6 L34.6,6.1 L34.6,6.1 Z M37.6,6.1 L36.1,6.1 L36.1,7.6 L37.6,7.6 L37.6,6.1 L37.6,6.1 Z M40.5,6.1 L39,6.1 L39,7.6 L40.5,7.6 L40.5,6.1 L40.5,6.1 Z M43.4,6.1 L41.9,6.1 L41.9,7.6 L43.4,7.6 L43.4,6.1 L43.4,6.1 Z M46.4,6.1 L44.9,6.1 L44.9,7.6 L46.4,7.6 L46.4,6.1 L46.4,6.1 Z M49.3,6.1 L47.8,6.1 L47.8,7.6 L49.3,7.6 L49.3,6.1 L49.3,6.1 Z M52.2,6.1 L50.7,6.1 L50.7,7.6 L52.2,7.6 L52.2,6.1 L52.2,6.1 Z M55.2,6.1 L53.7,6.1 L53.7,7.6 L55.2,7.6 L55.2,6.1 L55.2,6.1 Z M58.1,6.1 L56.6,6.1 L56.6,7.6 L58.1,7.6 L58.1,6.1 L58.1,6.1 Z M61,6.1 L59.5,6.1 L59.5,7.6 L61,7.6 L61,6.1 L61,6.1 Z M64,6.1 L62.5,6.1 L62.5,7.6 L64,7.6 L64,6.1 L64,6.1 Z M66.9,6.1 L65.4,6.1 L65.4,7.6 L66.9,7.6 L66.9,6.1 L66.9,6.1 Z M3.8,7.6 L2.3,7.6 L2.3,9.1 L3.8,9.1 L3.8,7.6 L3.8,7.6 Z M6.7,7.6 L5.2,7.6 L5.2,9.1 L6.7,9.1 L6.7,7.6 L6.7,7.6 Z M9.7,7.6 L8.2,7.6 L8.2,9.1 L9.7,9.1 L9.7,7.6 L9.7,7.6 Z M12.6,7.6 L11.1,7.6 L11.1,9.1 L12.6,9.1 L12.6,7.6 L12.6,7.6 Z M15.5,7.6 L14,7.6 L14,9.1 L15.5,9.1 L15.5,7.6 L15.5,7.6 Z M18.5,7.6 L17,7.6 L17,9.1 L18.5,9.1 L18.5,7.6 L18.5,7.6 Z M21.4,7.6 L19.9,7.6 L19.9,9.1 L21.4,9.1 L21.4,7.6 L21.4,7.6 Z M24.3,7.6 L22.8,7.6 L22.8,9.1 L24.3,9.1 L24.3,7.6 L24.3,7.6 Z M27.3,7.6 L25.8,7.6 L25.8,9.1 L27.3,9.1 L27.3,7.6 L27.3,7.6 Z M30.2,7.6 L28.7,7.6 L28.7,9.1 L30.2,9.1 L30.2,7.6 L30.2,7.6 Z M33.1,7.6 L31.6,7.6 L31.6,9.1 L33.1,9.1 L33.1,7.6 L33.1,7.6 Z M36.1,7.6 L34.6,7.6 L34.6,9.1 L36.1,9.1 L36.1,7.6 L36.1,7.6 Z M39,7.6 L37.5,7.6 L37.5,9.1 L39,9.1 L39,7.6 L39,7.6 Z M41.9,7.6 L40.4,7.6 L40.4,9.1 L41.9,9.1 L41.9,7.6 L41.9,7.6 Z M44.9,7.6 L43.4,7.6 L43.4,9.1 L44.9,9.1 L44.9,7.6 L44.9,7.6 Z M47.8,7.6 L46.3,7.6 L46.3,9.1 L47.8,9.1 L47.8,7.6 L47.8,7.6 Z M50.8,7.6 L49.3,7.6 L49.3,9.1 L50.8,9.1 L50.8,7.6 L50.8,7.6 Z M53.7,7.6 L52.2,7.6 L52.2,9.1 L53.7,9.1 L53.7,7.6 L53.7,7.6 Z M56.6,7.6 L55.1,7.6 L55.1,9.1 L56.6,9.1 L56.6,7.6 L56.6,7.6 Z M59.6,7.6 L58.1,7.6 L58.1,9.1 L59.6,9.1 L59.6,7.6 L59.6,7.6 Z M62.5,7.6 L61,7.6 L61,9.1 L62.5,9.1 L62.5,7.6 L62.5,7.6 Z M65.4,7.6 L64,7.6 L64,9.1 L65.5,9.1 L65.5,7.6 L65.4,7.6 Z M68.4,7.6 L66.9,7.6 L66.9,9.1 L68.4,9.1 L68.4,7.6 L68.4,7.6 Z" id="Shape" fill="#2E2E2E" mask="url(#mask-12)"></path>
                    </g>
                    <g>
                        <mask id="mask-14" fill="white">
                            <use xlink:href="#path-13"></use>
                        </mask>
                        <g id="SVGID_13_"></g>
                        <path d="M64.2,0 L4.8,0 C2.4,0 0.4,2.1 0.4,4.7 C0.4,7.3 2.3,9.4 4.8,9.4 L64.2,9.4 C66.6,9.4 68.5,7.3 68.5,4.7 C68.5,2.1 66.6,0 64.2,0 L64.2,0 Z M63.8,7.8 L5.2,7.8 C3.4,7.8 2,6.4 2,4.6 C2,2.8 3.4,1.4 5.2,1.4 L63.8,1.4 C65.6,1.4 67,2.8 67,4.6 C67,6.4 65.6,7.8 63.8,7.8 L63.8,7.8 Z" id="Shape" fill="#000000" opacity="0.2" mask="url(#mask-14)"></path>
                    </g>
                </g>
                <path d="M215.1,787.2 C197,787.2 182.3,801.9 182.3,820 C182.3,838.1 197,852.8 215.1,852.8 C233.2,852.8 248,838.1 248,820 C248,801.9 233.3,787.2 215.1,787.2 L215.1,787.2 Z M215.1,849.8 C198.6,849.8 185.3,836.5 185.3,820 C185.3,803.5 198.7,790.2 215.1,790.2 C231.5,790.2 245,803.5 245,820 C245,836.5 231.6,849.8 215.1,849.8 L215.1,849.8 Z" id="Shape" fill="url(#linearGradient-15)"></path>
                <path d="M70.3,8.5 C38.2,8.5 12.2,34.5 12.2,66.6 L12.2,571.7 L322.6,8.5 L70.3,8.5 L70.3,8.5 Z" id="Shape" fill="url(#linearGradient-16)"></path>
            </g>
            <rect id="Rectangle-path" fill="#000000" x="27" y="105" width="375" height="667"></rect>
        </g>
    </g>
</svg>
