<?xml version="1.0" encoding="UTF-8" standalone="no"?>
<svg width="956px" height="470px" viewBox="0 0 956 470" version="1.1" xmlns="http://www.w3.org/2000/svg" xmlns:xlink="http://www.w3.org/1999/xlink">
    <title>iPhone 6 Plus</title>
    <defs>
        <linearGradient x1="-0.00325805225%" y1="49.9995377%" x2="99.9938099%" y2="49.9995377%" id="linearGradient-1">
            <stop stop-color="#FFFFFF" stop-opacity="0.15" offset="0%"></stop>
            <stop stop-color="#FFFFFF" stop-opacity="0" offset="11.69%"></stop>
            <stop stop-color="#FFFFFF" stop-opacity="0.00509108" offset="87.64%"></stop>
            <stop stop-color="#FFFFFF" stop-opacity="0.15" offset="100%"></stop>
        </linearGradient>
        <linearGradient x1="28.2585006%" y1="128.845717%" x2="71.7414993%" y2="-28.8467008%" id="linearGradient-2">
            <stop stop-color="#FFFFFF" stop-opacity="0.15" offset="0%"></stop>
            <stop stop-color="#FFFFFF" stop-opacity="0.05" offset="13.73%"></stop>
            <stop stop-color="#FFFFFF" stop-opacity="0.02" offset="88.31%"></stop>
            <stop stop-color="#FFFFFF" stop-opacity="0.15" offset="100%"></stop>
        </linearGradient>
        <radialGradient cx="49.9966887%" cy="50.018543%" fx="49.9966887%" fy="50.018543%" r="49.9807947%" id="radialGradient-3">
            <stop stop-color="#5D5D5F" offset="0%"></stop>
            <stop stop-color="#333333" stop-opacity="0.8" offset="100%"></stop>
        </radialGradient>
        <radialGradient cx="50.4421581%" cy="57.1386068%" fx="50.4421581%" fy="57.1386068%" r="49.9701987%" id="radialGradient-4">
            <stop stop-color="#000000" stop-opacity="0" offset="0%"></stop>
            <stop stop-color="#020202" stop-opacity="0.4119" offset="51.49%"></stop>
            <stop stop-color="#090909" stop-opacity="0.5603" offset="70.03%"></stop>
            <stop stop-color="#141414" stop-opacity="0.666" offset="83.25%"></stop>
            <stop stop-color="#252525" stop-opacity="0.7509" offset="93.87%"></stop>
            <stop stop-color="#333333" stop-opacity="0.8" offset="100%"></stop>
        </radialGradient>
        <radialGradient cx="47.5719202%" cy="96.4177227%" fx="47.5719202%" fy="96.4177227%" r="95.6970109%" id="radialGradient-5">
            <stop stop-color="#FFFFFF" stop-opacity="0.3" offset="0%"></stop>
            <stop stop-color="#000000" stop-opacity="0" offset="100%"></stop>
        </radialGradient>
        <radialGradient cx="50.5042293%" cy="23.9851238%" fx="50.5042293%" fy="23.9851238%" r="57.5643564%" id="radialGradient-6">
            <stop stop-color="#FFFFFF" stop-opacity="0.3" offset="0%"></stop>
            <stop stop-color="#000000" stop-opacity="0" offset="100%"></stop>
        </radialGradient>
        <linearGradient x1="49.5644397%" y1="8.31811466%" x2="49.56633%" y2="112.128115%" id="linearGradient-7">
            <stop stop-color="#FFFFFF" stop-opacity="0.6" offset="0%"></stop>
            <stop stop-color="#FFFFFF" stop-opacity="0.1" offset="100%"></stop>
        </linearGradient>
        <path id="path-8" d="M9.22,4.58 L9.22,63.2 C9.22,65.57 7.3,67.49 4.93,67.49 L4.93,67.49 C2.56,67.49 0.64,65.57 0.64,63.2 L0.64,4.58 C0.64,2.21 2.56,0.29 4.93,0.29 L4.93,0.29 C7.3,0.3 9.22,2.22 9.22,4.58 L9.22,4.58 Z"></path>
        <linearGradient x1="101.420118%" y1="50.1973043%" x2="1.49257867%" y2="50.1973043%" id="linearGradient-10">
            <stop stop-color="#2E2E31" offset="0%"></stop>
            <stop stop-color="#616161" offset="24.48%"></stop>
            <stop stop-color="#858585" offset="81.37%"></stop>
            <stop stop-color="#2E2E31" offset="100%"></stop>
        </linearGradient>
        <path id="path-11" d="M9.22,4.58 L9.22,63.2 C9.22,65.57 7.3,67.49 4.93,67.49 L4.93,67.49 C2.56,67.49 0.64,65.57 0.64,63.2 L0.64,4.58 C0.64,2.21 2.56,0.29 4.93,0.29 L4.93,0.29 C7.3,0.3 9.22,2.22 9.22,4.58 L9.22,4.58 Z"></path>
        <path id="path-13" d="M9.22,4.58 L9.22,63.2 C9.22,65.57 7.3,67.49 4.93,67.49 L4.93,67.49 C2.56,67.49 0.64,65.57 0.64,63.2 L0.64,4.58 C0.64,2.21 2.56,0.29 4.93,0.29 L4.93,0.29 C7.3,0.3 9.22,2.22 9.22,4.58 L9.22,4.58 Z"></path>
        <linearGradient x1="91.876637%" y1="13.615443%" x2="8.6218396%" y2="85.9514161%" id="linearGradient-15">
            <stop stop-color="#FFFFFF" stop-opacity="0.3" offset="14.7%"></stop>
            <stop stop-color="#FFFFFF" stop-opacity="0" offset="40.73%"></stop>
            <stop stop-color="#FFFFFF" stop-opacity="0.00509108" offset="74.45%"></stop>
            <stop stop-color="#FFFFFF" stop-opacity="0.2" offset="100%"></stop>
        </linearGradient>
        <linearGradient x1="5.94928391%" y1="2.26524773%" x2="44.6162595%" y2="41.2217771%" id="linearGradient-16">
            <stop stop-color="#FFFFFF" stop-opacity="0.15" offset="0%"></stop>
            <stop stop-color="#FFFFFF" stop-opacity="0" offset="100%"></stop>
        </linearGradient>
    </defs>
    <g id="Page-1" stroke="none" stroke-width="1" fill="none" fill-rule="evenodd">
        <g id="iphone6plus-landscape" transform="translate(1.000000, 0.000000)">
            <g id="Group">
                <g>
                    <g>
                        <path d="M144.74,464.27 L144.74,467.99 C144.74,469.02 143.91,469.85 142.88,469.85 L112.92,469.85 C111.89,469.85 111.06,469.02 111.06,467.99 L111.06,464.27 L144.74,464.27 L144.74,464.27 Z" id="Shape" fill="#808086"></path>
                        <path d="M187.97,469.85 C186.94,469.85 186.11,469.02 186.11,467.99 L186.11,464.27 L247.24,464.27 L247.24,467.99 C247.24,469.02 246.41,469.85 245.38,469.85" id="Shape" fill="#808086"></path>
                        <path d="M262.73,469.85 C261.7,469.85 260.87,469.02 260.87,467.99 L260.87,464.27 L322,464.27 L322,467.99 C322,469.02 321.17,469.85 320.14,469.85" id="Shape" fill="#808086"></path>
                        <path d="M187.47,5.73 L187.47,2.01 C187.47,0.98 188.3,0.15 189.33,0.15 L246.74,0.15 C247.77,0.15 248.6,0.98 248.6,2.01 L248.6,5.73 L187.47,5.73 L187.47,5.73 Z" id="Shape" fill="#818187"></path>
                        <path d="M65.18,467.44 C29.37,467.44 0.24,438.31 0.24,402.51 L0.24,68.05 C0.24,32.24 29.37,3.11 65.18,3.11 L888.81,3.11 C924.62,3.11 953.75,32.24 953.75,68.05 L953.75,402.5 C953.75,438.31 924.62,467.43 888.81,467.43 L65.18,467.43 L65.18,467.44 Z" id="Shape" stroke-opacity="0.5" stroke="#666666" fill="#B2B2B2"></path>
                        <path d="M948.57,402.69 C948.57,418.6 942.37,433.56 931.12,444.81 C919.87,456.06 904.91,462.26 889,462.26 L65,462.26 C49.09,462.26 34.13,456.06 22.88,444.81 C11.63,433.56 5.43,418.6 5.43,402.69 L5.43,67.86 C5.43,51.95 11.63,36.99 22.88,25.74 C34.13,14.49 49.09,8.29 65,8.29 L889,8.29 C904.91,8.29 919.87,14.49 931.12,25.74 C942.37,36.99 948.57,51.95 948.57,67.86 L948.57,402.69 L948.57,402.69 Z" id="Shape" fill="#404040"></path>
                        <path d="M948.75,68.05 L948.75,402.5 C948.75,435.6 921.92,462.44 888.81,462.44 L65.18,462.44 C32.08,462.44 5.24,435.61 5.24,402.5 L5.24,68.05 C5.24,34.95 32.07,8.11 65.18,8.11 L888.81,8.11 C921.92,8.11 948.75,34.94 948.75,68.05 L948.75,68.05 Z" id="Shape" fill="#262626"></path>
                        <path d="M5.25,67.86 L5.25,402.69 C5.25,435.69 32,462.44 65,462.44 L66.64,462.44 C33.64,462.44 6.89,435.69 6.89,402.69 L6.89,67.86 C6.89,34.86 33.64,8.11 66.64,8.11 L65,8.11 C32,8.11 5.25,34.86 5.25,67.86 L5.25,67.86 Z" id="Shape" fill="url(#linearGradient-1)"></path>
                        <path d="M8.8,67.86 L8.8,402.69 C8.8,433.68 34.01,458.89 65,458.89 L889,458.89 C919.99,458.89 945.2,433.68 945.2,402.69 L945.2,67.86 C945.2,36.87 919.99,11.66 889,11.66 L65,11.66 C34.01,11.66 8.8,36.87 8.8,67.86 L8.8,67.86 Z M889,17.66 C916.68,17.66 939.2,40.18 939.2,67.86 L939.2,402.69 C939.2,430.37 916.68,452.89 889,452.89 L65,452.89 C37.32,452.89 14.8,430.37 14.8,402.69 L14.8,67.86 C14.8,40.18 37.32,17.66 65,17.66 L889,17.66 L889,17.66 Z" id="Shape" fill="url(#linearGradient-2)"></path>
                        <g transform="translate(46.000000, 295.000000)">
                            <circle id="Oval" fill="url(#radialGradient-3)" cx="8.19" cy="8.2" r="7.55"></circle>
                            <circle id="Oval" fill="url(#radialGradient-4)" opacity="0.8" cx="8.19" cy="8.2" r="7.55"></circle>
                            <circle id="Oval" fill="#1B1A1F" cx="8.19" cy="8.2" r="5.03"></circle>
                            <circle id="Oval" fill="#36284C" cx="8.19" cy="8.2" r="3.68"></circle>
                            <circle id="Oval" fill="url(#radialGradient-5)" cx="8.19" cy="8.2" r="3.68"></circle>
                            <g transform="translate(6.000000, 6.000000)" id="Shape">
                                <path d="M4.21,2.2 C4.21,3.32 3.3,4.22 2.19,4.22 C1.07,4.22 0.17,3.31 0.17,2.2 C0.17,1.08 1.08,0.18 2.19,0.18 C3.31,0.18 4.21,1.09 4.21,2.2 L4.21,2.2 Z" fill="#141414" opacity="0.5"></path>
                                <path d="M4.21,2.2 C4.21,3.32 3.3,4.22 2.19,4.22 C1.07,4.22 0.17,3.31 0.17,2.2 C0.17,1.08 1.08,0.18 2.19,0.18 C3.31,0.18 4.21,1.09 4.21,2.2 L4.21,2.2 Z" fill="url(#radialGradient-6)"></path>
                            </g>
                            <path d="M8.19,6.68 C7.74,6.68 7.35,6.88 7.07,7.19 L7.54,7.66 C7.7,7.47 7.92,7.35 8.18,7.35 C8.45,7.35 8.68,7.49 8.84,7.68 L9.31,7.2 C9.04,6.9 8.65,6.68 8.19,6.68 L8.19,6.68 Z" id="Shape" fill="url(#linearGradient-7)"></path>
                        </g>
                        <g transform="translate(50.000000, 201.000000)" id="Clipped">
                            <g>
                                <mask id="mask-9" fill="white">
                                    <use xlink:href="#path-8"></use>
                                </mask>
                                <g id="SVGID_8_"></g>
                                <path d="M9.22,4.58 L9.22,63.2 C9.22,65.57 7.3,67.49 4.93,67.49 L4.93,67.49 C2.56,67.49 0.64,65.57 0.64,63.2 L0.64,4.58 C0.64,2.21 2.56,0.29 4.93,0.29 L4.93,0.29 C7.3,0.3 9.22,2.22 9.22,4.58 L9.22,4.58 Z" id="Shape" fill="url(#linearGradient-10)" opacity="0.8" mask="url(#mask-9)"></path>
                            </g>
                            <g>
                                <mask id="mask-12" fill="white">
                                    <use xlink:href="#path-11"></use>
                                </mask>
                                <g id="SVGID_8_"></g>
                                <path d="M0.53,66.08 L0.53,67.55 L2,67.55 L2,66.08 L0.53,66.08 L0.53,66.08 Z M0.53,63.15 L0.53,64.62 L2,64.62 L2,63.15 L0.53,63.15 L0.53,63.15 Z M0.53,60.21 L0.53,61.68 L2,61.68 L2,60.21 L0.53,60.21 L0.53,60.21 Z M0.53,57.28 L0.53,58.75 L2,58.75 L2,57.28 L0.53,57.28 L0.53,57.28 Z M0.53,54.34 L0.53,55.81 L2,55.81 L2,54.34 L0.53,54.34 L0.53,54.34 Z M0.53,51.41 L0.53,52.88 L2,52.88 L2,51.41 L0.53,51.41 L0.53,51.41 Z M0.53,48.47 L0.53,49.94 L2,49.94 L2,48.47 L0.53,48.47 L0.53,48.47 Z M0.53,45.54 L0.53,47.01 L2,47.01 L2,45.54 L0.53,45.54 L0.53,45.54 Z M0.53,42.6 L0.53,44.07 L2,44.07 L2,42.6 L0.53,42.6 L0.53,42.6 Z M0.53,39.67 L0.53,41.14 L2,41.14 L2,39.67 L0.53,39.67 L0.53,39.67 Z M0.53,36.73 L0.53,38.2 L2,38.2 L2,36.73 L0.53,36.73 L0.53,36.73 Z M0.53,33.8 L0.53,35.27 L2,35.27 L2,33.8 L0.53,33.8 L0.53,33.8 Z M0.53,30.86 L0.53,32.33 L2,32.33 L2,30.86 L0.53,30.86 L0.53,30.86 Z M0.53,27.93 L0.53,29.4 L2,29.4 L2,27.93 L0.53,27.93 L0.53,27.93 Z M0.53,24.99 L0.53,26.46 L2,26.46 L2,24.99 L0.53,24.99 L0.53,24.99 Z M0.53,22.06 L0.53,23.53 L2,23.53 L2,22.06 L0.53,22.06 L0.53,22.06 Z M0.53,19.12 L0.53,20.59 L2,20.59 L2,19.12 L0.53,19.12 L0.53,19.12 Z M0.53,16.19 L0.53,17.66 L2,17.66 L2,16.19 L0.53,16.19 L0.53,16.19 Z M0.53,13.25 L0.53,14.72 L2,14.72 L2,13.25 L0.53,13.25 L0.53,13.25 Z M0.53,10.32 L0.53,11.79 L2,11.79 L2,10.32 L0.53,10.32 L0.53,10.32 Z M0.53,7.38 L0.53,8.85 L2,8.85 L2,7.38 L0.53,7.38 L0.53,7.38 Z M0.53,4.45 L0.53,5.92 L2,5.92 L2,4.45 L0.53,4.45 L0.53,4.45 Z M0.53,1.51 L0.53,2.98 L2,2.98 L2,1.51 L0.53,1.51 L0.53,1.51 Z M2,64.61 L2,66.08 L3.47,66.08 L3.47,64.61 L2,64.61 L2,64.61 Z M2,61.68 L2,63.15 L3.47,63.15 L3.47,61.68 L2,61.68 L2,61.68 Z M2,58.74 L2,60.21 L3.47,60.21 L3.47,58.74 L2,58.74 L2,58.74 Z M2,55.81 L2,57.28 L3.47,57.28 L3.47,55.81 L2,55.81 L2,55.81 Z M2,52.87 L2,54.34 L3.47,54.34 L3.47,52.87 L2,52.87 L2,52.87 Z M2,49.94 L2,51.41 L3.47,51.41 L3.47,49.94 L2,49.94 L2,49.94 Z M2,47.01 L2,48.48 L3.47,48.48 L3.47,47.01 L2,47.01 L2,47.01 Z M2,44.07 L2,45.54 L3.47,45.54 L3.47,44.07 L2,44.07 L2,44.07 Z M2,41.14 L2,42.61 L3.47,42.61 L3.47,41.14 L2,41.14 L2,41.14 Z M2,38.2 L2,39.67 L3.47,39.67 L3.47,38.2 L2,38.2 L2,38.2 Z M2,35.27 L2,36.74 L3.47,36.74 L3.47,35.27 L2,35.27 L2,35.27 Z M2,32.33 L2,33.8 L3.47,33.8 L3.47,32.33 L2,32.33 L2,32.33 Z M2,29.4 L2,30.87 L3.47,30.87 L3.47,29.4 L2,29.4 L2,29.4 Z M2,26.46 L2,27.93 L3.47,27.93 L3.47,26.46 L2,26.46 L2,26.46 Z M2,23.53 L2,25 L3.47,25 L3.47,23.53 L2,23.53 L2,23.53 Z M2,20.59 L2,22.06 L3.47,22.06 L3.47,20.59 L2,20.59 L2,20.59 Z M2,17.66 L2,19.13 L3.47,19.13 L3.47,17.66 L2,17.66 L2,17.66 Z M2,14.72 L2,16.19 L3.47,16.19 L3.47,14.72 L2,14.72 L2,14.72 Z M2,11.79 L2,13.26 L3.47,13.26 L3.47,11.79 L2,11.79 L2,11.79 Z M2,8.85 L2,10.32 L3.47,10.32 L3.47,8.85 L2,8.85 L2,8.85 Z M2,5.92 L2,7.39 L3.47,7.39 L3.47,5.92 L2,5.92 L2,5.92 Z M2,2.98 L2,4.45 L3.47,4.45 L3.47,2.98 L2,2.98 L2,2.98 Z M2,0.05 L2,1.52 L3.47,1.52 L3.47,0.05 L2,0.05 L2,0.05 Z M3.46,66.08 L3.46,67.55 L4.93,67.55 L4.93,66.08 L3.46,66.08 L3.46,66.08 Z M3.46,63.15 L3.46,64.62 L4.93,64.62 L4.93,63.15 L3.46,63.15 L3.46,63.15 Z M3.46,60.21 L3.46,61.68 L4.93,61.68 L4.93,60.21 L3.46,60.21 L3.46,60.21 Z M3.46,57.28 L3.46,58.75 L4.93,58.75 L4.93,57.28 L3.46,57.28 L3.46,57.28 Z M3.46,54.34 L3.46,55.81 L4.93,55.81 L4.93,54.34 L3.46,54.34 L3.46,54.34 Z M3.46,51.41 L3.46,52.88 L4.93,52.88 L4.93,51.41 L3.46,51.41 L3.46,51.41 Z M3.46,48.47 L3.46,49.94 L4.93,49.94 L4.93,48.47 L3.46,48.47 L3.46,48.47 Z M3.46,45.54 L3.46,47.01 L4.93,47.01 L4.93,45.54 L3.46,45.54 L3.46,45.54 Z M3.46,42.6 L3.46,44.07 L4.93,44.07 L4.93,42.6 L3.46,42.6 L3.46,42.6 Z M3.46,39.67 L3.46,41.14 L4.93,41.14 L4.93,39.67 L3.46,39.67 L3.46,39.67 Z M3.46,36.73 L3.46,38.2 L4.93,38.2 L4.93,36.73 L3.46,36.73 L3.46,36.73 Z M3.46,33.8 L3.46,35.27 L4.93,35.27 L4.93,33.8 L3.46,33.8 L3.46,33.8 Z M3.46,30.86 L3.46,32.33 L4.93,32.33 L4.93,30.86 L3.46,30.86 L3.46,30.86 Z M3.46,27.93 L3.46,29.4 L4.93,29.4 L4.93,27.93 L3.46,27.93 L3.46,27.93 Z M3.46,24.99 L3.46,26.46 L4.93,26.46 L4.93,24.99 L3.46,24.99 L3.46,24.99 Z M3.46,22.06 L3.46,23.53 L4.93,23.53 L4.93,22.06 L3.46,22.06 L3.46,22.06 Z M3.46,19.12 L3.46,20.59 L4.93,20.59 L4.93,19.12 L3.46,19.12 L3.46,19.12 Z M3.46,16.19 L3.46,17.66 L4.93,17.66 L4.93,16.19 L3.46,16.19 L3.46,16.19 Z M3.46,13.25 L3.46,14.72 L4.93,14.72 L4.93,13.25 L3.46,13.25 L3.46,13.25 Z M3.46,10.32 L3.46,11.79 L4.93,11.79 L4.93,10.32 L3.46,10.32 L3.46,10.32 Z M3.46,7.38 L3.46,8.85 L4.93,8.85 L4.93,7.38 L3.46,7.38 L3.46,7.38 Z M3.46,4.45 L3.46,5.92 L4.93,5.92 L4.93,4.45 L3.46,4.45 L3.46,4.45 Z M3.46,1.51 L3.46,2.98 L4.93,2.98 L4.93,1.51 L3.46,1.51 L3.46,1.51 Z M4.93,64.61 L4.93,66.08 L6.4,66.08 L6.4,64.61 L4.93,64.61 L4.93,64.61 Z M4.93,61.68 L4.93,63.15 L6.4,63.15 L6.4,61.68 L4.93,61.68 L4.93,61.68 Z M4.93,58.74 L4.93,60.21 L6.4,60.21 L6.4,58.74 L4.93,58.74 L4.93,58.74 Z M4.93,55.81 L4.93,57.28 L6.4,57.28 L6.4,55.81 L4.93,55.81 L4.93,55.81 Z M4.93,52.87 L4.93,54.34 L6.4,54.34 L6.4,52.87 L4.93,52.87 L4.93,52.87 Z M4.93,49.94 L4.93,51.41 L6.4,51.41 L6.4,49.94 L4.93,49.94 L4.93,49.94 Z M4.93,47.01 L4.93,48.48 L6.4,48.48 L6.4,47.01 L4.93,47.01 L4.93,47.01 Z M4.93,44.07 L4.93,45.54 L6.4,45.54 L6.4,44.07 L4.93,44.07 L4.93,44.07 Z M4.93,41.14 L4.93,42.61 L6.4,42.61 L6.4,41.14 L4.93,41.14 L4.93,41.14 Z M4.93,38.2 L4.93,39.67 L6.4,39.67 L6.4,38.2 L4.93,38.2 L4.93,38.2 Z M4.93,35.27 L4.93,36.74 L6.4,36.74 L6.4,35.27 L4.93,35.27 L4.93,35.27 Z M4.93,32.33 L4.93,33.8 L6.4,33.8 L6.4,32.33 L4.93,32.33 L4.93,32.33 Z M4.93,29.4 L4.93,30.87 L6.4,30.87 L6.4,29.4 L4.93,29.4 L4.93,29.4 Z M4.93,26.46 L4.93,27.93 L6.4,27.93 L6.4,26.46 L4.93,26.46 L4.93,26.46 Z M4.93,23.53 L4.93,25 L6.4,25 L6.4,23.53 L4.93,23.53 L4.93,23.53 Z M4.93,20.59 L4.93,22.06 L6.4,22.06 L6.4,20.59 L4.93,20.59 L4.93,20.59 Z M4.93,17.66 L4.93,19.13 L6.4,19.13 L6.4,17.66 L4.93,17.66 L4.93,17.66 Z M4.93,14.72 L4.93,16.19 L6.4,16.19 L6.4,14.72 L4.93,14.72 L4.93,14.72 Z M4.93,11.79 L4.93,13.26 L6.4,13.26 L6.4,11.79 L4.93,11.79 L4.93,11.79 Z M4.93,8.85 L4.93,10.32 L6.4,10.32 L6.4,8.85 L4.93,8.85 L4.93,8.85 Z M4.93,5.92 L4.93,7.39 L6.4,7.39 L6.4,5.92 L4.93,5.92 L4.93,5.92 Z M4.93,2.98 L4.93,4.45 L6.4,4.45 L6.4,2.98 L4.93,2.98 L4.93,2.98 Z M4.93,0.05 L4.93,1.52 L6.4,1.52 L6.4,0.05 L4.93,0.05 L4.93,0.05 Z M6.4,66.08 L6.4,67.55 L7.87,67.55 L7.87,66.08 L6.4,66.08 L6.4,66.08 Z M6.4,63.15 L6.4,64.62 L7.87,64.62 L7.87,63.15 L6.4,63.15 L6.4,63.15 Z M6.4,60.21 L6.4,61.68 L7.87,61.68 L7.87,60.21 L6.4,60.21 L6.4,60.21 Z M6.4,57.28 L6.4,58.75 L7.87,58.75 L7.87,57.28 L6.4,57.28 L6.4,57.28 Z M6.4,54.34 L6.4,55.81 L7.87,55.81 L7.87,54.34 L6.4,54.34 L6.4,54.34 Z M6.4,51.41 L6.4,52.88 L7.87,52.88 L7.87,51.41 L6.4,51.41 L6.4,51.41 Z M6.4,48.47 L6.4,49.94 L7.87,49.94 L7.87,48.47 L6.4,48.47 L6.4,48.47 Z M6.4,45.54 L6.4,47.01 L7.87,47.01 L7.87,45.54 L6.4,45.54 L6.4,45.54 Z M6.4,42.6 L6.4,44.07 L7.87,44.07 L7.87,42.6 L6.4,42.6 L6.4,42.6 Z M6.4,39.67 L6.4,41.14 L7.87,41.14 L7.87,39.67 L6.4,39.67 L6.4,39.67 Z M6.4,36.73 L6.4,38.2 L7.87,38.2 L7.87,36.73 L6.4,36.73 L6.4,36.73 Z M6.4,33.8 L6.4,35.27 L7.87,35.27 L7.87,33.8 L6.4,33.8 L6.4,33.8 Z M6.4,30.86 L6.4,32.33 L7.87,32.33 L7.87,30.86 L6.4,30.86 L6.4,30.86 Z M6.4,27.93 L6.4,29.4 L7.87,29.4 L7.87,27.93 L6.4,27.93 L6.4,27.93 Z M6.4,24.99 L6.4,26.46 L7.87,26.46 L7.87,24.99 L6.4,24.99 L6.4,24.99 Z M6.4,22.06 L6.4,23.53 L7.87,23.53 L7.87,22.06 L6.4,22.06 L6.4,22.06 Z M6.4,19.12 L6.4,20.59 L7.87,20.59 L7.87,19.12 L6.4,19.12 L6.4,19.12 Z M6.4,16.19 L6.4,17.66 L7.87,17.66 L7.87,16.19 L6.4,16.19 L6.4,16.19 Z M6.4,13.25 L6.4,14.72 L7.87,14.72 L7.87,13.25 L6.4,13.25 L6.4,13.25 Z M6.4,10.32 L6.4,11.79 L7.87,11.79 L7.87,10.32 L6.4,10.32 L6.4,10.32 Z M6.4,7.38 L6.4,8.85 L7.87,8.85 L7.87,7.38 L6.4,7.38 L6.4,7.38 Z M6.4,4.45 L6.4,5.92 L7.87,5.92 L7.87,4.45 L6.4,4.45 L6.4,4.45 Z M6.4,1.51 L6.4,2.98 L7.87,2.98 L7.87,1.51 L6.4,1.51 L6.4,1.51 Z M7.87,64.61 L7.87,66.08 L9.34,66.08 L9.34,64.61 L7.87,64.61 L7.87,64.61 Z M7.87,61.68 L7.87,63.15 L9.34,63.15 L9.34,61.68 L7.87,61.68 L7.87,61.68 Z M7.87,58.74 L7.87,60.21 L9.34,60.21 L9.34,58.74 L7.87,58.74 L7.87,58.74 Z M7.87,55.81 L7.87,57.28 L9.34,57.28 L9.34,55.81 L7.87,55.81 L7.87,55.81 Z M7.87,52.87 L7.87,54.34 L9.34,54.34 L9.34,52.87 L7.87,52.87 L7.87,52.87 Z M7.87,49.94 L7.87,51.41 L9.34,51.41 L9.34,49.94 L7.87,49.94 L7.87,49.94 Z M7.87,47.01 L7.87,48.48 L9.34,48.48 L9.34,47.01 L7.87,47.01 L7.87,47.01 Z M7.87,44.07 L7.87,45.54 L9.34,45.54 L9.34,44.07 L7.87,44.07 L7.87,44.07 Z M7.87,41.14 L7.87,42.61 L9.34,42.61 L9.34,41.14 L7.87,41.14 L7.87,41.14 Z M7.87,38.2 L7.87,39.67 L9.34,39.67 L9.34,38.2 L7.87,38.2 L7.87,38.2 Z M7.87,35.27 L7.87,36.74 L9.34,36.74 L9.34,35.27 L7.87,35.27 L7.87,35.27 Z M7.87,32.33 L7.87,33.8 L9.34,33.8 L9.34,32.33 L7.87,32.33 L7.87,32.33 Z M7.87,29.4 L7.87,30.87 L9.34,30.87 L9.34,29.4 L7.87,29.4 L7.87,29.4 Z M7.87,26.46 L7.87,27.93 L9.34,27.93 L9.34,26.46 L7.87,26.46 L7.87,26.46 Z M7.87,23.53 L7.87,25 L9.34,25 L9.34,23.53 L7.87,23.53 L7.87,23.53 Z M7.87,20.59 L7.87,22.06 L9.34,22.06 L9.34,20.59 L7.87,20.59 L7.87,20.59 Z M7.87,17.66 L7.87,19.13 L9.34,19.13 L9.34,17.66 L7.87,17.66 L7.87,17.66 Z M7.87,14.72 L7.87,16.19 L9.34,16.19 L9.34,14.72 L7.87,14.72 L7.87,14.72 Z M7.87,11.79 L7.87,13.26 L9.34,13.26 L9.34,11.79 L7.87,11.79 L7.87,11.79 Z M7.87,8.85 L7.87,10.32 L9.34,10.32 L9.34,8.85 L7.87,8.85 L7.87,8.85 Z M7.87,5.92 L7.87,7.39 L9.34,7.39 L9.34,5.92 L7.87,5.92 L7.87,5.92 Z M7.87,2.98 L7.87,4.45 L9.34,4.45 L9.34,2.98 L7.87,2.98 L7.87,2.98 Z M7.87,0.05 L7.87,1.52 L9.34,1.52 L9.34,0.05 L7.87,0.05 L7.87,0.05 Z" id="Shape" fill="#2E2E2E" mask="url(#mask-12)"></path>
                            </g>
                            <g>
                                <mask id="mask-14" fill="white">
                                    <use xlink:href="#path-13"></use>
                                </mask>
                                <g id="SVGID_8_"></g>
                                <path d="M0.29,4.17 L0.29,63.61 C0.29,66.01 2.37,67.96 4.94,67.96 C7.51,67.96 9.59,66.01 9.59,63.61 L9.59,4.17 C9.59,1.77 7.51,-0.18 4.94,-0.18 C2.37,-0.18 0.29,1.77 0.29,4.17 L0.29,4.17 Z M8.13,4.58 L8.13,63.2 C8.13,64.96 6.7,66.4 4.93,66.4 C3.16,66.4 1.73,64.97 1.73,63.2 L1.73,4.58 C1.73,2.82 3.16,1.38 4.93,1.38 C6.7,1.38 8.13,2.82 8.13,4.58 L8.13,4.58 Z" id="Shape" fill="#000000" opacity="0.2" mask="url(#mask-14)"></path>
                            </g>
                        </g>
                        <path d="M865.53,235.27 C865.53,253.4 880.23,268.1 898.36,268.1 C916.49,268.1 931.19,253.4 931.19,235.27 C931.19,217.14 916.49,202.44 898.36,202.44 C880.23,202.45 865.53,217.14 865.53,235.27 L865.53,235.27 Z M928.18,235.27 C928.18,251.74 914.83,265.09 898.36,265.09 C881.89,265.09 868.54,251.74 868.54,235.27 C868.54,218.8 881.89,205.45 898.36,205.45 C914.83,205.45 928.18,218.8 928.18,235.27 L928.18,235.27 Z" id="Shape" fill="url(#linearGradient-15)"></path>
                    </g>
                    <path d="M65.18,8.11 C32.08,8.11 5.24,34.94 5.24,68.05 L5.24,402.5 C5.24,435.6 32.07,462.44 65.18,462.44 L334.64,462.44 L598.74,8.11 L65.18,8.11 L65.18,8.11 Z" id="Shape" fill="url(#linearGradient-16)"></path>
                </g>
                <rect id="Rectangle-path" fill="#000000" x="108.69" y="28.81" width="736" height="414"></rect>
            </g>
        </g>
    </g>
</svg>
