<?xml version="1.0" encoding="UTF-8" standalone="no"?>
<svg width="877px" height="431px" viewBox="0 0 877 431" version="1.1" xmlns="http://www.w3.org/2000/svg" xmlns:xlink="http://www.w3.org/1999/xlink">
    <title>iPhone 6</title>
    <defs>
        <linearGradient x1="0.0488611431%" y1="49.9939431%" x2="100.048698%" y2="49.9939431%" id="linearGradient-1">
            <stop stop-color="#FFFFFF" stop-opacity="0.15" offset="0%"></stop>
            <stop stop-color="#FFFFFF" stop-opacity="0" offset="11.69%"></stop>
            <stop stop-color="#FFFFFF" stop-opacity="0.00509108" offset="87.64%"></stop>
            <stop stop-color="#FFFFFF" stop-opacity="0.15" offset="100%"></stop>
        </linearGradient>
        <linearGradient x1="4.88777959%" y1="-1.77197921%" x2="92.2732759%" y2="98.5008115%" id="linearGradient-2">
            <stop stop-color="#FFFFFF" stop-opacity="0.15" offset="0%"></stop>
            <stop stop-color="#FFFFFF" stop-opacity="0.05" offset="13.73%"></stop>
            <stop stop-color="#FFFFFF" stop-opacity="0.02" offset="88.31%"></stop>
            <stop stop-color="#FFFFFF" stop-opacity="0.15" offset="100%"></stop>
        </linearGradient>
        <radialGradient cx="49.8666667%" cy="50.0666667%" fx="49.8666667%" fy="50.0666667%" r="50.3333333%" id="radialGradient-3">
            <stop stop-color="#5D5D5F" offset="0%"></stop>
            <stop stop-color="#333333" stop-opacity="0.8" offset="100%"></stop>
        </radialGradient>
        <radialGradient cx="50.2859018%" cy="57.2416319%" fx="50.2859018%" fy="57.2416319%" r="50.3093333%" id="radialGradient-4">
            <stop stop-color="#000000" stop-opacity="0" offset="0%"></stop>
            <stop stop-color="#020202" stop-opacity="0.4119" offset="51.49%"></stop>
            <stop stop-color="#090909" stop-opacity="0.5603" offset="70.03%"></stop>
            <stop stop-color="#141414" stop-opacity="0.666" offset="83.25%"></stop>
            <stop stop-color="#252525" stop-opacity="0.7509" offset="93.87%"></stop>
            <stop stop-color="#333333" stop-opacity="0.8" offset="100%"></stop>
        </radialGradient>
        <radialGradient cx="47.3819749%" cy="96.2966269%" fx="47.3819749%" fy="96.2966269%" r="95.1905405%" id="radialGradient-5">
            <stop stop-color="#FFFFFF" stop-opacity="0.3" offset="0%"></stop>
            <stop stop-color="#000000" stop-opacity="0" offset="100%"></stop>
        </radialGradient>
        <radialGradient cx="50.1335915%" cy="23.9526238%" fx="50.1335915%" fy="23.9526238%" r="58.1475%" id="radialGradient-6">
            <stop stop-color="#FFFFFF" stop-opacity="0.3" offset="0%"></stop>
            <stop stop-color="#000000" stop-opacity="0" offset="100%"></stop>
        </radialGradient>
        <linearGradient x1="46.7389949%" y1="7.21719595%" x2="46.7408363%" y2="111.047196%" id="linearGradient-7">
            <stop stop-color="#FFFFFF" stop-opacity="0.6" offset="0%"></stop>
            <stop stop-color="#FFFFFF" stop-opacity="0.1" offset="100%"></stop>
        </linearGradient>
        <path id="path-8" d="M8.7,5.1 L8.7,63.7 C8.7,66.1 6.8,68 4.4,68 L4.4,68 C2,68 0.1,66.1 0.1,63.7 L0.1,5.1 C0.1,2.7 2,0.8 4.4,0.8 L4.4,0.8 C6.8,0.8 8.7,2.7 8.7,5.1 L8.7,5.1 Z"></path>
        <linearGradient x1="100.754874%" y1="49.9921131%" x2="0.987588915%" y2="49.9921131%" id="linearGradient-10">
            <stop stop-color="#2E2E31" offset="0%"></stop>
            <stop stop-color="#616161" offset="24.48%"></stop>
            <stop stop-color="#858585" offset="81.37%"></stop>
            <stop stop-color="#2E2E31" offset="100%"></stop>
        </linearGradient>
        <path id="path-11" d="M8.7,5.1 L8.7,63.7 C8.7,66.1 6.8,68 4.4,68 L4.4,68 C2,68 0.1,66.1 0.1,63.7 L0.1,5.1 C0.1,2.7 2,0.8 4.4,0.8 L4.4,0.8 C6.8,0.8 8.7,2.7 8.7,5.1 L8.7,5.1 Z"></path>
        <path id="path-13" d="M8.7,5.1 L8.7,63.7 C8.7,66.1 6.8,68 4.4,68 L4.4,68 C2,68 0.1,66.1 0.1,63.7 L0.1,5.1 C0.1,2.7 2,0.8 4.4,0.8 L4.4,0.8 C6.8,0.8 8.7,2.7 8.7,5.1 L8.7,5.1 Z"></path>
        <linearGradient x1="86.3832317%" y1="92.0344512%" x2="13.9727134%" y2="8.69390244%" id="linearGradient-15">
            <stop stop-color="#FFFFFF" stop-opacity="0.3" offset="14.7%"></stop>
            <stop stop-color="#FFFFFF" stop-opacity="0" offset="40.73%"></stop>
            <stop stop-color="#FFFFFF" stop-opacity="0.00509108" offset="74.45%"></stop>
            <stop stop-color="#FFFFFF" stop-opacity="0.2" offset="100%"></stop>
        </linearGradient>
    </defs>
    <g id="Page-1" stroke="none" stroke-width="1" fill="none" fill-rule="evenodd">
        <g id="iphone6-landscape">
            <g id="Group">
                <g>
                    <path d="M145.2,424.8 L145.2,428.5 C145.2,429.5 144.4,430.4 143.3,430.4 L113.3,430.4 C112.3,430.4 111.4,429.6 111.4,428.5 L111.4,424.8 L145.2,424.8 L145.2,424.8 Z" id="Shape" fill="#808086"></path>
                    <path d="M190.5,430.4 C189.5,430.4 188.6,429.6 188.6,428.5 L188.6,424.8 L249.7,424.8 L249.7,428.5 C249.7,429.5 248.9,430.4 247.8,430.4" id="Shape" fill="#808086"></path>
                    <path d="M188,6.2 L188,2.5 C188,1.5 188.8,0.6 189.9,0.6 L247.3,0.6 C248.3,0.6 249.2,1.4 249.2,2.5 L249.2,6.2 L188,6.2 L188,6.2 Z" id="Shape" fill="#818187"></path>
                    <path d="M329.5,424.8 L329.5,428.5 C329.5,429.5 328.7,430.4 327.6,430.4 L270.2,430.4 C269.2,430.4 268.3,429.6 268.3,428.5 L268.3,424.8 L329.5,424.8 L329.5,424.8 Z" id="Shape" fill="#808086"></path>
                    <path d="M65.7,427.9 C29.9,427.9 0.8,398.8 0.8,363 L0.8,68.5 C0.8,32.7 29.9,3.6 65.7,3.6 L811.4,3.6 C847.2,3.6 876.3,32.7 876.3,68.5 L876.3,363 C876.3,398.8 847.2,427.9 811.4,427.9 L65.7,427.9 L65.7,427.9 Z" id="Shape" stroke="#666666" fill="#B2B2B2"></path>
                    <path d="M871.1,363.2 C871.1,379.1 864.9,394.1 853.6,405.3 C842.4,416.5 827.4,422.8 811.5,422.8 L65.5,422.8 C49.6,422.8 34.6,416.6 23.4,405.3 C12.2,394.1 5.9,379.1 5.9,363.2 L5.9,68.4 C5.9,52.5 12.1,37.5 23.4,26.3 C34.6,15 49.6,8.8 65.5,8.8 L811.5,8.8 C827.4,8.8 842.4,15 853.6,26.3 C864.8,37.5 871.1,52.5 871.1,68.4 L871.1,363.2 L871.1,363.2 L871.1,363.2 Z" id="Shape" fill="#404040"></path>
                    <path d="M871.3,68.5 L871.3,363 C871.3,396.1 844.5,422.9 811.4,422.9 L65.7,422.9 C32.6,422.9 5.8,396.1 5.8,363 L5.8,68.5 C5.8,35.4 32.6,8.6 65.7,8.6 L811.4,8.6 C844.4,8.6 871.3,35.4 871.3,68.5 L871.3,68.5 Z" id="Shape" fill="#262626"></path>
                    <path d="M5.7,68.4 L5.7,363.2 C5.7,396.2 32.5,423 65.5,423 L67.1,423 C34.1,423 7.3,396.2 7.3,363.2 L7.3,68.4 C7.3,35.4 34.1,8.6 67.1,8.6 L65.5,8.6 C32.5,8.6 5.7,35.4 5.7,68.4 L5.7,68.4 Z" id="Shape" fill="url(#linearGradient-1)"></path>
                    <path d="M9.3,68.4 L9.3,363.2 C9.3,394.2 34.5,419.4 65.5,419.4 L811.5,419.4 C842.5,419.4 867.7,394.2 867.7,363.2 L867.7,68.4 C867.7,37.4 842.5,12.2 811.5,12.2 L65.5,12.2 C34.5,12.1 9.3,37.4 9.3,68.4 L9.3,68.4 Z M811.5,18.2 C839.2,18.2 861.7,40.7 861.7,68.4 L861.7,363.2 C861.7,390.9 839.2,413.4 811.5,413.4 L65.5,413.4 C37.8,413.4 15.3,390.9 15.3,363.2 L15.3,68.4 C15.3,40.7 37.8,18.2 65.5,18.2 L811.5,18.2 L811.5,18.2 Z" id="Shape" fill="url(#linearGradient-2)"></path>
                    <g transform="translate(47.000000, 276.000000)">
                        <circle id="Oval" fill="url(#radialGradient-3)" cx="7.7" cy="7.7" r="7.5"></circle>
                        <circle id="Oval" fill="url(#radialGradient-4)" opacity="0.8" cx="7.7" cy="7.7" r="7.5"></circle>
                        <circle id="Oval" fill="#1B1A1F" cx="7.7" cy="7.7" r="5"></circle>
                        <circle id="Oval" fill="#36284C" cx="7.7" cy="7.7" r="3.7"></circle>
                        <circle id="Oval" fill="url(#radialGradient-5)" cx="7.7" cy="7.7" r="3.7"></circle>
                        <g transform="translate(5.000000, 5.000000)" id="Shape">
                            <path d="M4.7,2.7 C4.7,3.8 3.8,4.7 2.7,4.7 C1.6,4.7 0.7,3.8 0.7,2.7 C0.7,1.6 1.6,0.7 2.7,0.7 C3.8,0.7 4.7,1.6 4.7,2.7 L4.7,2.7 Z" fill="#141414" opacity="0.5"></path>
                            <path d="M4.7,2.7 C4.7,3.8 3.8,4.7 2.7,4.7 C1.6,4.7 0.7,3.8 0.7,2.7 C0.7,1.6 1.6,0.7 2.7,0.7 C3.8,0.7 4.7,1.6 4.7,2.7 L4.7,2.7 Z" fill="url(#radialGradient-6)"></path>
                        </g>
                        <path d="M7.7,6.2 C7.2,6.2 6.9,6.4 6.6,6.7 L7.1,7.2 C7.3,7 7.5,6.9 7.7,6.9 C8,6.9 8.2,7 8.4,7.2 L8.9,6.7 C8.5,6.4 8.1,6.2 7.7,6.2 L7.7,6.2 Z" id="Shape" fill="url(#linearGradient-7)"></path>
                    </g>
                    <g transform="translate(51.000000, 181.000000)" id="Clipped">
                        <g>
                            <mask id="mask-9" fill="white">
                                <use xlink:href="#path-8"></use>
                            </mask>
                            <g id="SVGID_8_"></g>
                            <path d="M8.7,5.1 L8.7,63.7 C8.7,66.1 6.8,68 4.4,68 L4.4,68 C2,68 0.1,66.1 0.1,63.7 L0.1,5.1 C0.1,2.7 2,0.8 4.4,0.8 L4.4,0.8 C6.8,0.8 8.7,2.7 8.7,5.1 L8.7,5.1 Z" id="Shape" fill="url(#linearGradient-10)" opacity="0.8" mask="url(#mask-9)"></path>
                        </g>
                        <g>
                            <mask id="mask-12" fill="white">
                                <use xlink:href="#path-11"></use>
                            </mask>
                            <g id="SVGID_11_"></g>
                            <path d="M-0.2,4.7 L-0.2,64.1 C-0.2,66.5 1.9,68.5 4.5,68.5 C7.1,68.5 9.1,66.6 9.1,64.1 L9.1,4.7 C9.1,2.3 7,0.3 4.4,0.3 C1.8,0.3 -0.2,2.3 -0.2,4.7 L-0.2,4.7 Z M7.6,5.1 L7.6,63.7 C7.6,65.5 6.2,66.9 4.4,66.9 C2.6,66.9 1.2,65.5 1.2,63.7 L1.2,5.1 C1.2,3.3 2.6,1.9 4.4,1.9 C6.2,1.9 7.6,3.3 7.6,5.1 L7.6,5.1 Z" id="Shape" fill="#000000" opacity="0.2" mask="url(#mask-12)"></path>
                        </g>
                        <g>
                            <mask id="mask-14" fill="white">
                                <use xlink:href="#path-13"></use>
                            </mask>
                            <g id="SVGID_13_"></g>
                            <path d="M0,66.7 L0,68.2 L1.5,68.2 L1.5,66.7 L0,66.7 L0,66.7 Z M0,63.8 L0,65.3 L1.5,65.3 L1.5,63.8 L0,63.8 L0,63.8 Z M0,60.8 L0,62.3 L1.5,62.3 L1.5,60.8 L0,60.8 L0,60.8 Z M0,57.9 L0,59.4 L1.5,59.4 L1.5,57.9 L0,57.9 L0,57.9 Z M0,54.9 L0,56.4 L1.5,56.4 L1.5,54.9 L0,54.9 L0,54.9 Z M0,52 L0,53.5 L1.5,53.5 L1.5,52 L0,52 L0,52 Z M0,49.1 L0,50.6 L1.5,50.6 L1.5,49.1 L0,49.1 L0,49.1 Z M0,46.1 L0,47.6 L1.5,47.6 L1.5,46.1 L0,46.1 L0,46.1 Z M0,43.2 L0,44.7 L1.5,44.7 L1.5,43.2 L0,43.2 L0,43.2 Z M0,40.3 L0,41.8 L1.5,41.8 L1.5,40.3 L0,40.3 L0,40.3 Z M0,37.3 L0,38.8 L1.5,38.8 L1.5,37.3 L0,37.3 L0,37.3 Z M0,34.4 L0,35.9 L1.5,35.9 L1.5,34.4 L0,34.4 L0,34.4 Z M0,31.5 L0,33 L1.5,33 L1.5,31.5 L0,31.5 L0,31.5 Z M0,28.5 L0,30 L1.5,30 L1.5,28.5 L0,28.5 L0,28.5 Z M0,25.6 L0,27.1 L1.5,27.1 L1.5,25.6 L0,25.6 L0,25.6 Z M0,22.6 L0,24.1 L1.5,24.1 L1.5,22.6 L0,22.6 L0,22.6 Z M0,19.7 L0,21.2 L1.5,21.2 L1.5,19.7 L0,19.7 L0,19.7 Z M0,16.8 L0,18.3 L1.5,18.3 L1.5,16.8 L0,16.8 L0,16.8 Z M0,13.9 L0,15.4 L1.5,15.4 L1.5,13.9 L0,13.9 L0,13.9 Z M0,10.9 L0,12.4 L1.5,12.4 L1.5,10.9 L0,10.9 L0,10.9 Z M0,8 L0,9.5 L1.5,9.5 L1.5,8 L0,8 L0,8 Z M0,5 L0,6.5 L1.5,6.5 L1.5,5 L0,5 L0,5 Z M0,2.1 L0,3.6 L1.5,3.6 L1.5,2.1 L0,2.1 L0,2.1 Z M1.5,65.2 L1.5,66.7 L3,66.7 L3,65.2 L1.5,65.2 L1.5,65.2 Z M1.5,62.3 L1.5,63.8 L3,63.8 L3,62.3 L1.5,62.3 L1.5,62.3 Z M1.5,59.3 L1.5,60.8 L3,60.8 L3,59.3 L1.5,59.3 L1.5,59.3 Z M1.5,56.4 L1.5,57.9 L3,57.9 L3,56.4 L1.5,56.4 L1.5,56.4 Z M1.5,53.5 L1.5,55 L3,55 L3,53.5 L1.5,53.5 L1.5,53.5 Z M1.5,50.5 L1.5,52 L3,52 L3,50.5 L1.5,50.5 L1.5,50.5 L1.5,50.5 Z M1.5,47.6 L1.5,49.1 L3,49.1 L3,47.6 L1.5,47.6 L1.5,47.6 Z M1.5,44.7 L1.5,46.2 L3,46.2 L3,44.7 L1.5,44.7 L1.5,44.7 Z M1.5,41.7 L1.5,43.2 L3,43.2 L3,41.7 L1.5,41.7 L1.5,41.7 Z M1.5,38.8 L1.5,40.3 L3,40.3 L3,38.8 L1.5,38.8 L1.5,38.8 Z M1.5,35.9 L1.5,37.4 L3,37.4 L3,35.9 L1.5,35.9 L1.5,35.9 Z M1.5,32.9 L1.5,34.4 L3,34.4 L3,32.9 L1.5,32.9 L1.5,32.9 Z M1.5,30 L1.5,31.5 L3,31.5 L3,30 L1.5,30 L1.5,30 Z M1.5,27.1 L1.5,28.6 L3,28.6 L3,27.1 L1.5,27.1 L1.5,27.1 Z M1.5,24.1 L1.5,25.6 L3,25.6 L3,24.1 L1.5,24.1 L1.5,24.1 Z M1.5,21.2 L1.5,22.7 L3,22.7 L3,21.2 L1.5,21.2 L1.5,21.2 Z M1.5,18.2 L1.5,19.7 L3,19.7 L3,18.2 L1.5,18.2 L1.5,18.2 Z M1.5,15.3 L1.5,16.8 L3,16.8 L3,15.3 L1.5,15.3 L1.5,15.3 Z M1.5,12.4 L1.5,13.9 L3,13.9 L3,12.4 L1.5,12.4 L1.5,12.4 Z M1.5,9.4 L1.5,10.9 L3,10.9 L3,9.4 L1.5,9.4 L1.5,9.4 Z M1.5,6.5 L1.5,8 L3,8 L3,6.5 L1.5,6.5 L1.5,6.5 Z M1.5,3.6 L1.5,5.1 L3,5.1 L3,3.6 L1.5,3.6 L1.5,3.6 Z M1.5,0.6 L1.5,2.1 L3,2.1 L3,0.6 L1.5,0.6 L1.5,0.6 Z M3,66.7 L3,68.2 L4.5,68.2 L4.5,66.7 L3,66.7 L3,66.7 Z M3,63.8 L3,65.3 L4.5,65.3 L4.5,63.8 L3,63.8 L3,63.8 Z M3,60.8 L3,62.3 L4.5,62.3 L4.5,60.8 L3,60.8 L3,60.8 Z M3,57.9 L3,59.4 L4.5,59.4 L4.5,57.9 L3,57.9 L3,57.9 Z M3,54.9 L3,56.4 L4.5,56.4 L4.5,54.9 L3,54.9 L3,54.9 Z M3,52 L3,53.5 L4.5,53.5 L4.5,52 L3,52 L3,52 Z M3,49.1 L3,50.6 L4.5,50.6 L4.5,49.1 L3,49.1 L3,49.1 Z M3,46.1 L3,47.6 L4.5,47.6 L4.5,46.1 L3,46.1 L3,46.1 Z M3,43.2 L3,44.7 L4.5,44.7 L4.5,43.2 L3,43.2 L3,43.2 Z M3,40.3 L3,41.8 L4.5,41.8 L4.5,40.3 L3,40.3 L3,40.3 Z M3,37.3 L3,38.8 L4.5,38.8 L4.5,37.3 L3,37.3 L3,37.3 Z M3,34.4 L3,35.9 L4.5,35.9 L4.5,34.4 L3,34.4 L3,34.4 Z M3,31.5 L3,33 L4.5,33 L4.5,31.5 L3,31.5 L3,31.5 Z M3,28.5 L3,30 L4.5,30 L4.5,28.5 L3,28.5 L3,28.5 Z M3,25.6 L3,27.1 L4.5,27.1 L4.5,25.6 L3,25.6 L3,25.6 Z M3,22.6 L3,24.1 L4.5,24.1 L4.5,22.6 L3,22.6 L3,22.6 Z M3,19.7 L3,21.2 L4.5,21.2 L4.5,19.7 L3,19.7 L3,19.7 Z M3,16.8 L3,18.3 L4.5,18.3 L4.5,16.8 L3,16.8 L3,16.8 Z M3,13.9 L3,15.4 L4.5,15.4 L4.5,13.9 L3,13.9 L3,13.9 Z M3,10.9 L3,12.4 L4.5,12.4 L4.5,10.9 L3,10.9 L3,10.9 Z M3,8 L3,9.5 L4.5,9.5 L4.5,8 L3,8 L3,8 Z M3,5 L3,6.5 L4.5,6.5 L4.5,5 L3,5 L3,5 Z M3,2.1 L3,3.6 L4.5,3.6 L4.5,2.1 L3,2.1 L3,2.1 Z M4.4,65.2 L4.4,66.7 L5.9,66.7 L5.9,65.2 L4.4,65.2 L4.4,65.2 Z M4.4,62.3 L4.4,63.8 L5.9,63.8 L5.9,62.3 L4.4,62.3 L4.4,62.3 Z M4.4,59.3 L4.4,60.8 L5.9,60.8 L5.9,59.3 L4.4,59.3 L4.4,59.3 Z M4.4,56.4 L4.4,57.9 L5.9,57.9 L5.9,56.4 L4.4,56.4 L4.4,56.4 Z M4.4,53.5 L4.4,55 L5.9,55 L5.9,53.5 L4.4,53.5 L4.4,53.5 Z M4.4,50.5 L4.4,52 L5.9,52 L5.9,50.5 L4.4,50.5 L4.4,50.5 L4.4,50.5 Z M4.4,47.6 L4.4,49.1 L5.9,49.1 L5.9,47.6 L4.4,47.6 L4.4,47.6 Z M4.4,44.7 L4.4,46.2 L5.9,46.2 L5.9,44.7 L4.4,44.7 L4.4,44.7 Z M4.4,41.7 L4.4,43.2 L5.9,43.2 L5.9,41.7 L4.4,41.7 L4.4,41.7 Z M4.4,38.8 L4.4,40.3 L5.9,40.3 L5.9,38.8 L4.4,38.8 L4.4,38.8 Z M4.4,35.9 L4.4,37.4 L5.9,37.4 L5.9,35.9 L4.4,35.9 L4.4,35.9 Z M4.4,32.9 L4.4,34.4 L5.9,34.4 L5.9,32.9 L4.4,32.9 L4.4,32.9 Z M4.4,30 L4.4,31.5 L5.9,31.5 L5.9,30 L4.4,30 L4.4,30 Z M4.4,27.1 L4.4,28.6 L5.9,28.6 L5.9,27.1 L4.4,27.1 L4.4,27.1 Z M4.4,24.1 L4.4,25.6 L5.9,25.6 L5.9,24.1 L4.4,24.1 L4.4,24.1 Z M4.4,21.2 L4.4,22.7 L5.9,22.7 L5.9,21.2 L4.4,21.2 L4.4,21.2 Z M4.4,18.2 L4.4,19.7 L5.9,19.7 L5.9,18.2 L4.4,18.2 L4.4,18.2 Z M4.4,15.3 L4.4,16.8 L5.9,16.8 L5.9,15.3 L4.4,15.3 L4.4,15.3 Z M4.4,12.4 L4.4,13.9 L5.9,13.9 L5.9,12.4 L4.4,12.4 L4.4,12.4 Z M4.4,9.4 L4.4,10.9 L5.9,10.9 L5.9,9.4 L4.4,9.4 L4.4,9.4 Z M4.4,6.5 L4.4,8 L5.9,8 L5.9,6.5 L4.4,6.5 L4.4,6.5 Z M4.4,3.6 L4.4,5.1 L5.9,5.1 L5.9,3.6 L4.4,3.6 L4.4,3.6 Z M4.4,0.6 L4.4,2.1 L5.9,2.1 L5.9,0.6 L4.4,0.6 L4.4,0.6 Z M5.9,66.7 L5.9,68.2 L7.4,68.2 L7.4,66.7 L5.9,66.7 L5.9,66.7 Z M5.9,63.8 L5.9,65.3 L7.4,65.3 L7.4,63.8 L5.9,63.8 L5.9,63.8 Z M5.9,60.8 L5.9,62.3 L7.4,62.3 L7.4,60.8 L5.9,60.8 L5.9,60.8 Z M5.9,57.9 L5.9,59.4 L7.4,59.4 L7.4,57.9 L5.9,57.9 L5.9,57.9 Z M5.9,54.9 L5.9,56.4 L7.4,56.4 L7.4,54.9 L5.9,54.9 L5.9,54.9 Z M5.9,52 L5.9,53.5 L7.4,53.5 L7.4,52 L5.9,52 L5.9,52 Z M5.9,49.1 L5.9,50.6 L7.4,50.6 L7.4,49.1 L5.9,49.1 L5.9,49.1 Z M5.9,46.1 L5.9,47.6 L7.4,47.6 L7.4,46.1 L5.9,46.1 L5.9,46.1 Z M5.9,43.2 L5.9,44.7 L7.4,44.7 L7.4,43.2 L5.9,43.2 L5.9,43.2 Z M5.9,40.3 L5.9,41.8 L7.4,41.8 L7.4,40.3 L5.9,40.3 L5.9,40.3 Z M5.9,37.3 L5.9,38.8 L7.4,38.8 L7.4,37.3 L5.9,37.3 L5.9,37.3 Z M5.9,34.4 L5.9,35.9 L7.4,35.9 L7.4,34.4 L5.9,34.4 L5.9,34.4 Z M5.9,31.5 L5.9,33 L7.4,33 L7.4,31.5 L5.9,31.5 L5.9,31.5 Z M5.9,28.5 L5.9,30 L7.4,30 L7.4,28.5 L5.9,28.5 L5.9,28.5 Z M5.9,25.6 L5.9,27.1 L7.4,27.1 L7.4,25.6 L5.9,25.6 L5.9,25.6 Z M5.9,22.6 L5.9,24.1 L7.4,24.1 L7.4,22.6 L5.9,22.6 L5.9,22.6 Z M5.9,19.7 L5.9,21.2 L7.4,21.2 L7.4,19.7 L5.9,19.7 L5.9,19.7 Z M5.9,16.8 L5.9,18.3 L7.4,18.3 L7.4,16.8 L5.9,16.8 L5.9,16.8 Z M5.9,13.9 L5.9,15.4 L7.4,15.4 L7.4,13.9 L5.9,13.9 L5.9,13.9 Z M5.9,10.9 L5.9,12.4 L7.4,12.4 L7.4,10.9 L5.9,10.9 L5.9,10.9 Z M5.9,8 L5.9,9.5 L7.4,9.5 L7.4,8 L5.9,8 L5.9,8 Z M5.9,5 L5.9,6.5 L7.4,6.5 L7.4,5 L5.9,5 L5.9,5 Z M5.9,2.1 L5.9,3.6 L7.4,3.6 L7.4,2.1 L5.9,2.1 L5.9,2.1 Z M7.3,65.2 L7.3,66.7 L8.8,66.7 L8.8,65.2 L7.3,65.2 L7.3,65.2 Z M7.3,62.3 L7.3,63.8 L8.8,63.8 L8.8,62.3 L7.3,62.3 L7.3,62.3 Z M7.3,59.3 L7.3,60.8 L8.8,60.8 L8.8,59.3 L7.3,59.3 L7.3,59.3 Z M7.3,56.4 L7.3,57.9 L8.8,57.9 L8.8,56.4 L7.3,56.4 L7.3,56.4 Z M7.3,53.5 L7.3,55 L8.8,55 L8.8,53.5 L7.3,53.5 L7.3,53.5 Z M7.3,50.5 L7.3,52 L8.8,52 L8.8,50.5 L7.3,50.5 L7.3,50.5 L7.3,50.5 Z M7.3,47.6 L7.3,49.1 L8.8,49.1 L8.8,47.6 L7.3,47.6 L7.3,47.6 Z M7.3,44.7 L7.3,46.2 L8.8,46.2 L8.8,44.7 L7.3,44.7 L7.3,44.7 Z M7.3,41.7 L7.3,43.2 L8.8,43.2 L8.8,41.7 L7.3,41.7 L7.3,41.7 Z M7.3,38.8 L7.3,40.3 L8.8,40.3 L8.8,38.8 L7.3,38.8 L7.3,38.8 Z M7.3,35.9 L7.3,37.4 L8.8,37.4 L8.8,35.9 L7.3,35.9 L7.3,35.9 Z M7.3,32.9 L7.3,34.4 L8.8,34.4 L8.8,32.9 L7.3,32.9 L7.3,32.9 Z M7.3,30 L7.3,31.5 L8.8,31.5 L8.8,30 L7.3,30 L7.3,30 Z M7.3,27.1 L7.3,28.6 L8.8,28.6 L8.8,27.1 L7.3,27.1 L7.3,27.1 Z M7.3,24.1 L7.3,25.6 L8.8,25.6 L8.8,24.1 L7.3,24.1 L7.3,24.1 Z M7.3,21.2 L7.3,22.7 L8.8,22.7 L8.8,21.2 L7.3,21.2 L7.3,21.2 Z M7.3,18.2 L7.3,19.7 L8.8,19.7 L8.8,18.2 L7.3,18.2 L7.3,18.2 Z M7.3,15.3 L7.3,16.8 L8.8,16.8 L8.8,15.3 L7.3,15.3 L7.3,15.3 Z M7.3,12.4 L7.3,13.9 L8.8,13.9 L8.8,12.4 L7.3,12.4 L7.3,12.4 Z M7.3,9.4 L7.3,10.9 L8.8,10.9 L8.8,9.4 L7.3,9.4 L7.3,9.4 Z M7.3,6.5 L7.3,8 L8.8,8 L8.8,6.5 L7.3,6.5 L7.3,6.5 Z M7.3,3.6 L7.3,5.1 L8.8,5.1 L8.8,3.6 L7.3,3.6 L7.3,3.6 Z M7.3,0.6 L7.3,2.1 L8.8,2.1 L8.8,0.6 L7.3,0.6 L7.3,0.6 Z" id="Shape" fill="#2E2E2E" mask="url(#mask-14)"></path>
                        </g>
                    </g>
                    <path d="M820.9,182.9 C802.8,182.9 788.1,197.6 788.1,215.7 C788.1,233.8 802.8,248.5 820.9,248.5 C839,248.5 853.7,233.8 853.7,215.7 C853.7,197.6 839,182.9 820.9,182.9 L820.9,182.9 Z M820.9,245.6 C804.4,245.6 791.1,232.2 791.1,215.8 C791.1,199.4 804.4,186 820.9,186 C837.4,186 850.7,199.4 850.7,215.8 C850.7,232.2 837.3,245.6 820.9,245.6 L820.9,245.6 Z" id="Shape" fill="url(#linearGradient-15)"></path>
                </g>
                <rect id="Rectangle-path" fill="#000000" x="106" y="28" width="667" height="375"></rect>
            </g>
        </g>
    </g>
</svg>
