<?xml version="1.0" encoding="UTF-8" standalone="no"?>
<svg xmlns="http://www.w3.org/2000/svg" height="445.18" width="914.43" version="1.1" xmlns:xlink="http://www.w3.org/1999/xlink" viewBox="0 0 914.42999 445.18448">
 <title id="title4">Nexus 6P</title>
 <defs id="defs6">
  <linearGradient id="linearGradient-2" y1="0.38635" x2="0.966" x1="0.042" y2="0.61863">
   <stop id="stop14" stop-color="#3A3A3A" offset="0"/>
   <stop id="stop16" stop-color="#181818" offset="1"/>
  </linearGradient>
  <linearGradient id="linearGradient3047" y2="418.38" xlink:href="#linearGradient-2" gradientUnits="userSpaceOnUse" x2="653.3" gradientTransform="scale(0.69792557,1.4328175)" y1="261.28" x1="28.404"/>
 </defs>
 <g id="Page-1" fill="none" transform="matrix(0.99391592,0,0,0.9822732,-3.2567387,-26.310581)">
  <g id="g3051">
   <g id="b-link" fill="url(#linearGradient3047)" transform="matrix(0,-0.94516303,0.94267555,0,6.5696201,476.68946)">
    <rect id="b" rx="60" height="969" width="472" y="0" x="0" fill="url(#linearGradient3047)"/>
   </g>
   <g id="g22" transform="matrix(0,-0.94516303,0.94267555,0,6.5696201,476.68946)">
    <rect id="rect24" rx="60" height="969" width="472" y="0" x="0"/>
   </g>
   <g id="g26" transform="matrix(0,-0.94516303,0.94267555,0,6.5696201,476.68946)">
    <rect id="rect28" rx="60" height="969" width="472" y="0" x="0"/>
   </g>
   <g id="g30" stroke-width="7" transform="matrix(0,-0.94516303,0.94267555,0,6.5696201,476.68946)" stroke="#1e1e1e">
    <rect id="rect32" rx="60" height="969" width="472" y="0" x="0"/>
   </g>
   <g id="g34" stroke-width="5" transform="matrix(0,-0.94516303,0.94267555,0,6.5696201,476.68946)" stroke="#616161">
    <rect id="rect36" rx="60" height="969" width="472" y="0" x="0"/>
   </g>
   <g id="g38" stroke-width="3" transform="matrix(0,-0.94516303,0.94267555,0,6.5696201,476.68946)" stroke="#1e1e1e">
    <rect id="rect40" rx="60" height="969" width="472" y="0" x="0"/>
   </g>
   <g id="g42" stroke-width="2" transform="matrix(0,-0.94516303,0.94267555,0,6.5696201,476.68946)" stroke="#b4b4b4">
    <rect id="rect44" rx="60" height="969" width="472" y="0" x="0"/>
   </g>
   <g id="g46" transform="matrix(0,-0.94516303,0.94267555,0,6.5696201,476.68946)" stroke="#8a8a8a">
    <rect id="rect48" rx="60" height="969" width="472" y="0" x="0"/>
   </g>
   <g id="Group" fill="#444445" transform="matrix(0,-0.94516303,0.94267555,0,307.28312,30.572506)">
    <path id="Shape" d="m0,0,2,0c1,0,2,1,2,2v56c0,1-1,2-2,2h-2v-60z"/>
    <path id="path52" d="m0,97,2,0c1,0,2,1,2,2v116c0,1-1,2-2,2h-2v-120z"/>
   </g>
   <path id="path54" fill="#171717" d="m98.668,463.1,0-419.44,736.32,0,0,419.44-736.32,0z"/>
   <rect id="Rectangle-path" opacity="0.4" rx="7.5613" transform="matrix(0,-1,1,0,0,0)" height="13.197" width="159.73" stroke="#141414" y="44.277" x="-334.92" stroke-width="2.8318" fill="#1e1e1e"/>
   <rect id="rect57" rx="7.5613" transform="matrix(0,-1,1,0,0,0)" height="13.197" width="159.73" stroke="#141414" y="874.77" x="-334.92" stroke-width="2.8318" fill="#101010"/>
   <g id="g59" transform="matrix(0,-0.94516303,0.94267555,0,41.448616,396.3506)">
    <path id="path61" opacity="0.6" d="m9.2,18c5,0,8.8-3.8,8.8-8.7,0-4.8-4-8.7-8.8-8.7s-8.7,4-8.7,8.7c0,5,4,8.8,8.7,8.8v-0.1z" stroke="#2f2f2f" fill="#323232"/>
    <circle id="Oval" d="M 14.2,9.3000002 C 14.2,12.061424 11.961424,14.3 9.1999998,14.3 c -2.7614237,0 -5,-2.238576 -5,-4.9999998 0,-2.7614238 2.2385763,-5 5,-5 2.7614242,0 5.0000002,2.2385762 5.0000002,5 z" cx="9.2" cy="9.3" r="5" fill="#160f26"/>
   </g>
  </g>
 </g>
</svg>
