<?xml version="1.0" encoding="UTF-8" standalone="no"?>
<svg xmlns="http://www.w3.org/2000/svg" height="452.43" width="917.68" version="1.1" viewBox="0 0 917.67529 452.43137">
 <title id="title4">Nexus 5X</title>
 <g id="Nexus5X" fill="none" transform="matrix(0,-1,1,0,0.00325073,452.4346)">
  <g id="g3004">
   <rect id="Rectangle-path" opacity="0.7" rx="58.668" height="917.67" width="448.66" y="-0.003241" x="0.0032328" fill="#656565"/>
   <path id="Shape" opacity="0.7" fill="#000" d="m3.7818,62.449c0-32.627,26.251-59.049,58.668-59.049h324.16c32.317,0,58.668,26.522,58.668,59.049v791.26c0,32.527-26.351,59.049-58.668,59.049h-324.16c-32.416,0-58.668-26.522-58.668-59.049v-791.36,0.10008z"/>
   <rect id="rect12" rx="58.668" height="906.16" width="435.73" y="7.2028" x="6.8644" fill="#2b292b"/>
   <path id="path14" fill="#656364" d="m448.66,238.4,3.7786,0,0,62.552-3.7786,0,0-62.552zm0,125.1,2.6848,0,0,137.32-2.8837,0,0.19888-137.32z"/>
   <g id="Group" transform="matrix(0.99436709,0,0,1.0008385,75.575131,30.021912)">
    <path id="path17" opacity="0.6" fill="#373737" d="m9.2,18c5,0,8.8-3.8,8.8-8.7,0-4.8-4-8.7-8.8-8.7s-8.7,4-8.7,8.7c0,5,4,8.8,8.7,8.8v-0.1z"/>
    <circle id="Oval" d="M 14.2,9.3000002 C 14.2,12.061424 11.961424,14.3 9.1999998,14.3 c -2.7614237,0 -5,-2.238576 -5,-4.9999998 0,-2.7614238 2.2385763,-5 5,-5 2.7614242,0 5.0000002,2.2385762 5.0000002,5 z" cx="9.2" cy="9.3" r="5" fill="#160f26"/>
   </g>
   <path id="path20" opacity="0.5" fill="#171717" d="m19.221,88.066,412,0,0,732-412,0,0-732z"/>
   <rect id="rect22" opacity="0.3" rx="6.9606" height="14.512" width="163.28" stroke="#393939" y="872.03" x="142.5" stroke-width="1.9952" fill="#0d0b0b"/>
   <rect id="rect24" opacity="0.3" rx="6.9606" height="14.512" width="163.28" stroke="#393939" y="32.524" x="142.5" stroke-width="1.9952" fill="#0d0b0b"/>
  </g>
 </g>
</svg>
