<?xml version="1.0" encoding="UTF-8" standalone="no"?>
<svg xmlns="http://www.w3.org/2000/svg" height="914.47" width="445.17" version="1.1" xmlns:xlink="http://www.w3.org/1999/xlink" viewBox="0 0 445.17206 914.46722">
 <title id="title4">Nexus 6P</title>
 <defs id="defs6">
  <linearGradient id="linearGradient-2" y1="0.38635" x2="0.966" x1="0.042" y2="0.61863">
   <stop id="stop14" stop-color="#3A3A3A" offset="0"/>
   <stop id="stop16" stop-color="#181818" offset="1"/>
  </linearGradient>
  <linearGradient id="linearGradient3050" y2="418.38" xlink:href="#linearGradient-2" gradientUnits="userSpaceOnUse" x2="653.3" gradientTransform="scale(0.69792557,1.4328175)" y1="261.28" x1="28.404"/>
 </defs>
 <g id="Page-1" fill="none" transform="translate(-0.01713988,-62.547364)">
  <g id="Nexus6P" transform="translate(4,4)">
   <g id="g3088">
    <g id="g3052">
     <g id="b-link" fill="url(#linearGradient3050)" transform="matrix(0.92840894,0,0,0.93695416,-0.71850895,61.841656)">
      <rect id="b" rx="60" height="969" width="472" y="0" x="0" fill="url(#linearGradient3050)"/>
     </g>
     <g id="g22" transform="matrix(0.92840894,0,0,0.93695416,-0.71850895,61.841656)">
      <rect id="rect24" rx="60" height="969" width="472" y="0" x="0"/>
     </g>
     <g id="g26" transform="matrix(0.92840894,0,0,0.93695416,-0.71850895,61.841656)">
      <rect id="rect28" rx="60" height="969" width="472" y="0" x="0"/>
     </g>
     <g id="g30" stroke-width="7" stroke="#1e1e1e" transform="matrix(0.92840894,0,0,0.93695416,-0.71850895,61.841656)">
      <rect id="rect32" rx="60" height="969" width="472" y="0" x="0"/>
     </g>
     <g id="g34" stroke-width="5" stroke="#616161" transform="matrix(0.92840894,0,0,0.93695416,-0.71850895,61.841656)">
      <rect id="rect36" rx="60" height="969" width="472" y="0" x="0"/>
     </g>
     <g id="g38" stroke-width="3" stroke="#1e1e1e" transform="matrix(0.92840894,0,0,0.93695416,-0.71850895,61.841656)">
      <rect id="rect40" rx="60" height="969" width="472" y="0" x="0"/>
     </g>
     <g id="g42" stroke-width="2" stroke="#b4b4b4" transform="matrix(0.92840894,0,0,0.93695416,-0.71850895,61.841656)">
      <rect id="rect44" rx="60" height="969" width="472" y="0" x="0"/>
     </g>
     <g id="g46" stroke="#8a8a8a" transform="matrix(0.92840894,0,0,0.93695416,-0.71850895,61.841656)">
      <rect id="rect48" rx="60" height="969" width="472" y="0" x="0"/>
     </g>
     <g id="Group" fill="#444445" transform="matrix(0.92840894,0,0,0.93695416,437.4905,360.73005)">
      <path id="Shape" d="m0,0,2,0c1,0,2,1,2,2v56c0,1-1,2-2,2h-2v-60z"/>
      <path id="path52" d="m0,97,2,0c1,0,2,1,2,2v116c0,1-1,2-2,2h-2v-120z"/>
     </g>
     <path id="path54" fill="#171717" d="m12.632,152.66,412,0,0,732-412,0,0-732z"/>
     <rect id="Rectangle-path" opacity="0.4" rx="7.4273" height="13.117" width="156.9" stroke="#141414" y="99.32" x="138.54" stroke-width="2.798" fill="#1e1e1e"/>
     <rect id="rect57" rx="7.4273" height="13.117" width="156.9" stroke="#141414" y="924.78" x="138.54" stroke-width="2.798" fill="#101010"/>
     <g id="g59" transform="matrix(0.92840894,0,0,0.93695416,78.196251,96.50896)">
      <path id="path61" opacity="0.6" d="m9.2,18c5,0,8.8-3.8,8.8-8.7,0-4.8-4-8.7-8.8-8.7s-8.7,4-8.7,8.7c0,5,4,8.8,8.7,8.8v-0.1z" stroke="#2f2f2f" fill="#323232"/>
      <circle id="Oval" d="M 14.2,9.3000002 C 14.2,12.061424 11.961424,14.3 9.1999998,14.3 c -2.7614237,0 -5,-2.238576 -5,-4.9999998 0,-2.7614238 2.2385763,-5 5,-5 2.7614242,0 5.0000002,2.2385762 5.0000002,5 z" cx="9.2" cy="9.3" r="5" fill="#160f26"/>
     </g>
    </g>
   </g>
  </g>
 </g>
</svg>
