<?xml version="1.0" encoding="UTF-8" standalone="no"?>
<svg
   xmlns:dc="http://purl.org/dc/elements/1.1/"
   xmlns:cc="http://creativecommons.org/ns#"
   xmlns:rdf="http://www.w3.org/1999/02/22-rdf-syntax-ns#"
   xmlns:svg="http://www.w3.org/2000/svg"
   xmlns="http://www.w3.org/2000/svg"
   xmlns:sodipodi="http://sodipodi.sourceforge.net/DTD/sodipodi-0.dtd"
   xmlns:inkscape="http://www.inkscape.org/namespaces/inkscape"
   width="80"
   height="32"
   viewBox="0 0 80 32"
   version="1.1"
   id="svg6301"
   inkscape:version="0.48.4 r9939"
   sodipodi:docname="securityIcons.svg">
  <metadata
     id="metadata6418">
    <rdf:RDF>
      <cc:Work
         rdf:about="">
        <dc:format>image/svg+xml</dc:format>
        <dc:type
           rdf:resource="http://purl.org/dc/dcmitype/StillImage" />
      </cc:Work>
    </rdf:RDF>
  </metadata>
  <sodipodi:namedview
     pagecolor="#ffffff"
     bordercolor="#666666"
     borderopacity="1"
     objecttolerance="10"
     gridtolerance="10"
     guidetolerance="10"
     inkscape:pageopacity="0"
     inkscape:pageshadow="2"
     inkscape:window-width="1525"
     inkscape:window-height="1092"
     id="namedview6416"
     showgrid="false"
     inkscape:zoom="17.55"
     inkscape:cx="77.609293"
     inkscape:cy="-1.8798347"
     inkscape:window-x="615"
     inkscape:window-y="171"
     inkscape:window-maximized="0"
     inkscape:current-layer="Page"
     showborder="true" />
  <!-- Generator: Sketch 39.1 (31720) - http://www.bohemiancoding.com/sketch -->
  <title
     id="title6303">Non-Touch-Summary-Icons</title>
  <desc
     id="desc6305">Created with Sketch.</desc>
  <defs
     id="defs6307" />
  <g
     id="Page"
     style="fill:none;stroke:none"
     transform="translate(0,-64)">
    <g
       style="fill:#000000"
       transform="translate(48,80)"
       id="Info-Grey">
      <path
         inkscape:connector-curvature="0"
         id="Icon"
         d="M 2,3.7320873 C 2,2.7754819 2.7742777,2 3.7262996,2 L 13.2737,2 C 14.227109,2 15,2.7689087 15,3.7320873 l 0,8.5358257 C 15,13.224518 14.225722,14 13.2737,14 L 3.7262996,14 C 2.7728907,14 2,13.231091 2,12.267913 L 2,3.7320873 z M 8,6 9,6 9,5 8,5 8,6 8,6 z m 0,5 1,0 0,-4 -1,0 0,4 0,0 z" />
    </g>
    <g
       id="Icon-HTTP"
       transform="translate(64,80)">
      <polygon
         id="Layout"
         points="0,16 0,0 16,0 16,16 " />
    </g>
    <g
       id="ic_help_black_24dp"
       transform="translate(66,82)"
       style="fill:#000000">
      <g
         id="Group">
        <path
           d="M 67.71875 18 C 66.766728 18 66 18.762145 66 19.71875 L 66 28.28125 C 66 29.244428 66.765341 30 67.71875 30 L 77.28125 30 C 78.233272 30 79 29.237855 79 28.28125 L 79 19.71875 C 79 18.755571 78.234659 18 77.28125 18 L 67.71875 18 z M 72.5 20 C 73.605 20 74.5 20.895 74.5 22 C 74.5 22.44 74.31625 22.84 74.03125 23.125 L 73.59375 23.59375 C 73.23375 23.95875 73 24.25 73 25 L 72.6875 25 L 72.3125 25 L 72 25 L 72 24.75 C 72 24.2 72.23375 23.70875 72.59375 23.34375 L 73.21875 22.71875 C 73.40375 22.53875 73.5 22.275 73.5 22 C 73.5 21.45 73.05 21 72.5 21 C 71.95 21 71.5 21.45 71.5 22 L 70.5 22 C 70.5 20.895 71.395 20 72.5 20 z M 72 26 L 73 26 L 73 27 L 72 27 L 72 26 z "
           transform="translate(-66,-18)"
           id="path3614" />
      </g>
    </g>
    <g
       transform="translate(0,80)"
       id="g6319">
      <g
         id="Security-Icon-Green-Simple">
        <rect
           style="opacity:0.2"
           height="16"
           width="16"
           y="0"
           x="0"
           id="rect6322" />
        <rect
           style="fill:#000000"
           rx="1"
           height="8"
           width="8"
           y="4"
           x="4"
           id="Green" />
      </g>
    </g>
    <g
       transform="translate(16,80)"
       id="g6325">
      <g
         id="g6327">
        <rect
           style="opacity:0.2"
           height="16"
           width="16"
           y="0"
           x="0"
           id="rect6329" />
        <rect
           style="fill:#000000"
           rx="4"
           height="8"
           width="8"
           y="4"
           x="4"
           id="rect6331" />
      </g>
    </g>
    <g
       transform="translate(32,80)"
       id="g6333">
      <g
         id="g6335">
        <rect
           style="opacity:0.2"
           height="16"
           width="16"
           y="0"
           x="0"
           id="rect6337" />
        <polygon
           style="fill:#000000"
           points="3,12 8,3 13,12 "
           id="Red" />
      </g>
    </g>
    <g
       transform="translate(32,64)"
       id="g6340">
      <rect
         style="opacity:0.2"
         height="16"
         width="16"
         y="0"
         x="0"
         id="rect6342" />
      <path
         style="fill:#000000"
         inkscape:connector-curvature="0"
         id="path6344"
         d="m 0.5,14 15,0 L 8,1 0.5,14 l 0,0 z m 8.5,-2 -2,0 0,-2 2,0 0,2 0,0 z M 9,9 7,9 7,6 9,6 9,9 9,9 z" />
    </g>
    <g
       transform="translate(16,64)"
       id="g6346">
      <polygon
         points="16,0 16,16 0,16 0,0 "
         id="polygon6348" />
      <path
         style="fill:#000000"
         inkscape:connector-curvature="0"
         id="path6350"
         d="M 8,1 C 4.136,1 1,4.136 1,8 c 0,3.864 3.136,7 7,7 3.864,0 7,-3.136 7,-7 C 15,4.136 11.864,1 8,1 L 8,1 z M 2.5,8 C 2.5,4.968125 4.968125,2.5 8,2.5 c 3.031875,0 5.5,2.468125 5.5,5.5 0,3.031875 -2.468125,5.5 -5.5,5.5 C 4.968125,13.5 2.5,11.031875 2.5,8 z M 9,12 9,7 7,7 7,12 9,12 z M 7,6 9,6 9,4 7,4 7,6 7,6 z" />
    </g>
    <g
       transform="translate(0,64)"
       id="g6352">
      <polygon
         points="16,0 16,16 0,16 0,0 "
         id="polygon6354" />
      <path
         style="fill:#000000"
         inkscape:connector-curvature="0"
         id="path6356"
         d="m 10.5,6.4999999 0,-1 C 10.5,4.1199951 9.3800049,3 8,3 6.6199951,3.0101721 5.5,4.1199951 5.5,5.4999999 l 0,1 c 0,0 0.050003,1e-7 -0.5,0 -0.5500031,-10e-8 -1,0.4501534 -1,0.9963379 L 4,12.5 c 0,0.550003 0.4500122,1 1,1 0.5499878,0 5.450012,0 6,0 0.549988,0 1,-0.449997 1,-1 0,-0.550003 0,-4.4499969 0,-5 0,-0.5277289 -0.449997,-1 -1,-1.0000001 -0.550003,1e-7 -0.5,0 -0.5,0 z M 6.5,6.5101141 6.5,5.5 C 6.5,4.6699982 7.1699982,4 8,4 8.8300018,4 9.5,4.6699982 9.5,5.5 l 0,1.0101141 -3,0 z" />
    </g>
    <g
       style="fill:#000000"
       transform="translate(99,35)"
       id="g6358" />
    <g
       transform="translate(128,32)"
       id="g6362">
      <g
         id="g6364">
        <polygon
           points="32,0 32,32 0,32 0,0 "
           id="polygon6366" />
      </g>
      <g
         style="fill:#000000"
         transform="translate(3,3)"
         id="g6368">
        <g
           id="g6370" />
      </g>
    </g>
    <g
       transform="translate(0,32)"
       id="g6374">
      <g
         id="g6376">
        <rect
           style="opacity:0.2"
           height="32"
           width="32"
           y="0"
           x="0"
           id="rect6378" />
      </g>
    </g>
    <g
       transform="translate(32,32)"
       id="g6382">
      <g
         id="g6384">
        <rect
           style="opacity:0.2"
           height="32"
           width="32"
           y="0"
           x="0"
           id="rect6386" />
      </g>
    </g>
    <g
       transform="translate(64,32)"
       id="g6390">
      <g
         id="g6392">
        <rect
           style="opacity:0.2"
           height="32"
           width="32"
           y="0"
           x="0"
           id="rect6394" />
      </g>
    </g>
    <g
       transform="translate(64,0)"
       id="g6398">
      <rect
         style="opacity:0.2"
         height="32"
         width="32"
         y="0"
         x="0"
         id="rect6400" />
    </g>
    <g
       transform="translate(32,0)"
       id="g6404">
      <polygon
         points="32,0 32,32 0,32 0,0 "
         id="polygon6406" />
    </g>
    <g
       id="g6410">
      <polygon
         points="32,0 32,32 0,32 0,0 "
         id="polygon6412" />
    </g>
  </g>
</svg>
